<?xml version="1.0" encoding="utf-8" standalone="no"?>
<!DOCTYPE svg PUBLIC "-//W3C//DTD SVG 1.1//EN"
  "http://www.w3.org/Graphics/SVG/1.1/DTD/svg11.dtd">
<svg xmlns:xlink="http://www.w3.org/1999/xlink" width="460.8pt" height="345.6pt" viewBox="0 0 460.8 345.6" xmlns="http://www.w3.org/2000/svg" version="1.1">
 <metadata>
  <rdf:RDF xmlns:dc="http://purl.org/dc/elements/1.1/" xmlns:cc="http://creativecommons.org/ns#" xmlns:rdf="http://www.w3.org/1999/02/22-rdf-syntax-ns#">
   <cc:Work>
    <dc:type rdf:resource="http://purl.org/dc/dcmitype/StillImage"/>
    <dc:date>2025-04-10T09:53:27.088113</dc:date>
    <dc:format>image/svg+xml</dc:format>
    <dc:creator>
     <cc:Agent>
      <dc:title>Matplotlib v3.10.0, https://matplotlib.org/</dc:title>
     </cc:Agent>
    </dc:creator>
   </cc:Work>
  </rdf:RDF>
 </metadata>
 <defs>
  <style type="text/css">*{stroke-linejoin: round; stroke-linecap: butt}</style>
 </defs>
 <g id="figure_1">
  <g id="patch_1">
   <path d="M 0 345.6 
L 460.8 345.6 
L 460.8 0 
L 0 0 
L 0 345.6 
z
" style="fill: none"/>
  </g>
  <g id="axes_1">
   <g id="patch_2">
    <path d="M 31.26274 312.24351 
L 415.296635 312.24351 
L 415.296635 13.598678 
L 31.26274 13.598678 
L 31.26274 312.24351 
z
" style="fill: none"/>
   </g>
   <g id="axes_2">
    <g id="patch_3">
     <path d="M 415.296635 312.24351 
L 415.296635 312.24351 
L 415.296635 13.598678 
L 415.296635 13.598678 
L 415.296635 312.24351 
z
" style="fill: none"/>
    </g>
    <g id="matplotlib.axis_1"/>
    <g id="matplotlib.axis_2">
     <g id="ytick_1">
      <g id="line2d_1">
       <defs>
        <path id="m1ab5cfde94" d="M 0 0 
L 3.5 0 
" style="stroke: #000000; stroke-width: 0.8"/>
       </defs>
       <g>
        <use xlink:href="#m1ab5cfde94" x="415.296635" y="312.24351" style="stroke: #000000; stroke-width: 0.8"/>
       </g>
      </g>
      <g id="text_1">
       <!-- 0.0 -->
       <g transform="translate(422.296635 316.042729) scale(0.1 -0.1)">
        <defs>
         <path id="DejaVuSans-30" d="M 2034 4250 
Q 1547 4250 1301 3770 
Q 1056 3291 1056 2328 
Q 1056 1369 1301 889 
Q 1547 409 2034 409 
Q 2525 409 2770 889 
Q 3016 1369 3016 2328 
Q 3016 3291 2770 3770 
Q 2525 4250 2034 4250 
z
M 2034 4750 
Q 2819 4750 3233 4129 
Q 3647 3509 3647 2328 
Q 3647 1150 3233 529 
Q 2819 -91 2034 -91 
Q 1250 -91 836 529 
Q 422 1150 422 2328 
Q 422 3509 836 4129 
Q 1250 4750 2034 4750 
z
" transform="scale(0.015625)"/>
         <path id="DejaVuSans-2e" d="M 684 794 
L 1344 794 
L 1344 0 
L 684 0 
L 684 794 
z
" transform="scale(0.015625)"/>
        </defs>
        <use xlink:href="#DejaVuSans-30"/>
        <use xlink:href="#DejaVuSans-2e" transform="translate(63.623047 0)"/>
        <use xlink:href="#DejaVuSans-30" transform="translate(95.410156 0)"/>
       </g>
      </g>
     </g>
     <g id="ytick_2">
      <g id="line2d_2">
       <g>
        <use xlink:href="#m1ab5cfde94" x="415.296635" y="277.555605" style="stroke: #000000; stroke-width: 0.8"/>
       </g>
      </g>
      <g id="text_2">
       <!-- 0.2 -->
       <g transform="translate(422.296635 281.354824) scale(0.1 -0.1)">
        <defs>
         <path id="DejaVuSans-32" d="M 1228 531 
L 3431 531 
L 3431 0 
L 469 0 
L 469 531 
Q 828 903 1448 1529 
Q 2069 2156 2228 2338 
Q 2531 2678 2651 2914 
Q 2772 3150 2772 3378 
Q 2772 3750 2511 3984 
Q 2250 4219 1831 4219 
Q 1534 4219 1204 4116 
Q 875 4013 500 3803 
L 500 4441 
Q 881 4594 1212 4672 
Q 1544 4750 1819 4750 
Q 2544 4750 2975 4387 
Q 3406 4025 3406 3419 
Q 3406 3131 3298 2873 
Q 3191 2616 2906 2266 
Q 2828 2175 2409 1742 
Q 1991 1309 1228 531 
z
" transform="scale(0.015625)"/>
        </defs>
        <use xlink:href="#DejaVuSans-30"/>
        <use xlink:href="#DejaVuSans-2e" transform="translate(63.623047 0)"/>
        <use xlink:href="#DejaVuSans-32" transform="translate(95.410156 0)"/>
       </g>
      </g>
     </g>
     <g id="ytick_3">
      <g id="line2d_3">
       <g>
        <use xlink:href="#m1ab5cfde94" x="415.296635" y="242.8677" style="stroke: #000000; stroke-width: 0.8"/>
       </g>
      </g>
      <g id="text_3">
       <!-- 0.4 -->
       <g transform="translate(422.296635 246.666919) scale(0.1 -0.1)">
        <defs>
         <path id="DejaVuSans-34" d="M 2419 4116 
L 825 1625 
L 2419 1625 
L 2419 4116 
z
M 2253 4666 
L 3047 4666 
L 3047 1625 
L 3713 1625 
L 3713 1100 
L 3047 1100 
L 3047 0 
L 2419 0 
L 2419 1100 
L 313 1100 
L 313 1709 
L 2253 4666 
z
" transform="scale(0.015625)"/>
        </defs>
        <use xlink:href="#DejaVuSans-30"/>
        <use xlink:href="#DejaVuSans-2e" transform="translate(63.623047 0)"/>
        <use xlink:href="#DejaVuSans-34" transform="translate(95.410156 0)"/>
       </g>
      </g>
     </g>
     <g id="ytick_4">
      <g id="line2d_4">
       <g>
        <use xlink:href="#m1ab5cfde94" x="415.296635" y="208.179796" style="stroke: #000000; stroke-width: 0.8"/>
       </g>
      </g>
      <g id="text_4">
       <!-- 0.6 -->
       <g transform="translate(422.296635 211.979014) scale(0.1 -0.1)">
        <defs>
         <path id="DejaVuSans-36" d="M 2113 2584 
Q 1688 2584 1439 2293 
Q 1191 2003 1191 1497 
Q 1191 994 1439 701 
Q 1688 409 2113 409 
Q 2538 409 2786 701 
Q 3034 994 3034 1497 
Q 3034 2003 2786 2293 
Q 2538 2584 2113 2584 
z
M 3366 4563 
L 3366 3988 
Q 3128 4100 2886 4159 
Q 2644 4219 2406 4219 
Q 1781 4219 1451 3797 
Q 1122 3375 1075 2522 
Q 1259 2794 1537 2939 
Q 1816 3084 2150 3084 
Q 2853 3084 3261 2657 
Q 3669 2231 3669 1497 
Q 3669 778 3244 343 
Q 2819 -91 2113 -91 
Q 1303 -91 875 529 
Q 447 1150 447 2328 
Q 447 3434 972 4092 
Q 1497 4750 2381 4750 
Q 2619 4750 2861 4703 
Q 3103 4656 3366 4563 
z
" transform="scale(0.015625)"/>
        </defs>
        <use xlink:href="#DejaVuSans-30"/>
        <use xlink:href="#DejaVuSans-2e" transform="translate(63.623047 0)"/>
        <use xlink:href="#DejaVuSans-36" transform="translate(95.410156 0)"/>
       </g>
      </g>
     </g>
     <g id="ytick_5">
      <g id="line2d_5">
       <g>
        <use xlink:href="#m1ab5cfde94" x="415.296635" y="173.491891" style="stroke: #000000; stroke-width: 0.8"/>
       </g>
      </g>
      <g id="text_5">
       <!-- 0.8 -->
       <g transform="translate(422.296635 177.29111) scale(0.1 -0.1)">
        <defs>
         <path id="DejaVuSans-38" d="M 2034 2216 
Q 1584 2216 1326 1975 
Q 1069 1734 1069 1313 
Q 1069 891 1326 650 
Q 1584 409 2034 409 
Q 2484 409 2743 651 
Q 3003 894 3003 1313 
Q 3003 1734 2745 1975 
Q 2488 2216 2034 2216 
z
M 1403 2484 
Q 997 2584 770 2862 
Q 544 3141 544 3541 
Q 544 4100 942 4425 
Q 1341 4750 2034 4750 
Q 2731 4750 3128 4425 
Q 3525 4100 3525 3541 
Q 3525 3141 3298 2862 
Q 3072 2584 2669 2484 
Q 3125 2378 3379 2068 
Q 3634 1759 3634 1313 
Q 3634 634 3220 271 
Q 2806 -91 2034 -91 
Q 1263 -91 848 271 
Q 434 634 434 1313 
Q 434 1759 690 2068 
Q 947 2378 1403 2484 
z
M 1172 3481 
Q 1172 3119 1398 2916 
Q 1625 2713 2034 2713 
Q 2441 2713 2670 2916 
Q 2900 3119 2900 3481 
Q 2900 3844 2670 4047 
Q 2441 4250 2034 4250 
Q 1625 4250 1398 4047 
Q 1172 3844 1172 3481 
z
" transform="scale(0.015625)"/>
        </defs>
        <use xlink:href="#DejaVuSans-30"/>
        <use xlink:href="#DejaVuSans-2e" transform="translate(63.623047 0)"/>
        <use xlink:href="#DejaVuSans-38" transform="translate(95.410156 0)"/>
       </g>
      </g>
     </g>
     <g id="ytick_6">
      <g id="line2d_6">
       <g>
        <use xlink:href="#m1ab5cfde94" x="415.296635" y="138.803986" style="stroke: #000000; stroke-width: 0.8"/>
       </g>
      </g>
      <g id="text_6">
       <!-- 1.0 -->
       <g transform="translate(422.296635 142.603205) scale(0.1 -0.1)">
        <defs>
         <path id="DejaVuSans-31" d="M 794 531 
L 1825 531 
L 1825 4091 
L 703 3866 
L 703 4441 
L 1819 4666 
L 2450 4666 
L 2450 531 
L 3481 531 
L 3481 0 
L 794 0 
L 794 531 
z
" transform="scale(0.015625)"/>
        </defs>
        <use xlink:href="#DejaVuSans-31"/>
        <use xlink:href="#DejaVuSans-2e" transform="translate(63.623047 0)"/>
        <use xlink:href="#DejaVuSans-30" transform="translate(95.410156 0)"/>
       </g>
      </g>
     </g>
     <g id="ytick_7">
      <g id="line2d_7">
       <g>
        <use xlink:href="#m1ab5cfde94" x="415.296635" y="104.116081" style="stroke: #000000; stroke-width: 0.8"/>
       </g>
      </g>
      <g id="text_7">
       <!-- 1.2 -->
       <g transform="translate(422.296635 107.9153) scale(0.1 -0.1)">
        <use xlink:href="#DejaVuSans-31"/>
        <use xlink:href="#DejaVuSans-2e" transform="translate(63.623047 0)"/>
        <use xlink:href="#DejaVuSans-32" transform="translate(95.410156 0)"/>
       </g>
      </g>
     </g>
     <g id="ytick_8">
      <g id="line2d_8">
       <g>
        <use xlink:href="#m1ab5cfde94" x="415.296635" y="69.428176" style="stroke: #000000; stroke-width: 0.8"/>
       </g>
      </g>
      <g id="text_8">
       <!-- 1.4 -->
       <g transform="translate(422.296635 73.227395) scale(0.1 -0.1)">
        <use xlink:href="#DejaVuSans-31"/>
        <use xlink:href="#DejaVuSans-2e" transform="translate(63.623047 0)"/>
        <use xlink:href="#DejaVuSans-34" transform="translate(95.410156 0)"/>
       </g>
      </g>
     </g>
     <g id="ytick_9">
      <g id="line2d_9">
       <g>
        <use xlink:href="#m1ab5cfde94" x="415.296635" y="34.740272" style="stroke: #000000; stroke-width: 0.8"/>
       </g>
      </g>
      <g id="text_9">
       <!-- 1.6 -->
       <g transform="translate(422.296635 38.53949) scale(0.1 -0.1)">
        <use xlink:href="#DejaVuSans-31"/>
        <use xlink:href="#DejaVuSans-2e" transform="translate(63.623047 0)"/>
        <use xlink:href="#DejaVuSans-36" transform="translate(95.410156 0)"/>
       </g>
      </g>
     </g>
     <g id="ytick_10">
      <g id="line2d_10">
       <defs>
        <path id="m9863b37420" d="M 0 0 
L 2 0 
" style="stroke: #000000; stroke-width: 0.6"/>
       </defs>
       <g>
        <use xlink:href="#m9863b37420" x="415.296635" y="303.571534" style="stroke: #000000; stroke-width: 0.6"/>
       </g>
      </g>
     </g>
     <g id="ytick_11">
      <g id="line2d_11">
       <g>
        <use xlink:href="#m9863b37420" x="415.296635" y="294.899558" style="stroke: #000000; stroke-width: 0.6"/>
       </g>
      </g>
     </g>
     <g id="ytick_12">
      <g id="line2d_12">
       <g>
        <use xlink:href="#m9863b37420" x="415.296635" y="286.227581" style="stroke: #000000; stroke-width: 0.6"/>
       </g>
      </g>
     </g>
     <g id="ytick_13">
      <g id="line2d_13">
       <g>
        <use xlink:href="#m9863b37420" x="415.296635" y="268.883629" style="stroke: #000000; stroke-width: 0.6"/>
       </g>
      </g>
     </g>
     <g id="ytick_14">
      <g id="line2d_14">
       <g>
        <use xlink:href="#m9863b37420" x="415.296635" y="260.211653" style="stroke: #000000; stroke-width: 0.6"/>
       </g>
      </g>
     </g>
     <g id="ytick_15">
      <g id="line2d_15">
       <g>
        <use xlink:href="#m9863b37420" x="415.296635" y="251.539677" style="stroke: #000000; stroke-width: 0.6"/>
       </g>
      </g>
     </g>
     <g id="ytick_16">
      <g id="line2d_16">
       <g>
        <use xlink:href="#m9863b37420" x="415.296635" y="234.195724" style="stroke: #000000; stroke-width: 0.6"/>
       </g>
      </g>
     </g>
     <g id="ytick_17">
      <g id="line2d_17">
       <g>
        <use xlink:href="#m9863b37420" x="415.296635" y="225.523748" style="stroke: #000000; stroke-width: 0.6"/>
       </g>
      </g>
     </g>
     <g id="ytick_18">
      <g id="line2d_18">
       <g>
        <use xlink:href="#m9863b37420" x="415.296635" y="216.851772" style="stroke: #000000; stroke-width: 0.6"/>
       </g>
      </g>
     </g>
     <g id="ytick_19">
      <g id="line2d_19">
       <g>
        <use xlink:href="#m9863b37420" x="415.296635" y="199.507819" style="stroke: #000000; stroke-width: 0.6"/>
       </g>
      </g>
     </g>
     <g id="ytick_20">
      <g id="line2d_20">
       <g>
        <use xlink:href="#m9863b37420" x="415.296635" y="190.835843" style="stroke: #000000; stroke-width: 0.6"/>
       </g>
      </g>
     </g>
     <g id="ytick_21">
      <g id="line2d_21">
       <g>
        <use xlink:href="#m9863b37420" x="415.296635" y="182.163867" style="stroke: #000000; stroke-width: 0.6"/>
       </g>
      </g>
     </g>
     <g id="ytick_22">
      <g id="line2d_22">
       <g>
        <use xlink:href="#m9863b37420" x="415.296635" y="164.819915" style="stroke: #000000; stroke-width: 0.6"/>
       </g>
      </g>
     </g>
     <g id="ytick_23">
      <g id="line2d_23">
       <g>
        <use xlink:href="#m9863b37420" x="415.296635" y="156.147938" style="stroke: #000000; stroke-width: 0.6"/>
       </g>
      </g>
     </g>
     <g id="ytick_24">
      <g id="line2d_24">
       <g>
        <use xlink:href="#m9863b37420" x="415.296635" y="147.475962" style="stroke: #000000; stroke-width: 0.6"/>
       </g>
      </g>
     </g>
     <g id="ytick_25">
      <g id="line2d_25">
       <g>
        <use xlink:href="#m9863b37420" x="415.296635" y="130.13201" style="stroke: #000000; stroke-width: 0.6"/>
       </g>
      </g>
     </g>
     <g id="ytick_26">
      <g id="line2d_26">
       <g>
        <use xlink:href="#m9863b37420" x="415.296635" y="121.460034" style="stroke: #000000; stroke-width: 0.6"/>
       </g>
      </g>
     </g>
     <g id="ytick_27">
      <g id="line2d_27">
       <g>
        <use xlink:href="#m9863b37420" x="415.296635" y="112.788057" style="stroke: #000000; stroke-width: 0.6"/>
       </g>
      </g>
     </g>
     <g id="ytick_28">
      <g id="line2d_28">
       <g>
        <use xlink:href="#m9863b37420" x="415.296635" y="95.444105" style="stroke: #000000; stroke-width: 0.6"/>
       </g>
      </g>
     </g>
     <g id="ytick_29">
      <g id="line2d_29">
       <g>
        <use xlink:href="#m9863b37420" x="415.296635" y="86.772129" style="stroke: #000000; stroke-width: 0.6"/>
       </g>
      </g>
     </g>
     <g id="ytick_30">
      <g id="line2d_30">
       <g>
        <use xlink:href="#m9863b37420" x="415.296635" y="78.100153" style="stroke: #000000; stroke-width: 0.6"/>
       </g>
      </g>
     </g>
     <g id="ytick_31">
      <g id="line2d_31">
       <g>
        <use xlink:href="#m9863b37420" x="415.296635" y="60.7562" style="stroke: #000000; stroke-width: 0.6"/>
       </g>
      </g>
     </g>
     <g id="ytick_32">
      <g id="line2d_32">
       <g>
        <use xlink:href="#m9863b37420" x="415.296635" y="52.084224" style="stroke: #000000; stroke-width: 0.6"/>
       </g>
      </g>
     </g>
     <g id="ytick_33">
      <g id="line2d_33">
       <g>
        <use xlink:href="#m9863b37420" x="415.296635" y="43.412248" style="stroke: #000000; stroke-width: 0.6"/>
       </g>
      </g>
     </g>
     <g id="ytick_34">
      <g id="line2d_34">
       <g>
        <use xlink:href="#m9863b37420" x="415.296635" y="26.068295" style="stroke: #000000; stroke-width: 0.6"/>
       </g>
      </g>
     </g>
     <g id="ytick_35">
      <g id="line2d_35">
       <g>
        <use xlink:href="#m9863b37420" x="415.296635" y="17.396319" style="stroke: #000000; stroke-width: 0.6"/>
       </g>
      </g>
     </g>
     <g id="text_10">
      <!-- % of initial Sr content $\frac{100 \cdot x_{eq}}{x_0}$ -->
      <g transform="translate(453.99976 233.621094) rotate(-90) scale(0.1 -0.1)">
       <defs>
        <path id="DejaVuSans-25" d="M 4653 2053 
Q 4381 2053 4226 1822 
Q 4072 1591 4072 1178 
Q 4072 772 4226 539 
Q 4381 306 4653 306 
Q 4919 306 5073 539 
Q 5228 772 5228 1178 
Q 5228 1588 5073 1820 
Q 4919 2053 4653 2053 
z
M 4653 2450 
Q 5147 2450 5437 2106 
Q 5728 1763 5728 1178 
Q 5728 594 5436 251 
Q 5144 -91 4653 -91 
Q 4153 -91 3862 251 
Q 3572 594 3572 1178 
Q 3572 1766 3864 2108 
Q 4156 2450 4653 2450 
z
M 1428 4353 
Q 1159 4353 1004 4120 
Q 850 3888 850 3481 
Q 850 3069 1003 2837 
Q 1156 2606 1428 2606 
Q 1700 2606 1854 2837 
Q 2009 3069 2009 3481 
Q 2009 3884 1853 4118 
Q 1697 4353 1428 4353 
z
M 4250 4750 
L 4750 4750 
L 1831 -91 
L 1331 -91 
L 4250 4750 
z
M 1428 4750 
Q 1922 4750 2215 4408 
Q 2509 4066 2509 3481 
Q 2509 2891 2217 2550 
Q 1925 2209 1428 2209 
Q 931 2209 642 2551 
Q 353 2894 353 3481 
Q 353 4063 643 4406 
Q 934 4750 1428 4750 
z
" transform="scale(0.015625)"/>
        <path id="DejaVuSans-20" transform="scale(0.015625)"/>
        <path id="DejaVuSans-6f" d="M 1959 3097 
Q 1497 3097 1228 2736 
Q 959 2375 959 1747 
Q 959 1119 1226 758 
Q 1494 397 1959 397 
Q 2419 397 2687 759 
Q 2956 1122 2956 1747 
Q 2956 2369 2687 2733 
Q 2419 3097 1959 3097 
z
M 1959 3584 
Q 2709 3584 3137 3096 
Q 3566 2609 3566 1747 
Q 3566 888 3137 398 
Q 2709 -91 1959 -91 
Q 1206 -91 779 398 
Q 353 888 353 1747 
Q 353 2609 779 3096 
Q 1206 3584 1959 3584 
z
" transform="scale(0.015625)"/>
        <path id="DejaVuSans-66" d="M 2375 4863 
L 2375 4384 
L 1825 4384 
Q 1516 4384 1395 4259 
Q 1275 4134 1275 3809 
L 1275 3500 
L 2222 3500 
L 2222 3053 
L 1275 3053 
L 1275 0 
L 697 0 
L 697 3053 
L 147 3053 
L 147 3500 
L 697 3500 
L 697 3744 
Q 697 4328 969 4595 
Q 1241 4863 1831 4863 
L 2375 4863 
z
" transform="scale(0.015625)"/>
        <path id="DejaVuSans-69" d="M 603 3500 
L 1178 3500 
L 1178 0 
L 603 0 
L 603 3500 
z
M 603 4863 
L 1178 4863 
L 1178 4134 
L 603 4134 
L 603 4863 
z
" transform="scale(0.015625)"/>
        <path id="DejaVuSans-6e" d="M 3513 2113 
L 3513 0 
L 2938 0 
L 2938 2094 
Q 2938 2591 2744 2837 
Q 2550 3084 2163 3084 
Q 1697 3084 1428 2787 
Q 1159 2491 1159 1978 
L 1159 0 
L 581 0 
L 581 3500 
L 1159 3500 
L 1159 2956 
Q 1366 3272 1645 3428 
Q 1925 3584 2291 3584 
Q 2894 3584 3203 3211 
Q 3513 2838 3513 2113 
z
" transform="scale(0.015625)"/>
        <path id="DejaVuSans-74" d="M 1172 4494 
L 1172 3500 
L 2356 3500 
L 2356 3053 
L 1172 3053 
L 1172 1153 
Q 1172 725 1289 603 
Q 1406 481 1766 481 
L 2356 481 
L 2356 0 
L 1766 0 
Q 1100 0 847 248 
Q 594 497 594 1153 
L 594 3053 
L 172 3053 
L 172 3500 
L 594 3500 
L 594 4494 
L 1172 4494 
z
" transform="scale(0.015625)"/>
        <path id="DejaVuSans-61" d="M 2194 1759 
Q 1497 1759 1228 1600 
Q 959 1441 959 1056 
Q 959 750 1161 570 
Q 1363 391 1709 391 
Q 2188 391 2477 730 
Q 2766 1069 2766 1631 
L 2766 1759 
L 2194 1759 
z
M 3341 1997 
L 3341 0 
L 2766 0 
L 2766 531 
Q 2569 213 2275 61 
Q 1981 -91 1556 -91 
Q 1019 -91 701 211 
Q 384 513 384 1019 
Q 384 1609 779 1909 
Q 1175 2209 1959 2209 
L 2766 2209 
L 2766 2266 
Q 2766 2663 2505 2880 
Q 2244 3097 1772 3097 
Q 1472 3097 1187 3025 
Q 903 2953 641 2809 
L 641 3341 
Q 956 3463 1253 3523 
Q 1550 3584 1831 3584 
Q 2591 3584 2966 3190 
Q 3341 2797 3341 1997 
z
" transform="scale(0.015625)"/>
        <path id="DejaVuSans-6c" d="M 603 4863 
L 1178 4863 
L 1178 0 
L 603 0 
L 603 4863 
z
" transform="scale(0.015625)"/>
        <path id="DejaVuSans-53" d="M 3425 4513 
L 3425 3897 
Q 3066 4069 2747 4153 
Q 2428 4238 2131 4238 
Q 1616 4238 1336 4038 
Q 1056 3838 1056 3469 
Q 1056 3159 1242 3001 
Q 1428 2844 1947 2747 
L 2328 2669 
Q 3034 2534 3370 2195 
Q 3706 1856 3706 1288 
Q 3706 609 3251 259 
Q 2797 -91 1919 -91 
Q 1588 -91 1214 -16 
Q 841 59 441 206 
L 441 856 
Q 825 641 1194 531 
Q 1563 422 1919 422 
Q 2459 422 2753 634 
Q 3047 847 3047 1241 
Q 3047 1584 2836 1778 
Q 2625 1972 2144 2069 
L 1759 2144 
Q 1053 2284 737 2584 
Q 422 2884 422 3419 
Q 422 4038 858 4394 
Q 1294 4750 2059 4750 
Q 2388 4750 2728 4690 
Q 3069 4631 3425 4513 
z
" transform="scale(0.015625)"/>
        <path id="DejaVuSans-72" d="M 2631 2963 
Q 2534 3019 2420 3045 
Q 2306 3072 2169 3072 
Q 1681 3072 1420 2755 
Q 1159 2438 1159 1844 
L 1159 0 
L 581 0 
L 581 3500 
L 1159 3500 
L 1159 2956 
Q 1341 3275 1631 3429 
Q 1922 3584 2338 3584 
Q 2397 3584 2469 3576 
Q 2541 3569 2628 3553 
L 2631 2963 
z
" transform="scale(0.015625)"/>
        <path id="DejaVuSans-63" d="M 3122 3366 
L 3122 2828 
Q 2878 2963 2633 3030 
Q 2388 3097 2138 3097 
Q 1578 3097 1268 2742 
Q 959 2388 959 1747 
Q 959 1106 1268 751 
Q 1578 397 2138 397 
Q 2388 397 2633 464 
Q 2878 531 3122 666 
L 3122 134 
Q 2881 22 2623 -34 
Q 2366 -91 2075 -91 
Q 1284 -91 818 406 
Q 353 903 353 1747 
Q 353 2603 823 3093 
Q 1294 3584 2113 3584 
Q 2378 3584 2631 3529 
Q 2884 3475 3122 3366 
z
" transform="scale(0.015625)"/>
        <path id="DejaVuSans-65" d="M 3597 1894 
L 3597 1613 
L 953 1613 
Q 991 1019 1311 708 
Q 1631 397 2203 397 
Q 2534 397 2845 478 
Q 3156 559 3463 722 
L 3463 178 
Q 3153 47 2828 -22 
Q 2503 -91 2169 -91 
Q 1331 -91 842 396 
Q 353 884 353 1716 
Q 353 2575 817 3079 
Q 1281 3584 2069 3584 
Q 2775 3584 3186 3129 
Q 3597 2675 3597 1894 
z
M 3022 2063 
Q 3016 2534 2758 2815 
Q 2500 3097 2075 3097 
Q 1594 3097 1305 2825 
Q 1016 2553 972 2059 
L 3022 2063 
z
" transform="scale(0.015625)"/>
        <path id="DejaVuSans-22c5" d="M 684 2619 
L 1344 2619 
L 1344 1825 
L 684 1825 
L 684 2619 
z
" transform="scale(0.015625)"/>
        <path id="DejaVuSans-Oblique-78" d="M 3841 3500 
L 2234 1784 
L 3219 0 
L 2559 0 
L 1819 1388 
L 531 0 
L -166 0 
L 1556 1844 
L 641 3500 
L 1300 3500 
L 1972 2234 
L 3144 3500 
L 3841 3500 
z
" transform="scale(0.015625)"/>
        <path id="DejaVuSans-Oblique-65" d="M 3078 2063 
Q 3088 2113 3092 2166 
Q 3097 2219 3097 2272 
Q 3097 2653 2873 2875 
Q 2650 3097 2266 3097 
Q 1838 3097 1509 2826 
Q 1181 2556 1013 2059 
L 3078 2063 
z
M 3578 1613 
L 903 1613 
Q 884 1494 878 1425 
Q 872 1356 872 1306 
Q 872 872 1139 634 
Q 1406 397 1894 397 
Q 2269 397 2603 481 
Q 2938 566 3225 728 
L 3116 159 
Q 2806 34 2476 -28 
Q 2147 -91 1806 -91 
Q 1078 -91 686 257 
Q 294 606 294 1247 
Q 294 1794 489 2264 
Q 684 2734 1063 3103 
Q 1306 3334 1642 3459 
Q 1978 3584 2356 3584 
Q 2950 3584 3301 3228 
Q 3653 2872 3653 2272 
Q 3653 2128 3634 1964 
Q 3616 1800 3578 1613 
z
" transform="scale(0.015625)"/>
        <path id="DejaVuSans-Oblique-71" d="M 2669 525 
Q 2438 222 2123 65 
Q 1809 -91 1428 -91 
Q 897 -91 595 267 
Q 294 625 294 1253 
Q 294 1759 480 2231 
Q 666 2703 1013 3078 
Q 1238 3322 1530 3453 
Q 1822 3584 2144 3584 
Q 2531 3584 2781 3431 
Q 3031 3278 3144 2969 
L 3244 3494 
L 3822 3494 
L 2888 -1319 
L 2309 -1319 
L 2669 525 
z
M 891 1338 
Q 891 875 1084 633 
Q 1278 391 1644 391 
Q 2188 391 2572 911 
Q 2956 1431 2956 2175 
Q 2956 2625 2757 2864 
Q 2559 3103 2188 3103 
Q 1916 3103 1684 2976 
Q 1453 2850 1281 2606 
Q 1100 2350 995 2006 
Q 891 1663 891 1338 
z
" transform="scale(0.015625)"/>
       </defs>
       <use xlink:href="#DejaVuSans-25" transform="translate(0 0.667031)"/>
       <use xlink:href="#DejaVuSans-20" transform="translate(95.019531 0.667031)"/>
       <use xlink:href="#DejaVuSans-6f" transform="translate(126.806641 0.667031)"/>
       <use xlink:href="#DejaVuSans-66" transform="translate(187.988281 0.667031)"/>
       <use xlink:href="#DejaVuSans-20" transform="translate(223.193359 0.667031)"/>
       <use xlink:href="#DejaVuSans-69" transform="translate(254.980469 0.667031)"/>
       <use xlink:href="#DejaVuSans-6e" transform="translate(282.763672 0.667031)"/>
       <use xlink:href="#DejaVuSans-69" transform="translate(346.142578 0.667031)"/>
       <use xlink:href="#DejaVuSans-74" transform="translate(373.925781 0.667031)"/>
       <use xlink:href="#DejaVuSans-69" transform="translate(413.134766 0.667031)"/>
       <use xlink:href="#DejaVuSans-61" transform="translate(440.917969 0.667031)"/>
       <use xlink:href="#DejaVuSans-6c" transform="translate(502.197266 0.667031)"/>
       <use xlink:href="#DejaVuSans-20" transform="translate(529.980469 0.667031)"/>
       <use xlink:href="#DejaVuSans-53" transform="translate(561.767578 0.667031)"/>
       <use xlink:href="#DejaVuSans-72" transform="translate(625.244141 0.667031)"/>
       <use xlink:href="#DejaVuSans-20" transform="translate(666.357422 0.667031)"/>
       <use xlink:href="#DejaVuSans-63" transform="translate(698.144531 0.667031)"/>
       <use xlink:href="#DejaVuSans-6f" transform="translate(753.125 0.667031)"/>
       <use xlink:href="#DejaVuSans-6e" transform="translate(814.306641 0.667031)"/>
       <use xlink:href="#DejaVuSans-74" transform="translate(877.685547 0.667031)"/>
       <use xlink:href="#DejaVuSans-65" transform="translate(916.894531 0.667031)"/>
       <use xlink:href="#DejaVuSans-6e" transform="translate(978.417969 0.667031)"/>
       <use xlink:href="#DejaVuSans-74" transform="translate(1041.796875 0.667031)"/>
       <use xlink:href="#DejaVuSans-20" transform="translate(1081.005859 0.667031)"/>
       <use xlink:href="#DejaVuSans-31" transform="translate(1112.792969 66.046875) scale(0.7)"/>
       <use xlink:href="#DejaVuSans-30" transform="translate(1157.329102 66.046875) scale(0.7)"/>
       <use xlink:href="#DejaVuSans-30" transform="translate(1201.865234 66.046875) scale(0.7)"/>
       <use xlink:href="#DejaVuSans-22c5" transform="translate(1260.039062 66.046875) scale(0.7)"/>
       <use xlink:href="#DejaVuSans-Oblique-78" transform="translate(1295.927734 66.046875) scale(0.7)"/>
       <use xlink:href="#DejaVuSans-Oblique-65" transform="translate(1337.353516 54.5625) scale(0.49)"/>
       <use xlink:href="#DejaVuSans-Oblique-71" transform="translate(1367.5 54.5625) scale(0.49)"/>
       <use xlink:href="#DejaVuSans-Oblique-78" transform="translate(1219.792969 -25.067344) scale(0.7)"/>
       <use xlink:href="#DejaVuSans-30" transform="translate(1261.21875 -36.551719) scale(0.49)"/>
       <path d="M 1112.792969 19.463906 
L 1112.792969 25.713906 
L 1400.517578 25.713906 
L 1400.517578 19.463906 
L 1112.792969 19.463906 
z
"/>
      </g>
     </g>
     <g id="text_11">
      <!-- 1e−6 -->
      <g transform="translate(388.038822 10.598678) scale(0.1 -0.1)">
       <defs>
        <path id="DejaVuSans-2212" d="M 678 2272 
L 4684 2272 
L 4684 1741 
L 678 1741 
L 678 2272 
z
" transform="scale(0.015625)"/>
       </defs>
       <use xlink:href="#DejaVuSans-31"/>
       <use xlink:href="#DejaVuSans-65" transform="translate(63.623047 0)"/>
       <use xlink:href="#DejaVuSans-2212" transform="translate(125.146484 0)"/>
       <use xlink:href="#DejaVuSans-36" transform="translate(208.935547 0)"/>
      </g>
     </g>
    </g>
    <g id="patch_4">
     <path d="M 415.296635 312.24351 
L 415.296635 13.598678 
" style="fill: none; stroke: #000000; stroke-width: 0.8; stroke-linejoin: miter; stroke-linecap: square"/>
    </g>
   </g>
   <g id="matplotlib.axis_3">
    <g id="xtick_1">
     <g id="line2d_36">
      <defs>
       <path id="m603790eb23" d="M 0 0 
L 0 3.5 
" style="stroke: #000000; stroke-width: 0.8"/>
      </defs>
      <g>
       <use xlink:href="#m603790eb23" x="31.26274" y="312.24351" style="stroke: #000000; stroke-width: 0.8"/>
      </g>
     </g>
     <g id="text_12">
      <!-- 700 -->
      <g transform="translate(21.71899 326.841947) scale(0.1 -0.1)">
       <defs>
        <path id="DejaVuSans-37" d="M 525 4666 
L 3525 4666 
L 3525 4397 
L 1831 0 
L 1172 0 
L 2766 4134 
L 525 4134 
L 525 4666 
z
" transform="scale(0.015625)"/>
       </defs>
       <use xlink:href="#DejaVuSans-37"/>
       <use xlink:href="#DejaVuSans-30" transform="translate(63.623047 0)"/>
       <use xlink:href="#DejaVuSans-30" transform="translate(127.246094 0)"/>
      </g>
     </g>
    </g>
    <g id="xtick_2">
     <g id="line2d_37">
      <g>
       <use xlink:href="#m603790eb23" x="95.375243" y="312.24351" style="stroke: #000000; stroke-width: 0.8"/>
      </g>
     </g>
     <g id="text_13">
      <!-- 800 -->
      <g transform="translate(85.831493 326.841947) scale(0.1 -0.1)">
       <use xlink:href="#DejaVuSans-38"/>
       <use xlink:href="#DejaVuSans-30" transform="translate(63.623047 0)"/>
       <use xlink:href="#DejaVuSans-30" transform="translate(127.246094 0)"/>
      </g>
     </g>
    </g>
    <g id="xtick_3">
     <g id="line2d_38">
      <g>
       <use xlink:href="#m603790eb23" x="159.487747" y="312.24351" style="stroke: #000000; stroke-width: 0.8"/>
      </g>
     </g>
     <g id="text_14">
      <!-- 900 -->
      <g transform="translate(149.943997 326.841947) scale(0.1 -0.1)">
       <defs>
        <path id="DejaVuSans-39" d="M 703 97 
L 703 672 
Q 941 559 1184 500 
Q 1428 441 1663 441 
Q 2288 441 2617 861 
Q 2947 1281 2994 2138 
Q 2813 1869 2534 1725 
Q 2256 1581 1919 1581 
Q 1219 1581 811 2004 
Q 403 2428 403 3163 
Q 403 3881 828 4315 
Q 1253 4750 1959 4750 
Q 2769 4750 3195 4129 
Q 3622 3509 3622 2328 
Q 3622 1225 3098 567 
Q 2575 -91 1691 -91 
Q 1453 -91 1209 -44 
Q 966 3 703 97 
z
M 1959 2075 
Q 2384 2075 2632 2365 
Q 2881 2656 2881 3163 
Q 2881 3666 2632 3958 
Q 2384 4250 1959 4250 
Q 1534 4250 1286 3958 
Q 1038 3666 1038 3163 
Q 1038 2656 1286 2365 
Q 1534 2075 1959 2075 
z
" transform="scale(0.015625)"/>
       </defs>
       <use xlink:href="#DejaVuSans-39"/>
       <use xlink:href="#DejaVuSans-30" transform="translate(63.623047 0)"/>
       <use xlink:href="#DejaVuSans-30" transform="translate(127.246094 0)"/>
      </g>
     </g>
    </g>
    <g id="xtick_4">
     <g id="line2d_39">
      <g>
       <use xlink:href="#m603790eb23" x="223.60025" y="312.24351" style="stroke: #000000; stroke-width: 0.8"/>
      </g>
     </g>
     <g id="text_15">
      <!-- 1000 -->
      <g transform="translate(210.87525 326.841947) scale(0.1 -0.1)">
       <use xlink:href="#DejaVuSans-31"/>
       <use xlink:href="#DejaVuSans-30" transform="translate(63.623047 0)"/>
       <use xlink:href="#DejaVuSans-30" transform="translate(127.246094 0)"/>
       <use xlink:href="#DejaVuSans-30" transform="translate(190.869141 0)"/>
      </g>
     </g>
    </g>
    <g id="xtick_5">
     <g id="line2d_40">
      <g>
       <use xlink:href="#m603790eb23" x="287.712753" y="312.24351" style="stroke: #000000; stroke-width: 0.8"/>
      </g>
     </g>
     <g id="text_16">
      <!-- 1100 -->
      <g transform="translate(274.987753 326.841947) scale(0.1 -0.1)">
       <use xlink:href="#DejaVuSans-31"/>
       <use xlink:href="#DejaVuSans-31" transform="translate(63.623047 0)"/>
       <use xlink:href="#DejaVuSans-30" transform="translate(127.246094 0)"/>
       <use xlink:href="#DejaVuSans-30" transform="translate(190.869141 0)"/>
      </g>
     </g>
    </g>
    <g id="xtick_6">
     <g id="line2d_41">
      <g>
       <use xlink:href="#m603790eb23" x="351.825257" y="312.24351" style="stroke: #000000; stroke-width: 0.8"/>
      </g>
     </g>
     <g id="text_17">
      <!-- 1200 -->
      <g transform="translate(339.100257 326.841947) scale(0.1 -0.1)">
       <use xlink:href="#DejaVuSans-31"/>
       <use xlink:href="#DejaVuSans-32" transform="translate(63.623047 0)"/>
       <use xlink:href="#DejaVuSans-30" transform="translate(127.246094 0)"/>
       <use xlink:href="#DejaVuSans-30" transform="translate(190.869141 0)"/>
      </g>
     </g>
    </g>
    <g id="xtick_7">
     <g id="line2d_42">
      <defs>
       <path id="m544ddf680a" d="M 0 0 
L 0 2 
" style="stroke: #000000; stroke-width: 0.6"/>
      </defs>
      <g>
       <use xlink:href="#m544ddf680a" x="44.085241" y="312.24351" style="stroke: #000000; stroke-width: 0.6"/>
      </g>
     </g>
    </g>
    <g id="xtick_8">
     <g id="line2d_43">
      <g>
       <use xlink:href="#m544ddf680a" x="56.907741" y="312.24351" style="stroke: #000000; stroke-width: 0.6"/>
      </g>
     </g>
    </g>
    <g id="xtick_9">
     <g id="line2d_44">
      <g>
       <use xlink:href="#m544ddf680a" x="69.730242" y="312.24351" style="stroke: #000000; stroke-width: 0.6"/>
      </g>
     </g>
    </g>
    <g id="xtick_10">
     <g id="line2d_45">
      <g>
       <use xlink:href="#m544ddf680a" x="82.552743" y="312.24351" style="stroke: #000000; stroke-width: 0.6"/>
      </g>
     </g>
    </g>
    <g id="xtick_11">
     <g id="line2d_46">
      <g>
       <use xlink:href="#m544ddf680a" x="108.197744" y="312.24351" style="stroke: #000000; stroke-width: 0.6"/>
      </g>
     </g>
    </g>
    <g id="xtick_12">
     <g id="line2d_47">
      <g>
       <use xlink:href="#m544ddf680a" x="121.020245" y="312.24351" style="stroke: #000000; stroke-width: 0.6"/>
      </g>
     </g>
    </g>
    <g id="xtick_13">
     <g id="line2d_48">
      <g>
       <use xlink:href="#m544ddf680a" x="133.842745" y="312.24351" style="stroke: #000000; stroke-width: 0.6"/>
      </g>
     </g>
    </g>
    <g id="xtick_14">
     <g id="line2d_49">
      <g>
       <use xlink:href="#m544ddf680a" x="146.665246" y="312.24351" style="stroke: #000000; stroke-width: 0.6"/>
      </g>
     </g>
    </g>
    <g id="xtick_15">
     <g id="line2d_50">
      <g>
       <use xlink:href="#m544ddf680a" x="172.310247" y="312.24351" style="stroke: #000000; stroke-width: 0.6"/>
      </g>
     </g>
    </g>
    <g id="xtick_16">
     <g id="line2d_51">
      <g>
       <use xlink:href="#m544ddf680a" x="185.132748" y="312.24351" style="stroke: #000000; stroke-width: 0.6"/>
      </g>
     </g>
    </g>
    <g id="xtick_17">
     <g id="line2d_52">
      <g>
       <use xlink:href="#m544ddf680a" x="197.955249" y="312.24351" style="stroke: #000000; stroke-width: 0.6"/>
      </g>
     </g>
    </g>
    <g id="xtick_18">
     <g id="line2d_53">
      <g>
       <use xlink:href="#m544ddf680a" x="210.777749" y="312.24351" style="stroke: #000000; stroke-width: 0.6"/>
      </g>
     </g>
    </g>
    <g id="xtick_19">
     <g id="line2d_54">
      <g>
       <use xlink:href="#m544ddf680a" x="236.422751" y="312.24351" style="stroke: #000000; stroke-width: 0.6"/>
      </g>
     </g>
    </g>
    <g id="xtick_20">
     <g id="line2d_55">
      <g>
       <use xlink:href="#m544ddf680a" x="249.245251" y="312.24351" style="stroke: #000000; stroke-width: 0.6"/>
      </g>
     </g>
    </g>
    <g id="xtick_21">
     <g id="line2d_56">
      <g>
       <use xlink:href="#m544ddf680a" x="262.067752" y="312.24351" style="stroke: #000000; stroke-width: 0.6"/>
      </g>
     </g>
    </g>
    <g id="xtick_22">
     <g id="line2d_57">
      <g>
       <use xlink:href="#m544ddf680a" x="274.890253" y="312.24351" style="stroke: #000000; stroke-width: 0.6"/>
      </g>
     </g>
    </g>
    <g id="xtick_23">
     <g id="line2d_58">
      <g>
       <use xlink:href="#m544ddf680a" x="300.535254" y="312.24351" style="stroke: #000000; stroke-width: 0.6"/>
      </g>
     </g>
    </g>
    <g id="xtick_24">
     <g id="line2d_59">
      <g>
       <use xlink:href="#m544ddf680a" x="313.357755" y="312.24351" style="stroke: #000000; stroke-width: 0.6"/>
      </g>
     </g>
    </g>
    <g id="xtick_25">
     <g id="line2d_60">
      <g>
       <use xlink:href="#m544ddf680a" x="326.180255" y="312.24351" style="stroke: #000000; stroke-width: 0.6"/>
      </g>
     </g>
    </g>
    <g id="xtick_26">
     <g id="line2d_61">
      <g>
       <use xlink:href="#m544ddf680a" x="339.002756" y="312.24351" style="stroke: #000000; stroke-width: 0.6"/>
      </g>
     </g>
    </g>
    <g id="xtick_27">
     <g id="line2d_62">
      <g>
       <use xlink:href="#m544ddf680a" x="364.647757" y="312.24351" style="stroke: #000000; stroke-width: 0.6"/>
      </g>
     </g>
    </g>
    <g id="xtick_28">
     <g id="line2d_63">
      <g>
       <use xlink:href="#m544ddf680a" x="377.470258" y="312.24351" style="stroke: #000000; stroke-width: 0.6"/>
      </g>
     </g>
    </g>
    <g id="xtick_29">
     <g id="line2d_64">
      <g>
       <use xlink:href="#m544ddf680a" x="390.292759" y="312.24351" style="stroke: #000000; stroke-width: 0.6"/>
      </g>
     </g>
    </g>
    <g id="xtick_30">
     <g id="line2d_65">
      <g>
       <use xlink:href="#m544ddf680a" x="403.115259" y="312.24351" style="stroke: #000000; stroke-width: 0.6"/>
      </g>
     </g>
    </g>
    <g id="text_18">
     <!-- T[K] -->
     <g transform="translate(213.045312 340.520072) scale(0.1 -0.1)">
      <defs>
       <path id="DejaVuSans-54" d="M -19 4666 
L 3928 4666 
L 3928 4134 
L 2272 4134 
L 2272 0 
L 1638 0 
L 1638 4134 
L -19 4134 
L -19 4666 
z
" transform="scale(0.015625)"/>
       <path id="DejaVuSans-5b" d="M 550 4863 
L 1875 4863 
L 1875 4416 
L 1125 4416 
L 1125 -397 
L 1875 -397 
L 1875 -844 
L 550 -844 
L 550 4863 
z
" transform="scale(0.015625)"/>
       <path id="DejaVuSans-4b" d="M 628 4666 
L 1259 4666 
L 1259 2694 
L 3353 4666 
L 4166 4666 
L 1850 2491 
L 4331 0 
L 3500 0 
L 1259 2247 
L 1259 0 
L 628 0 
L 628 4666 
z
" transform="scale(0.015625)"/>
       <path id="DejaVuSans-5d" d="M 1947 4863 
L 1947 -844 
L 622 -844 
L 622 -397 
L 1369 -397 
L 1369 4416 
L 622 4416 
L 622 4863 
L 1947 4863 
z
" transform="scale(0.015625)"/>
      </defs>
      <use xlink:href="#DejaVuSans-54"/>
      <use xlink:href="#DejaVuSans-5b" transform="translate(61.083984 0)"/>
      <use xlink:href="#DejaVuSans-4b" transform="translate(100.097656 0)"/>
      <use xlink:href="#DejaVuSans-5d" transform="translate(165.673828 0)"/>
     </g>
    </g>
   </g>
   <g id="matplotlib.axis_4">
    <g id="ytick_36">
     <g id="line2d_66">
      <defs>
       <path id="mfa370941a9" d="M 0 0 
L -3.5 0 
" style="stroke: #000000; stroke-width: 0.8"/>
      </defs>
      <g>
       <use xlink:href="#mfa370941a9" x="31.26274" y="312.24351" style="stroke: #000000; stroke-width: 0.8"/>
      </g>
     </g>
     <g id="text_19">
      <!-- 0 -->
      <g transform="translate(17.90024 316.042729) scale(0.1 -0.1)">
       <use xlink:href="#DejaVuSans-30"/>
      </g>
     </g>
    </g>
    <g id="ytick_37">
     <g id="line2d_67">
      <g>
       <use xlink:href="#mfa370941a9" x="31.26274" y="268.883629" style="stroke: #000000; stroke-width: 0.8"/>
      </g>
     </g>
     <g id="text_20">
      <!-- 1 -->
      <g transform="translate(17.90024 272.682848) scale(0.1 -0.1)">
       <use xlink:href="#DejaVuSans-31"/>
      </g>
     </g>
    </g>
    <g id="ytick_38">
     <g id="line2d_68">
      <g>
       <use xlink:href="#mfa370941a9" x="31.26274" y="225.523748" style="stroke: #000000; stroke-width: 0.8"/>
      </g>
     </g>
     <g id="text_21">
      <!-- 2 -->
      <g transform="translate(17.90024 229.322967) scale(0.1 -0.1)">
       <use xlink:href="#DejaVuSans-32"/>
      </g>
     </g>
    </g>
    <g id="ytick_39">
     <g id="line2d_69">
      <g>
       <use xlink:href="#mfa370941a9" x="31.26274" y="182.163867" style="stroke: #000000; stroke-width: 0.8"/>
      </g>
     </g>
     <g id="text_22">
      <!-- 3 -->
      <g transform="translate(17.90024 185.963086) scale(0.1 -0.1)">
       <defs>
        <path id="DejaVuSans-33" d="M 2597 2516 
Q 3050 2419 3304 2112 
Q 3559 1806 3559 1356 
Q 3559 666 3084 287 
Q 2609 -91 1734 -91 
Q 1441 -91 1130 -33 
Q 819 25 488 141 
L 488 750 
Q 750 597 1062 519 
Q 1375 441 1716 441 
Q 2309 441 2620 675 
Q 2931 909 2931 1356 
Q 2931 1769 2642 2001 
Q 2353 2234 1838 2234 
L 1294 2234 
L 1294 2753 
L 1863 2753 
Q 2328 2753 2575 2939 
Q 2822 3125 2822 3475 
Q 2822 3834 2567 4026 
Q 2313 4219 1838 4219 
Q 1578 4219 1281 4162 
Q 984 4106 628 3988 
L 628 4550 
Q 988 4650 1302 4700 
Q 1616 4750 1894 4750 
Q 2613 4750 3031 4423 
Q 3450 4097 3450 3541 
Q 3450 3153 3228 2886 
Q 3006 2619 2597 2516 
z
" transform="scale(0.015625)"/>
       </defs>
       <use xlink:href="#DejaVuSans-33"/>
      </g>
     </g>
    </g>
    <g id="ytick_40">
     <g id="line2d_70">
      <g>
       <use xlink:href="#mfa370941a9" x="31.26274" y="138.803986" style="stroke: #000000; stroke-width: 0.8"/>
      </g>
     </g>
     <g id="text_23">
      <!-- 4 -->
      <g transform="translate(17.90024 142.603205) scale(0.1 -0.1)">
       <use xlink:href="#DejaVuSans-34"/>
      </g>
     </g>
    </g>
    <g id="ytick_41">
     <g id="line2d_71">
      <g>
       <use xlink:href="#mfa370941a9" x="31.26274" y="95.444105" style="stroke: #000000; stroke-width: 0.8"/>
      </g>
     </g>
     <g id="text_24">
      <!-- 5 -->
      <g transform="translate(17.90024 99.243324) scale(0.1 -0.1)">
       <defs>
        <path id="DejaVuSans-35" d="M 691 4666 
L 3169 4666 
L 3169 4134 
L 1269 4134 
L 1269 2991 
Q 1406 3038 1543 3061 
Q 1681 3084 1819 3084 
Q 2600 3084 3056 2656 
Q 3513 2228 3513 1497 
Q 3513 744 3044 326 
Q 2575 -91 1722 -91 
Q 1428 -91 1123 -41 
Q 819 9 494 109 
L 494 744 
Q 775 591 1075 516 
Q 1375 441 1709 441 
Q 2250 441 2565 725 
Q 2881 1009 2881 1497 
Q 2881 1984 2565 2268 
Q 2250 2553 1709 2553 
Q 1456 2553 1204 2497 
Q 953 2441 691 2322 
L 691 4666 
z
" transform="scale(0.015625)"/>
       </defs>
       <use xlink:href="#DejaVuSans-35"/>
      </g>
     </g>
    </g>
    <g id="ytick_42">
     <g id="line2d_72">
      <g>
       <use xlink:href="#mfa370941a9" x="31.26274" y="52.084224" style="stroke: #000000; stroke-width: 0.8"/>
      </g>
     </g>
     <g id="text_25">
      <!-- 6 -->
      <g transform="translate(17.90024 55.883443) scale(0.1 -0.1)">
       <use xlink:href="#DejaVuSans-36"/>
      </g>
     </g>
    </g>
    <g id="ytick_43">
     <g id="line2d_73">
      <defs>
       <path id="mdac726024a" d="M 0 0 
L -2 0 
" style="stroke: #000000; stroke-width: 0.6"/>
      </defs>
      <g>
       <use xlink:href="#mdac726024a" x="31.26274" y="303.571534" style="stroke: #000000; stroke-width: 0.6"/>
      </g>
     </g>
    </g>
    <g id="ytick_44">
     <g id="line2d_74">
      <g>
       <use xlink:href="#mdac726024a" x="31.26274" y="294.899558" style="stroke: #000000; stroke-width: 0.6"/>
      </g>
     </g>
    </g>
    <g id="ytick_45">
     <g id="line2d_75">
      <g>
       <use xlink:href="#mdac726024a" x="31.26274" y="286.227581" style="stroke: #000000; stroke-width: 0.6"/>
      </g>
     </g>
    </g>
    <g id="ytick_46">
     <g id="line2d_76">
      <g>
       <use xlink:href="#mdac726024a" x="31.26274" y="277.555605" style="stroke: #000000; stroke-width: 0.6"/>
      </g>
     </g>
    </g>
    <g id="ytick_47">
     <g id="line2d_77">
      <g>
       <use xlink:href="#mdac726024a" x="31.26274" y="260.211653" style="stroke: #000000; stroke-width: 0.6"/>
      </g>
     </g>
    </g>
    <g id="ytick_48">
     <g id="line2d_78">
      <g>
       <use xlink:href="#mdac726024a" x="31.26274" y="251.539677" style="stroke: #000000; stroke-width: 0.6"/>
      </g>
     </g>
    </g>
    <g id="ytick_49">
     <g id="line2d_79">
      <g>
       <use xlink:href="#mdac726024a" x="31.26274" y="242.8677" style="stroke: #000000; stroke-width: 0.6"/>
      </g>
     </g>
    </g>
    <g id="ytick_50">
     <g id="line2d_80">
      <g>
       <use xlink:href="#mdac726024a" x="31.26274" y="234.195724" style="stroke: #000000; stroke-width: 0.6"/>
      </g>
     </g>
    </g>
    <g id="ytick_51">
     <g id="line2d_81">
      <g>
       <use xlink:href="#mdac726024a" x="31.26274" y="216.851772" style="stroke: #000000; stroke-width: 0.6"/>
      </g>
     </g>
    </g>
    <g id="ytick_52">
     <g id="line2d_82">
      <g>
       <use xlink:href="#mdac726024a" x="31.26274" y="208.179796" style="stroke: #000000; stroke-width: 0.6"/>
      </g>
     </g>
    </g>
    <g id="ytick_53">
     <g id="line2d_83">
      <g>
       <use xlink:href="#mdac726024a" x="31.26274" y="199.507819" style="stroke: #000000; stroke-width: 0.6"/>
      </g>
     </g>
    </g>
    <g id="ytick_54">
     <g id="line2d_84">
      <g>
       <use xlink:href="#mdac726024a" x="31.26274" y="190.835843" style="stroke: #000000; stroke-width: 0.6"/>
      </g>
     </g>
    </g>
    <g id="ytick_55">
     <g id="line2d_85">
      <g>
       <use xlink:href="#mdac726024a" x="31.26274" y="173.491891" style="stroke: #000000; stroke-width: 0.6"/>
      </g>
     </g>
    </g>
    <g id="ytick_56">
     <g id="line2d_86">
      <g>
       <use xlink:href="#mdac726024a" x="31.26274" y="164.819915" style="stroke: #000000; stroke-width: 0.6"/>
      </g>
     </g>
    </g>
    <g id="ytick_57">
     <g id="line2d_87">
      <g>
       <use xlink:href="#mdac726024a" x="31.26274" y="156.147938" style="stroke: #000000; stroke-width: 0.6"/>
      </g>
     </g>
    </g>
    <g id="ytick_58">
     <g id="line2d_88">
      <g>
       <use xlink:href="#mdac726024a" x="31.26274" y="147.475962" style="stroke: #000000; stroke-width: 0.6"/>
      </g>
     </g>
    </g>
    <g id="ytick_59">
     <g id="line2d_89">
      <g>
       <use xlink:href="#mdac726024a" x="31.26274" y="130.13201" style="stroke: #000000; stroke-width: 0.6"/>
      </g>
     </g>
    </g>
    <g id="ytick_60">
     <g id="line2d_90">
      <g>
       <use xlink:href="#mdac726024a" x="31.26274" y="121.460034" style="stroke: #000000; stroke-width: 0.6"/>
      </g>
     </g>
    </g>
    <g id="ytick_61">
     <g id="line2d_91">
      <g>
       <use xlink:href="#mdac726024a" x="31.26274" y="112.788057" style="stroke: #000000; stroke-width: 0.6"/>
      </g>
     </g>
    </g>
    <g id="ytick_62">
     <g id="line2d_92">
      <g>
       <use xlink:href="#mdac726024a" x="31.26274" y="104.116081" style="stroke: #000000; stroke-width: 0.6"/>
      </g>
     </g>
    </g>
    <g id="ytick_63">
     <g id="line2d_93">
      <g>
       <use xlink:href="#mdac726024a" x="31.26274" y="86.772129" style="stroke: #000000; stroke-width: 0.6"/>
      </g>
     </g>
    </g>
    <g id="ytick_64">
     <g id="line2d_94">
      <g>
       <use xlink:href="#mdac726024a" x="31.26274" y="78.100153" style="stroke: #000000; stroke-width: 0.6"/>
      </g>
     </g>
    </g>
    <g id="ytick_65">
     <g id="line2d_95">
      <g>
       <use xlink:href="#mdac726024a" x="31.26274" y="69.428176" style="stroke: #000000; stroke-width: 0.6"/>
      </g>
     </g>
    </g>
    <g id="ytick_66">
     <g id="line2d_96">
      <g>
       <use xlink:href="#mdac726024a" x="31.26274" y="60.7562" style="stroke: #000000; stroke-width: 0.6"/>
      </g>
     </g>
    </g>
    <g id="ytick_67">
     <g id="line2d_97">
      <g>
       <use xlink:href="#mdac726024a" x="31.26274" y="43.412248" style="stroke: #000000; stroke-width: 0.6"/>
      </g>
     </g>
    </g>
    <g id="ytick_68">
     <g id="line2d_98">
      <g>
       <use xlink:href="#mdac726024a" x="31.26274" y="34.740272" style="stroke: #000000; stroke-width: 0.6"/>
      </g>
     </g>
    </g>
    <g id="ytick_69">
     <g id="line2d_99">
      <g>
       <use xlink:href="#mdac726024a" x="31.26274" y="26.068295" style="stroke: #000000; stroke-width: 0.6"/>
      </g>
     </g>
    </g>
    <g id="ytick_70">
     <g id="line2d_100">
      <g>
       <use xlink:href="#mdac726024a" x="31.26274" y="17.396319" style="stroke: #000000; stroke-width: 0.6"/>
      </g>
     </g>
    </g>
    <g id="text_26">
     <!-- $[V'''_{La}]_{eq}=x_{eq}$ -->
     <g transform="translate(10.80024 196.071094) rotate(-90) scale(0.1 -0.1)">
      <defs>
       <path id="DejaVuSans-Oblique-56" d="M 1319 0 
L 500 4666 
L 1119 4666 
L 1797 653 
L 4063 4666 
L 4750 4666 
L 2053 0 
L 1319 0 
z
" transform="scale(0.015625)"/>
       <path id="Cmsy10-30" d="M 225 347 
Q 184 359 184 409 
L 966 3316 
Q 1003 3434 1093 3506 
Q 1184 3578 1300 3578 
Q 1450 3578 1564 3479 
Q 1678 3381 1678 3231 
Q 1678 3166 1644 3084 
L 488 319 
Q 466 275 428 275 
Q 394 275 320 306 
Q 247 338 225 347 
z
" transform="scale(0.015625)"/>
       <path id="DejaVuSans-Oblique-4c" d="M 1075 4666 
L 1709 4666 
L 909 525 
L 3181 525 
L 3078 0 
L 172 0 
L 1075 4666 
z
" transform="scale(0.015625)"/>
       <path id="DejaVuSans-Oblique-61" d="M 3438 1997 
L 3047 0 
L 2472 0 
L 2578 531 
Q 2325 219 2001 64 
Q 1678 -91 1281 -91 
Q 834 -91 548 182 
Q 263 456 263 884 
Q 263 1497 752 1853 
Q 1241 2209 2100 2209 
L 2900 2209 
L 2931 2363 
Q 2938 2388 2941 2417 
Q 2944 2447 2944 2509 
Q 2944 2788 2717 2942 
Q 2491 3097 2081 3097 
Q 1800 3097 1504 3025 
Q 1209 2953 897 2809 
L 997 3341 
Q 1322 3463 1633 3523 
Q 1944 3584 2234 3584 
Q 2853 3584 3176 3315 
Q 3500 3047 3500 2534 
Q 3500 2431 3484 2292 
Q 3469 2153 3438 1997 
z
M 2816 1759 
L 2241 1759 
Q 1534 1759 1195 1570 
Q 856 1381 856 984 
Q 856 709 1029 553 
Q 1203 397 1509 397 
Q 1978 397 2328 733 
Q 2678 1069 2791 1631 
L 2816 1759 
z
" transform="scale(0.015625)"/>
       <path id="DejaVuSans-3d" d="M 678 2906 
L 4684 2906 
L 4684 2381 
L 678 2381 
L 678 2906 
z
M 678 1631 
L 4684 1631 
L 4684 1100 
L 678 1100 
L 678 1631 
z
" transform="scale(0.015625)"/>
      </defs>
      <use xlink:href="#DejaVuSans-5b" transform="translate(0 0.584375)"/>
      <use xlink:href="#DejaVuSans-Oblique-56" transform="translate(39.013672 0.584375)"/>
      <use xlink:href="#Cmsy10-30" transform="translate(114.438646 38.865625) scale(0.7)"/>
      <use xlink:href="#Cmsy10-30" transform="translate(133.68181 38.865625) scale(0.7)"/>
      <use xlink:href="#Cmsy10-30" transform="translate(152.924974 38.865625) scale(0.7)"/>
      <use xlink:href="#DejaVuSans-Oblique-4c" transform="translate(175.859544 -15.821875) scale(0.7)"/>
      <use xlink:href="#DejaVuSans-Oblique-61" transform="translate(214.858568 -15.821875) scale(0.7)"/>
      <use xlink:href="#DejaVuSans-5d" transform="translate(260.488451 0.584375)"/>
      <use xlink:href="#DejaVuSans-Oblique-65" transform="translate(300.459154 -15.821875) scale(0.7)"/>
      <use xlink:href="#DejaVuSans-Oblique-71" transform="translate(343.52556 -15.821875) scale(0.7)"/>
      <use xlink:href="#DejaVuSans-3d" transform="translate(410.175951 0.584375)"/>
      <use xlink:href="#DejaVuSans-Oblique-78" transform="translate(513.447435 0.584375)"/>
      <use xlink:href="#DejaVuSans-Oblique-65" transform="translate(572.627122 -15.821875) scale(0.7)"/>
      <use xlink:href="#DejaVuSans-Oblique-71" transform="translate(615.693529 -15.821875) scale(0.7)"/>
     </g>
    </g>
    <g id="text_27">
     <!-- 1e−9 -->
     <g transform="translate(31.26274 10.598678) scale(0.1 -0.1)">
      <use xlink:href="#DejaVuSans-31"/>
      <use xlink:href="#DejaVuSans-65" transform="translate(63.623047 0)"/>
      <use xlink:href="#DejaVuSans-2212" transform="translate(125.146484 0)"/>
      <use xlink:href="#DejaVuSans-39" transform="translate(208.935547 0)"/>
     </g>
    </g>
   </g>
   <g id="line2d_101">
    <path d="M 31.26274 309.995395 
L 49.855366 309.082396 
L 67.165742 308.012914 
L 83.834993 306.759106 
L 99.863119 305.326734 
L 115.250119 303.726722 
L 129.995995 301.974293 
L 144.741871 299.997353 
L 158.846622 297.888627 
L 172.951372 295.561095 
L 187.056123 293.010388 
L 201.160874 290.233552 
L 215.265625 287.22903 
L 229.370375 283.996588 
L 243.475126 280.537266 
L 257.579877 276.853292 
L 272.325753 272.765303 
L 287.071628 268.440427 
L 301.817504 263.884771 
L 317.204505 258.892642 
L 332.591506 253.665963 
L 348.619631 247.982778 
L 365.288882 241.826646 
L 381.958133 235.43425 
L 399.268509 228.561997 
L 414.65551 222.266993 
L 414.65551 222.266993 
" clip-path="url(#p9d8bc98099)" style="fill: none; stroke: #1f77b4; stroke-width: 1.5; stroke-linecap: square"/>
   </g>
   <g id="line2d_102">
    <path d="M 31.26274 309.064195 
L 46.649741 308.019082 
L 61.395617 306.800279 
L 75.500367 305.41475 
L 88.963993 303.874605 
L 102.427619 302.106776 
L 115.250119 300.198951 
L 128.07262 298.061628 
L 140.253996 295.810088 
L 152.435371 293.336096 
L 164.616747 290.633862 
L 176.798123 287.69873 
L 188.979498 284.527161 
L 201.160874 281.116732 
L 213.342249 277.466101 
L 225.523625 273.574981 
L 237.705001 269.444088 
L 249.886376 265.075097 
L 262.067752 260.470579 
L 274.249128 255.633943 
L 287.071628 250.296599 
L 299.894129 244.712442 
L 312.71663 238.887997 
L 326.180255 232.521639 
L 339.643881 225.907453 
L 353.748632 218.723143 
L 367.853382 211.289451 
L 382.599258 203.264727 
L 397.986259 194.630933 
L 414.014385 185.373148 
L 414.65551 184.997502 
L 414.65551 184.997502 
" clip-path="url(#p9d8bc98099)" style="fill: none; stroke: #ff7f0e; stroke-width: 1.5; stroke-linecap: square"/>
   </g>
   <g id="line2d_103">
    <path d="M 31.26274 308.349659 
L 45.367491 307.186738 
L 58.831116 305.856482 
L 71.653617 304.370259 
L 83.834993 302.744245 
L 96.016368 300.895493 
L 107.556619 298.926889 
L 119.09687 296.736759 
L 130.63712 294.316027 
L 141.536246 291.810778 
L 152.435371 289.086751 
L 163.334497 286.138923 
L 174.233622 282.963155 
L 185.132748 279.556186 
L 196.031874 275.915638 
L 206.930999 272.039986 
L 217.830125 267.928545 
L 228.72925 263.581445 
L 239.628376 258.999581 
L 250.527501 254.18459 
L 262.067752 248.834878 
L 273.608003 243.230015 
L 285.148253 237.374336 
L 296.688504 231.272891 
L 308.869879 224.572147 
L 321.051255 217.61132 
L 333.232631 210.398455 
L 346.055131 202.543157 
L 358.877632 194.428793 
L 372.341258 185.642099 
L 385.804883 176.595515 
L 399.909634 166.854476 
L 414.65551 156.399617 
L 414.65551 156.399617 
" clip-path="url(#p9d8bc98099)" style="fill: none; stroke: #2ca02c; stroke-width: 1.5; stroke-linecap: square"/>
   </g>
   <g id="line2d_104">
    <path d="M 31.26274 307.747278 
L 44.726366 306.471201 
L 57.548866 305.026078 
L 69.730242 303.426249 
L 81.270493 301.690832 
L 92.810743 299.727517 
L 103.709869 297.652387 
L 114.608994 295.352426 
L 125.50812 292.818454 
L 135.76612 290.21237 
L 146.024121 287.38559 
L 156.282121 284.332804 
L 166.540122 281.049492 
L 176.798123 277.53195 
L 187.056123 273.777264 
L 197.314124 269.783315 
L 207.572124 265.548754 
L 217.830125 261.072996 
L 228.088125 256.356185 
L 238.346126 251.399162 
L 248.604126 246.20345 
L 259.503252 240.423887 
L 270.402377 234.380632 
L 281.301503 228.07772 
L 292.200629 221.519865 
L 303.099754 214.71238 
L 314.640005 207.238907 
L 326.180255 199.499762 
L 338.361631 191.051462 
L 350.543007 182.326455 
L 362.724382 173.335472 
L 375.546883 163.596258 
L 389.010509 153.08105 
L 402.474134 142.285596 
L 414.65551 132.290484 
L 414.65551 132.290484 
" clip-path="url(#p9d8bc98099)" style="fill: none; stroke: #d62728; stroke-width: 1.5; stroke-linecap: square"/>
   </g>
   <g id="line2d_105">
    <path d="M 31.26274 307.216567 
L 44.085241 305.86387 
L 56.266616 304.347713 
L 67.806867 302.685184 
L 78.705992 300.897914 
L 89.605118 298.88635 
L 99.863119 296.777131 
L 110.121119 294.448652 
L 120.37912 291.892046 
L 130.63712 289.09923 
L 140.895121 286.062964 
L 150.511996 282.989682 
L 160.128872 279.692266 
L 169.745747 276.166864 
L 179.362623 272.410304 
L 188.979498 268.420117 
L 198.596374 264.194502 
L 208.213249 259.732336 
L 217.830125 255.033137 
L 227.447 250.097059 
L 237.063876 244.924864 
L 247.321876 239.149119 
L 257.579877 233.10858 
L 267.837877 226.806243 
L 278.095878 220.245745 
L 288.353878 213.431312 
L 299.253004 205.918097 
L 310.152129 198.129973 
L 321.051255 190.073881 
L 332.591506 181.260139 
L 344.131756 172.163806 
L 356.313132 162.266561 
L 368.494508 152.07782 
L 381.317008 141.051921 
L 394.139509 129.732451 
L 407.603135 117.548214 
L 414.65551 111.049914 
L 414.65551 111.049914 
" clip-path="url(#p9d8bc98099)" style="fill: none; stroke: #9467bd; stroke-width: 1.5; stroke-linecap: square"/>
   </g>
   <g id="line2d_106">
    <path d="M 31.26274 306.736773 
L 43.444116 305.33534 
L 54.984366 303.78122 
L 65.883492 302.093958 
L 76.782617 300.177993 
L 87.040618 298.152796 
L 97.298618 295.900691 
L 107.556619 293.410965 
L 117.173494 290.852189 
L 126.79037 288.068335 
L 136.407245 285.052597 
L 146.024121 281.798901 
L 155.640996 278.301914 
L 165.257872 274.557056 
L 174.874747 270.560504 
L 184.491623 266.309195 
L 194.108498 261.800817 
L 203.725374 257.033792 
L 213.342249 252.007272 
L 222.959125 246.7211 
L 232.576 241.175804 
L 242.192876 235.372559 
L 251.809751 229.31316 
L 261.426627 222.999998 
L 271.684627 215.989578 
L 281.942628 208.698025 
L 292.200629 201.130192 
L 302.458629 193.291535 
L 313.357755 184.672917 
L 324.25688 175.76311 
L 335.156006 166.570452 
L 346.696256 156.53859 
L 358.236507 146.210576 
L 370.417883 135.000215 
L 382.599258 123.486725 
L 395.421759 111.055649 
L 408.885385 97.677573 
L 414.65551 91.846969 
L 414.65551 91.846969 
" clip-path="url(#p9d8bc98099)" style="fill: none; stroke: #8c564b; stroke-width: 1.5; stroke-linecap: square"/>
   </g>
   <g id="line2d_107">
    <path d="M 31.26274 306.295553 
L 42.802991 304.867913 
L 53.702116 303.30211 
L 64.601242 301.507658 
L 74.859242 299.595119 
L 85.117243 297.452254 
L 94.734118 295.22301 
L 104.350994 292.770653 
L 113.967869 290.086136 
L 123.584745 287.16112 
L 132.560495 284.207408 
L 141.536246 281.031994 
L 150.511996 277.629913 
L 159.487747 273.996811 
L 168.463497 270.128949 
L 177.439248 266.023221 
L 186.414998 261.677136 
L 195.390749 257.088813 
L 204.366499 252.256975 
L 213.342249 247.180937 
L 222.318 241.860584 
L 231.29375 236.296362 
L 240.910626 230.06519 
L 250.527501 223.557046 
L 260.144377 216.774426 
L 269.761252 209.720432 
L 279.378128 202.39874 
L 289.636128 194.298622 
L 299.894129 185.904454 
L 310.152129 177.222552 
L 320.41013 168.259789 
L 331.309256 158.437348 
L 342.208381 148.315517 
L 353.748632 137.282935 
L 365.288882 125.938009 
L 377.470258 113.638004 
L 389.651634 101.019557 
L 402.474134 87.410326 
L 414.65551 74.18804 
L 414.65551 74.18804 
" clip-path="url(#p9d8bc98099)" style="fill: none; stroke: #e377c2; stroke-width: 1.5; stroke-linecap: square"/>
   </g>
   <g id="line2d_108">
    <path d="M 31.26274 305.884876 
L 42.161866 304.449905 
L 53.060991 302.789808 
L 63.318992 301.005358 
L 73.576992 298.990566 
L 83.193868 296.879902 
L 92.810743 294.543224 
L 102.427619 291.970043 
L 111.403369 289.346365 
L 120.37912 286.500717 
L 129.35487 283.4263 
L 138.330621 280.116929 
L 147.306371 276.567064 
L 156.282121 272.771809 
L 165.257872 268.72694 
L 174.233622 264.42889 
L 183.209373 259.874763 
L 192.185123 255.062317 
L 201.160874 249.989954 
L 210.136624 244.656721 
L 219.112375 239.062284 
L 228.088125 233.206898 
L 237.063876 227.09141 
L 246.039626 220.717219 
L 255.656502 213.602852 
L 265.273377 206.196748 
L 274.890253 198.502555 
L 284.507128 190.524511 
L 294.124004 182.267404 
L 304.382004 173.158218 
L 314.640005 163.744581 
L 324.898005 154.034064 
L 335.797131 143.4004 
L 346.696256 132.450957 
L 357.595382 121.196484 
L 369.135633 108.959941 
L 380.675883 96.407702 
L 392.857259 82.831219 
L 405.679759 68.195836 
L 414.65551 57.751509 
L 414.65551 57.751509 
" clip-path="url(#p9d8bc98099)" style="fill: none; stroke: #7f7f7f; stroke-width: 1.5; stroke-linecap: square"/>
   </g>
   <g id="line2d_109">
    <path d="M 31.26274 305.499162 
L 42.161866 303.977145 
L 52.419866 302.32688 
L 62.677867 300.44894 
L 72.294742 298.467646 
L 81.911618 296.260034 
L 91.528493 293.814236 
L 100.504244 291.306684 
L 109.479994 288.573301 
L 118.455745 285.606117 
L 127.431495 282.397776 
L 136.407245 278.94158 
L 145.382996 275.231496 
L 153.717621 271.554417 
L 162.052247 267.650088 
L 170.386872 263.515304 
L 178.721498 259.147374 
L 187.056123 254.544144 
L 195.390749 249.703961 
L 204.366499 244.225172 
L 213.342249 238.469486 
L 222.318 232.436774 
L 231.29375 226.127536 
L 240.269501 219.542885 
L 249.245251 212.684504 
L 258.221002 205.554636 
L 267.196752 198.156058 
L 276.813628 189.934539 
L 286.430503 181.412925 
L 296.047379 172.596402 
L 305.664254 163.490699 
L 315.922255 153.466214 
L 326.180255 143.12789 
L 336.438256 132.484356 
L 347.337381 120.851368 
L 358.236507 108.895528 
L 369.776758 95.897728 
L 381.317008 82.565898 
L 393.498384 68.147601 
L 405.679759 53.391864 
L 414.65551 42.313981 
L 414.65551 42.313981 
" clip-path="url(#p9d8bc98099)" style="fill: none; stroke: #bcbd22; stroke-width: 1.5; stroke-linecap: square"/>
   </g>
   <g id="line2d_110">
    <path d="M 31.26274 305.134341 
L 42.161866 303.529999 
L 52.419866 301.790465 
L 62.036742 299.942008 
L 71.653617 297.868989 
L 81.270493 295.558258 
L 90.246243 293.176033 
L 99.221994 290.566127 
L 108.197744 287.719425 
L 117.173494 284.627435 
L 125.50812 281.529799 
L 133.842745 278.208136 
L 142.177371 274.657216 
L 150.511996 270.872349 
L 158.846622 266.849385 
L 167.181247 262.584737 
L 175.515872 258.075355 
L 183.850498 253.318755 
L 192.185123 248.312991 
L 200.519749 243.05666 
L 208.854374 237.548884 
L 217.189 231.789301 
L 226.16475 225.305241 
L 235.140501 218.530122 
L 244.116251 211.465375 
L 253.092002 204.113042 
L 262.067752 196.475721 
L 271.043502 188.556568 
L 280.660378 179.763174 
L 290.277253 170.65557 
L 299.894129 161.239455 
L 309.511004 151.521077 
L 319.769005 140.829254 
L 330.027006 129.809965 
L 340.285006 118.472498 
L 351.184132 106.088737 
L 362.083257 93.369037 
L 373.623508 79.549056 
L 385.163758 65.382201 
L 397.345134 50.069585 
L 409.52651 34.407351 
L 414.65551 27.712807 
L 414.65551 27.712807 
" clip-path="url(#p9d8bc98099)" style="fill: none; stroke: #17becf; stroke-width: 1.5; stroke-linecap: square"/>
   </g>
   <g id="patch_5">
    <path d="M 31.26274 312.24351 
L 31.26274 13.598678 
" style="fill: none; stroke: #000000; stroke-width: 0.8; stroke-linejoin: miter; stroke-linecap: square"/>
   </g>
   <g id="patch_6">
    <path d="M 415.296635 312.24351 
L 415.296635 13.598678 
" style="fill: none; stroke: #000000; stroke-width: 0.8; stroke-linejoin: miter; stroke-linecap: square"/>
   </g>
   <g id="patch_7">
    <path d="M 31.26274 312.24351 
L 415.296635 312.24351 
" style="fill: none; stroke: #000000; stroke-width: 0.8; stroke-linejoin: miter; stroke-linecap: square"/>
   </g>
   <g id="patch_8">
    <path d="M 31.26274 13.598678 
L 415.296635 13.598678 
" style="fill: none; stroke: #000000; stroke-width: 0.8; stroke-linejoin: miter; stroke-linecap: square"/>
   </g>
   <g id="legend_1">
    <g id="patch_9">
     <path d="M 38.26274 175.583053 
L 116.06274 175.583053 
Q 118.06274 175.583053 118.06274 173.583053 
L 118.06274 20.598678 
Q 118.06274 18.598678 116.06274 18.598678 
L 38.26274 18.598678 
Q 36.26274 18.598678 36.26274 20.598678 
L 36.26274 173.583053 
Q 36.26274 175.583053 38.26274 175.583053 
L 38.26274 175.583053 
z
" style="fill: none; opacity: 0.8; stroke: #cccccc; stroke-linejoin: miter"/>
    </g>
    <g id="line2d_111">
     <path d="M 40.26274 26.697115 
L 50.26274 26.697115 
L 60.26274 26.697115 
" style="fill: none; stroke: #1f77b4; stroke-width: 1.5; stroke-linecap: square"/>
    </g>
    <g id="text_28">
     <!-- x$_{O_2}$ = 0.1 -->
     <g transform="translate(68.26274 30.197115) scale(0.1 -0.1)">
      <defs>
       <path id="DejaVuSans-78" d="M 3513 3500 
L 2247 1797 
L 3578 0 
L 2900 0 
L 1881 1375 
L 863 0 
L 184 0 
L 1544 1831 
L 300 3500 
L 978 3500 
L 1906 2253 
L 2834 3500 
L 3513 3500 
z
" transform="scale(0.015625)"/>
       <path id="DejaVuSans-Oblique-4f" d="M 2919 4238 
Q 2400 4238 2003 3986 
Q 1606 3734 1313 3219 
Q 1125 2891 1026 2522 
Q 928 2153 928 1778 
Q 928 1128 1239 775 
Q 1550 422 2119 422 
Q 2631 422 3032 676 
Q 3434 931 3719 1434 
Q 3909 1772 4009 2142 
Q 4109 2513 4109 2881 
Q 4109 3528 3796 3883 
Q 3484 4238 2919 4238 
z
M 2100 -91 
Q 1241 -91 748 418 
Q 256 928 256 1813 
Q 256 2319 448 2847 
Q 641 3375 978 3788 
Q 1375 4272 1862 4511 
Q 2350 4750 2938 4750 
Q 3794 4750 4287 4245 
Q 4781 3741 4781 2869 
Q 4781 2331 4593 1812 
Q 4406 1294 4056 872 
Q 3656 384 3173 146 
Q 2691 -91 2100 -91 
z
" transform="scale(0.015625)"/>
      </defs>
      <use xlink:href="#DejaVuSans-78" transform="translate(0 0.78125)"/>
      <use xlink:href="#DejaVuSans-Oblique-4f" transform="translate(60.136719 -15.625) scale(0.7)"/>
      <use xlink:href="#DejaVuSans-32" transform="translate(115.234375 -27.109375) scale(0.49)"/>
      <use xlink:href="#DejaVuSans-20" transform="translate(151.058105 0.78125)"/>
      <use xlink:href="#DejaVuSans-3d" transform="translate(182.845215 0.78125)"/>
      <use xlink:href="#DejaVuSans-20" transform="translate(266.634277 0.78125)"/>
      <use xlink:href="#DejaVuSans-30" transform="translate(298.421387 0.78125)"/>
      <use xlink:href="#DejaVuSans-2e" transform="translate(362.044434 0.78125)"/>
      <use xlink:href="#DejaVuSans-31" transform="translate(393.831543 0.78125)"/>
     </g>
    </g>
    <g id="line2d_112">
     <path d="M 40.26274 42.095552 
L 50.26274 42.095552 
L 60.26274 42.095552 
" style="fill: none; stroke: #ff7f0e; stroke-width: 1.5; stroke-linecap: square"/>
    </g>
    <g id="text_29">
     <!-- x$_{O_2}$ = 0.2 -->
     <g transform="translate(68.26274 45.595552) scale(0.1 -0.1)">
      <use xlink:href="#DejaVuSans-78" transform="translate(0 0.78125)"/>
      <use xlink:href="#DejaVuSans-Oblique-4f" transform="translate(60.136719 -15.625) scale(0.7)"/>
      <use xlink:href="#DejaVuSans-32" transform="translate(115.234375 -27.109375) scale(0.49)"/>
      <use xlink:href="#DejaVuSans-20" transform="translate(151.058105 0.78125)"/>
      <use xlink:href="#DejaVuSans-3d" transform="translate(182.845215 0.78125)"/>
      <use xlink:href="#DejaVuSans-20" transform="translate(266.634277 0.78125)"/>
      <use xlink:href="#DejaVuSans-30" transform="translate(298.421387 0.78125)"/>
      <use xlink:href="#DejaVuSans-2e" transform="translate(362.044434 0.78125)"/>
      <use xlink:href="#DejaVuSans-32" transform="translate(388.331543 0.78125)"/>
     </g>
    </g>
    <g id="line2d_113">
     <path d="M 40.26274 57.49399 
L 50.26274 57.49399 
L 60.26274 57.49399 
" style="fill: none; stroke: #2ca02c; stroke-width: 1.5; stroke-linecap: square"/>
    </g>
    <g id="text_30">
     <!-- x$_{O_2}$ = 0.3 -->
     <g transform="translate(68.26274 60.99399) scale(0.1 -0.1)">
      <use xlink:href="#DejaVuSans-78" transform="translate(0 0.78125)"/>
      <use xlink:href="#DejaVuSans-Oblique-4f" transform="translate(60.136719 -15.625) scale(0.7)"/>
      <use xlink:href="#DejaVuSans-32" transform="translate(115.234375 -27.109375) scale(0.49)"/>
      <use xlink:href="#DejaVuSans-20" transform="translate(151.058105 0.78125)"/>
      <use xlink:href="#DejaVuSans-3d" transform="translate(182.845215 0.78125)"/>
      <use xlink:href="#DejaVuSans-20" transform="translate(266.634277 0.78125)"/>
      <use xlink:href="#DejaVuSans-30" transform="translate(298.421387 0.78125)"/>
      <use xlink:href="#DejaVuSans-2e" transform="translate(362.044434 0.78125)"/>
      <use xlink:href="#DejaVuSans-33" transform="translate(393.831543 0.78125)"/>
     </g>
    </g>
    <g id="line2d_114">
     <path d="M 40.26274 72.892427 
L 50.26274 72.892427 
L 60.26274 72.892427 
" style="fill: none; stroke: #d62728; stroke-width: 1.5; stroke-linecap: square"/>
    </g>
    <g id="text_31">
     <!-- x$_{O_2}$ = 0.4 -->
     <g transform="translate(68.26274 76.392427) scale(0.1 -0.1)">
      <use xlink:href="#DejaVuSans-78" transform="translate(0 0.78125)"/>
      <use xlink:href="#DejaVuSans-Oblique-4f" transform="translate(60.136719 -15.625) scale(0.7)"/>
      <use xlink:href="#DejaVuSans-32" transform="translate(115.234375 -27.109375) scale(0.49)"/>
      <use xlink:href="#DejaVuSans-20" transform="translate(151.058105 0.78125)"/>
      <use xlink:href="#DejaVuSans-3d" transform="translate(182.845215 0.78125)"/>
      <use xlink:href="#DejaVuSans-20" transform="translate(266.634277 0.78125)"/>
      <use xlink:href="#DejaVuSans-30" transform="translate(298.421387 0.78125)"/>
      <use xlink:href="#DejaVuSans-2e" transform="translate(362.044434 0.78125)"/>
      <use xlink:href="#DejaVuSans-34" transform="translate(393.831543 0.78125)"/>
     </g>
    </g>
    <g id="line2d_115">
     <path d="M 40.26274 88.290865 
L 50.26274 88.290865 
L 60.26274 88.290865 
" style="fill: none; stroke: #9467bd; stroke-width: 1.5; stroke-linecap: square"/>
    </g>
    <g id="text_32">
     <!-- x$_{O_2}$ = 0.5 -->
     <g transform="translate(68.26274 91.790865) scale(0.1 -0.1)">
      <use xlink:href="#DejaVuSans-78" transform="translate(0 0.78125)"/>
      <use xlink:href="#DejaVuSans-Oblique-4f" transform="translate(60.136719 -15.625) scale(0.7)"/>
      <use xlink:href="#DejaVuSans-32" transform="translate(115.234375 -27.109375) scale(0.49)"/>
      <use xlink:href="#DejaVuSans-20" transform="translate(151.058105 0.78125)"/>
      <use xlink:href="#DejaVuSans-3d" transform="translate(182.845215 0.78125)"/>
      <use xlink:href="#DejaVuSans-20" transform="translate(266.634277 0.78125)"/>
      <use xlink:href="#DejaVuSans-30" transform="translate(298.421387 0.78125)"/>
      <use xlink:href="#DejaVuSans-2e" transform="translate(362.044434 0.78125)"/>
      <use xlink:href="#DejaVuSans-35" transform="translate(393.831543 0.78125)"/>
     </g>
    </g>
    <g id="line2d_116">
     <path d="M 40.26274 103.689303 
L 50.26274 103.689303 
L 60.26274 103.689303 
" style="fill: none; stroke: #8c564b; stroke-width: 1.5; stroke-linecap: square"/>
    </g>
    <g id="text_33">
     <!-- x$_{O_2}$ = 0.6 -->
     <g transform="translate(68.26274 107.189303) scale(0.1 -0.1)">
      <use xlink:href="#DejaVuSans-78" transform="translate(0 0.78125)"/>
      <use xlink:href="#DejaVuSans-Oblique-4f" transform="translate(60.136719 -15.625) scale(0.7)"/>
      <use xlink:href="#DejaVuSans-32" transform="translate(115.234375 -27.109375) scale(0.49)"/>
      <use xlink:href="#DejaVuSans-20" transform="translate(151.058105 0.78125)"/>
      <use xlink:href="#DejaVuSans-3d" transform="translate(182.845215 0.78125)"/>
      <use xlink:href="#DejaVuSans-20" transform="translate(266.634277 0.78125)"/>
      <use xlink:href="#DejaVuSans-30" transform="translate(298.421387 0.78125)"/>
      <use xlink:href="#DejaVuSans-2e" transform="translate(362.044434 0.78125)"/>
      <use xlink:href="#DejaVuSans-36" transform="translate(393.831543 0.78125)"/>
     </g>
    </g>
    <g id="line2d_117">
     <path d="M 40.26274 119.08774 
L 50.26274 119.08774 
L 60.26274 119.08774 
" style="fill: none; stroke: #e377c2; stroke-width: 1.5; stroke-linecap: square"/>
    </g>
    <g id="text_34">
     <!-- x$_{O_2}$ = 0.7 -->
     <g transform="translate(68.26274 122.58774) scale(0.1 -0.1)">
      <use xlink:href="#DejaVuSans-78" transform="translate(0 0.78125)"/>
      <use xlink:href="#DejaVuSans-Oblique-4f" transform="translate(60.136719 -15.625) scale(0.7)"/>
      <use xlink:href="#DejaVuSans-32" transform="translate(115.234375 -27.109375) scale(0.49)"/>
      <use xlink:href="#DejaVuSans-20" transform="translate(151.058105 0.78125)"/>
      <use xlink:href="#DejaVuSans-3d" transform="translate(182.845215 0.78125)"/>
      <use xlink:href="#DejaVuSans-20" transform="translate(266.634277 0.78125)"/>
      <use xlink:href="#DejaVuSans-30" transform="translate(298.421387 0.78125)"/>
      <use xlink:href="#DejaVuSans-2e" transform="translate(362.044434 0.78125)"/>
      <use xlink:href="#DejaVuSans-37" transform="translate(386.081543 0.78125)"/>
     </g>
    </g>
    <g id="line2d_118">
     <path d="M 40.26274 134.486178 
L 50.26274 134.486178 
L 60.26274 134.486178 
" style="fill: none; stroke: #7f7f7f; stroke-width: 1.5; stroke-linecap: square"/>
    </g>
    <g id="text_35">
     <!-- x$_{O_2}$ = 0.8 -->
     <g transform="translate(68.26274 137.986178) scale(0.1 -0.1)">
      <use xlink:href="#DejaVuSans-78" transform="translate(0 0.78125)"/>
      <use xlink:href="#DejaVuSans-Oblique-4f" transform="translate(60.136719 -15.625) scale(0.7)"/>
      <use xlink:href="#DejaVuSans-32" transform="translate(115.234375 -27.109375) scale(0.49)"/>
      <use xlink:href="#DejaVuSans-20" transform="translate(151.058105 0.78125)"/>
      <use xlink:href="#DejaVuSans-3d" transform="translate(182.845215 0.78125)"/>
      <use xlink:href="#DejaVuSans-20" transform="translate(266.634277 0.78125)"/>
      <use xlink:href="#DejaVuSans-30" transform="translate(298.421387 0.78125)"/>
      <use xlink:href="#DejaVuSans-2e" transform="translate(362.044434 0.78125)"/>
      <use xlink:href="#DejaVuSans-38" transform="translate(391.206543 0.78125)"/>
     </g>
    </g>
    <g id="line2d_119">
     <path d="M 40.26274 149.884615 
L 50.26274 149.884615 
L 60.26274 149.884615 
" style="fill: none; stroke: #bcbd22; stroke-width: 1.5; stroke-linecap: square"/>
    </g>
    <g id="text_36">
     <!-- x$_{O_2}$ = 0.9 -->
     <g transform="translate(68.26274 153.384615) scale(0.1 -0.1)">
      <use xlink:href="#DejaVuSans-78" transform="translate(0 0.78125)"/>
      <use xlink:href="#DejaVuSans-Oblique-4f" transform="translate(60.136719 -15.625) scale(0.7)"/>
      <use xlink:href="#DejaVuSans-32" transform="translate(115.234375 -27.109375) scale(0.49)"/>
      <use xlink:href="#DejaVuSans-20" transform="translate(151.058105 0.78125)"/>
      <use xlink:href="#DejaVuSans-3d" transform="translate(182.845215 0.78125)"/>
      <use xlink:href="#DejaVuSans-20" transform="translate(266.634277 0.78125)"/>
      <use xlink:href="#DejaVuSans-30" transform="translate(298.421387 0.78125)"/>
      <use xlink:href="#DejaVuSans-2e" transform="translate(362.044434 0.78125)"/>
      <use xlink:href="#DejaVuSans-39" transform="translate(393.831543 0.78125)"/>
     </g>
    </g>
    <g id="line2d_120">
     <path d="M 40.26274 165.283053 
L 50.26274 165.283053 
L 60.26274 165.283053 
" style="fill: none; stroke: #17becf; stroke-width: 1.5; stroke-linecap: square"/>
    </g>
    <g id="text_37">
     <!-- x$_{O_2}$ = 1.0 -->
     <g transform="translate(68.26274 168.783053) scale(0.1 -0.1)">
      <use xlink:href="#DejaVuSans-78" transform="translate(0 0.78125)"/>
      <use xlink:href="#DejaVuSans-Oblique-4f" transform="translate(60.136719 -15.625) scale(0.7)"/>
      <use xlink:href="#DejaVuSans-32" transform="translate(115.234375 -27.109375) scale(0.49)"/>
      <use xlink:href="#DejaVuSans-20" transform="translate(151.058105 0.78125)"/>
      <use xlink:href="#DejaVuSans-3d" transform="translate(182.845215 0.78125)"/>
      <use xlink:href="#DejaVuSans-20" transform="translate(266.634277 0.78125)"/>
      <use xlink:href="#DejaVuSans-31" transform="translate(298.421387 0.78125)"/>
      <use xlink:href="#DejaVuSans-2e" transform="translate(362.044434 0.78125)"/>
      <use xlink:href="#DejaVuSans-30" transform="translate(393.831543 0.78125)"/>
     </g>
    </g>
   </g>
  </g>
 </g>
 <defs>
  <clipPath id="p9d8bc98099">
   <rect x="31.26274" y="13.598678" width="384.033895" height="298.644832"/>
  </clipPath>
 </defs>
</svg>
