<?xml version="1.0" encoding="utf-8" standalone="no"?>
<!DOCTYPE svg PUBLIC "-//W3C//DTD SVG 1.1//EN"
  "http://www.w3.org/Graphics/SVG/1.1/DTD/svg11.dtd">
<svg xmlns:xlink="http://www.w3.org/1999/xlink" width="460.8pt" height="345.6pt" viewBox="0 0 460.8 345.6" xmlns="http://www.w3.org/2000/svg" version="1.1">
 <metadata>
  <rdf:RDF xmlns:dc="http://purl.org/dc/elements/1.1/" xmlns:cc="http://creativecommons.org/ns#" xmlns:rdf="http://www.w3.org/1999/02/22-rdf-syntax-ns#">
   <cc:Work>
    <dc:type rdf:resource="http://purl.org/dc/dcmitype/StillImage"/>
    <dc:date>2025-04-10T09:53:27.411475</dc:date>
    <dc:format>image/svg+xml</dc:format>
    <dc:creator>
     <cc:Agent>
      <dc:title>Matplotlib v3.10.0, https://matplotlib.org/</dc:title>
     </cc:Agent>
    </dc:creator>
   </cc:Work>
  </rdf:RDF>
 </metadata>
 <defs>
  <style type="text/css">*{stroke-linejoin: round; stroke-linecap: butt}</style>
 </defs>
 <g id="figure_1">
  <g id="patch_1">
   <path d="M 0 345.6 
L 460.8 345.6 
L 460.8 0 
L 0 0 
L 0 345.6 
z
" style="fill: none"/>
  </g>
  <g id="axes_1">
   <g id="patch_2">
    <path d="M 40.803365 312.24351 
L 415.296635 312.24351 
L 415.296635 13.598678 
L 40.803365 13.598678 
L 40.803365 312.24351 
z
" style="fill: none"/>
   </g>
   <g id="axes_2">
    <g id="patch_3">
     <path d="M 415.296635 312.24351 
L 415.296635 312.24351 
L 415.296635 13.598678 
L 415.296635 13.598678 
L 415.296635 312.24351 
z
" style="fill: none"/>
    </g>
    <g id="matplotlib.axis_1"/>
    <g id="matplotlib.axis_2">
     <g id="ytick_1">
      <g id="line2d_1">
       <defs>
        <path id="m1f1ca49f80" d="M 0 0 
L 3.5 0 
" style="stroke: #000000; stroke-width: 0.8"/>
       </defs>
       <g>
        <use xlink:href="#m1f1ca49f80" x="415.296635" y="312.24351" style="stroke: #000000; stroke-width: 0.8"/>
       </g>
      </g>
      <g id="text_1">
       <!-- 0.0 -->
       <g transform="translate(422.296635 316.042729) scale(0.1 -0.1)">
        <defs>
         <path id="DejaVuSans-30" d="M 2034 4250 
Q 1547 4250 1301 3770 
Q 1056 3291 1056 2328 
Q 1056 1369 1301 889 
Q 1547 409 2034 409 
Q 2525 409 2770 889 
Q 3016 1369 3016 2328 
Q 3016 3291 2770 3770 
Q 2525 4250 2034 4250 
z
M 2034 4750 
Q 2819 4750 3233 4129 
Q 3647 3509 3647 2328 
Q 3647 1150 3233 529 
Q 2819 -91 2034 -91 
Q 1250 -91 836 529 
Q 422 1150 422 2328 
Q 422 3509 836 4129 
Q 1250 4750 2034 4750 
z
" transform="scale(0.015625)"/>
         <path id="DejaVuSans-2e" d="M 684 794 
L 1344 794 
L 1344 0 
L 684 0 
L 684 794 
z
" transform="scale(0.015625)"/>
        </defs>
        <use xlink:href="#DejaVuSans-30"/>
        <use xlink:href="#DejaVuSans-2e" transform="translate(63.623047 0)"/>
        <use xlink:href="#DejaVuSans-30" transform="translate(95.410156 0)"/>
       </g>
      </g>
     </g>
     <g id="ytick_2">
      <g id="line2d_2">
       <g>
        <use xlink:href="#m1f1ca49f80" x="415.296635" y="277.693523" style="stroke: #000000; stroke-width: 0.8"/>
       </g>
      </g>
      <g id="text_2">
       <!-- 0.5 -->
       <g transform="translate(422.296635 281.492742) scale(0.1 -0.1)">
        <defs>
         <path id="DejaVuSans-35" d="M 691 4666 
L 3169 4666 
L 3169 4134 
L 1269 4134 
L 1269 2991 
Q 1406 3038 1543 3061 
Q 1681 3084 1819 3084 
Q 2600 3084 3056 2656 
Q 3513 2228 3513 1497 
Q 3513 744 3044 326 
Q 2575 -91 1722 -91 
Q 1428 -91 1123 -41 
Q 819 9 494 109 
L 494 744 
Q 775 591 1075 516 
Q 1375 441 1709 441 
Q 2250 441 2565 725 
Q 2881 1009 2881 1497 
Q 2881 1984 2565 2268 
Q 2250 2553 1709 2553 
Q 1456 2553 1204 2497 
Q 953 2441 691 2322 
L 691 4666 
z
" transform="scale(0.015625)"/>
        </defs>
        <use xlink:href="#DejaVuSans-30"/>
        <use xlink:href="#DejaVuSans-2e" transform="translate(63.623047 0)"/>
        <use xlink:href="#DejaVuSans-35" transform="translate(95.410156 0)"/>
       </g>
      </g>
     </g>
     <g id="ytick_3">
      <g id="line2d_3">
       <g>
        <use xlink:href="#m1f1ca49f80" x="415.296635" y="243.143536" style="stroke: #000000; stroke-width: 0.8"/>
       </g>
      </g>
      <g id="text_3">
       <!-- 1.0 -->
       <g transform="translate(422.296635 246.942755) scale(0.1 -0.1)">
        <defs>
         <path id="DejaVuSans-31" d="M 794 531 
L 1825 531 
L 1825 4091 
L 703 3866 
L 703 4441 
L 1819 4666 
L 2450 4666 
L 2450 531 
L 3481 531 
L 3481 0 
L 794 0 
L 794 531 
z
" transform="scale(0.015625)"/>
        </defs>
        <use xlink:href="#DejaVuSans-31"/>
        <use xlink:href="#DejaVuSans-2e" transform="translate(63.623047 0)"/>
        <use xlink:href="#DejaVuSans-30" transform="translate(95.410156 0)"/>
       </g>
      </g>
     </g>
     <g id="ytick_4">
      <g id="line2d_4">
       <g>
        <use xlink:href="#m1f1ca49f80" x="415.296635" y="208.59355" style="stroke: #000000; stroke-width: 0.8"/>
       </g>
      </g>
      <g id="text_4">
       <!-- 1.5 -->
       <g transform="translate(422.296635 212.392768) scale(0.1 -0.1)">
        <use xlink:href="#DejaVuSans-31"/>
        <use xlink:href="#DejaVuSans-2e" transform="translate(63.623047 0)"/>
        <use xlink:href="#DejaVuSans-35" transform="translate(95.410156 0)"/>
       </g>
      </g>
     </g>
     <g id="ytick_5">
      <g id="line2d_5">
       <g>
        <use xlink:href="#m1f1ca49f80" x="415.296635" y="174.043563" style="stroke: #000000; stroke-width: 0.8"/>
       </g>
      </g>
      <g id="text_5">
       <!-- 2.0 -->
       <g transform="translate(422.296635 177.842782) scale(0.1 -0.1)">
        <defs>
         <path id="DejaVuSans-32" d="M 1228 531 
L 3431 531 
L 3431 0 
L 469 0 
L 469 531 
Q 828 903 1448 1529 
Q 2069 2156 2228 2338 
Q 2531 2678 2651 2914 
Q 2772 3150 2772 3378 
Q 2772 3750 2511 3984 
Q 2250 4219 1831 4219 
Q 1534 4219 1204 4116 
Q 875 4013 500 3803 
L 500 4441 
Q 881 4594 1212 4672 
Q 1544 4750 1819 4750 
Q 2544 4750 2975 4387 
Q 3406 4025 3406 3419 
Q 3406 3131 3298 2873 
Q 3191 2616 2906 2266 
Q 2828 2175 2409 1742 
Q 1991 1309 1228 531 
z
" transform="scale(0.015625)"/>
        </defs>
        <use xlink:href="#DejaVuSans-32"/>
        <use xlink:href="#DejaVuSans-2e" transform="translate(63.623047 0)"/>
        <use xlink:href="#DejaVuSans-30" transform="translate(95.410156 0)"/>
       </g>
      </g>
     </g>
     <g id="ytick_6">
      <g id="line2d_6">
       <g>
        <use xlink:href="#m1f1ca49f80" x="415.296635" y="139.493576" style="stroke: #000000; stroke-width: 0.8"/>
       </g>
      </g>
      <g id="text_6">
       <!-- 2.5 -->
       <g transform="translate(422.296635 143.292795) scale(0.1 -0.1)">
        <use xlink:href="#DejaVuSans-32"/>
        <use xlink:href="#DejaVuSans-2e" transform="translate(63.623047 0)"/>
        <use xlink:href="#DejaVuSans-35" transform="translate(95.410156 0)"/>
       </g>
      </g>
     </g>
     <g id="ytick_7">
      <g id="line2d_7">
       <g>
        <use xlink:href="#m1f1ca49f80" x="415.296635" y="104.943589" style="stroke: #000000; stroke-width: 0.8"/>
       </g>
      </g>
      <g id="text_7">
       <!-- 3.0 -->
       <g transform="translate(422.296635 108.742808) scale(0.1 -0.1)">
        <defs>
         <path id="DejaVuSans-33" d="M 2597 2516 
Q 3050 2419 3304 2112 
Q 3559 1806 3559 1356 
Q 3559 666 3084 287 
Q 2609 -91 1734 -91 
Q 1441 -91 1130 -33 
Q 819 25 488 141 
L 488 750 
Q 750 597 1062 519 
Q 1375 441 1716 441 
Q 2309 441 2620 675 
Q 2931 909 2931 1356 
Q 2931 1769 2642 2001 
Q 2353 2234 1838 2234 
L 1294 2234 
L 1294 2753 
L 1863 2753 
Q 2328 2753 2575 2939 
Q 2822 3125 2822 3475 
Q 2822 3834 2567 4026 
Q 2313 4219 1838 4219 
Q 1578 4219 1281 4162 
Q 984 4106 628 3988 
L 628 4550 
Q 988 4650 1302 4700 
Q 1616 4750 1894 4750 
Q 2613 4750 3031 4423 
Q 3450 4097 3450 3541 
Q 3450 3153 3228 2886 
Q 3006 2619 2597 2516 
z
" transform="scale(0.015625)"/>
        </defs>
        <use xlink:href="#DejaVuSans-33"/>
        <use xlink:href="#DejaVuSans-2e" transform="translate(63.623047 0)"/>
        <use xlink:href="#DejaVuSans-30" transform="translate(95.410156 0)"/>
       </g>
      </g>
     </g>
     <g id="ytick_8">
      <g id="line2d_8">
       <g>
        <use xlink:href="#m1f1ca49f80" x="415.296635" y="70.393603" style="stroke: #000000; stroke-width: 0.8"/>
       </g>
      </g>
      <g id="text_8">
       <!-- 3.5 -->
       <g transform="translate(422.296635 74.192821) scale(0.1 -0.1)">
        <use xlink:href="#DejaVuSans-33"/>
        <use xlink:href="#DejaVuSans-2e" transform="translate(63.623047 0)"/>
        <use xlink:href="#DejaVuSans-35" transform="translate(95.410156 0)"/>
       </g>
      </g>
     </g>
     <g id="ytick_9">
      <g id="line2d_9">
       <g>
        <use xlink:href="#m1f1ca49f80" x="415.296635" y="35.843616" style="stroke: #000000; stroke-width: 0.8"/>
       </g>
      </g>
      <g id="text_9">
       <!-- 4.0 -->
       <g transform="translate(422.296635 39.642835) scale(0.1 -0.1)">
        <defs>
         <path id="DejaVuSans-34" d="M 2419 4116 
L 825 1625 
L 2419 1625 
L 2419 4116 
z
M 2253 4666 
L 3047 4666 
L 3047 1625 
L 3713 1625 
L 3713 1100 
L 3047 1100 
L 3047 0 
L 2419 0 
L 2419 1100 
L 313 1100 
L 313 1709 
L 2253 4666 
z
" transform="scale(0.015625)"/>
        </defs>
        <use xlink:href="#DejaVuSans-34"/>
        <use xlink:href="#DejaVuSans-2e" transform="translate(63.623047 0)"/>
        <use xlink:href="#DejaVuSans-30" transform="translate(95.410156 0)"/>
       </g>
      </g>
     </g>
     <g id="ytick_10">
      <g id="line2d_10">
       <defs>
        <path id="me862b57caa" d="M 0 0 
L 2 0 
" style="stroke: #000000; stroke-width: 0.6"/>
       </defs>
       <g>
        <use xlink:href="#me862b57caa" x="415.296635" y="305.333513" style="stroke: #000000; stroke-width: 0.6"/>
       </g>
      </g>
     </g>
     <g id="ytick_11">
      <g id="line2d_11">
       <g>
        <use xlink:href="#me862b57caa" x="415.296635" y="298.423515" style="stroke: #000000; stroke-width: 0.6"/>
       </g>
      </g>
     </g>
     <g id="ytick_12">
      <g id="line2d_12">
       <g>
        <use xlink:href="#me862b57caa" x="415.296635" y="291.513518" style="stroke: #000000; stroke-width: 0.6"/>
       </g>
      </g>
     </g>
     <g id="ytick_13">
      <g id="line2d_13">
       <g>
        <use xlink:href="#me862b57caa" x="415.296635" y="284.603521" style="stroke: #000000; stroke-width: 0.6"/>
       </g>
      </g>
     </g>
     <g id="ytick_14">
      <g id="line2d_14">
       <g>
        <use xlink:href="#me862b57caa" x="415.296635" y="270.783526" style="stroke: #000000; stroke-width: 0.6"/>
       </g>
      </g>
     </g>
     <g id="ytick_15">
      <g id="line2d_15">
       <g>
        <use xlink:href="#me862b57caa" x="415.296635" y="263.873529" style="stroke: #000000; stroke-width: 0.6"/>
       </g>
      </g>
     </g>
     <g id="ytick_16">
      <g id="line2d_16">
       <g>
        <use xlink:href="#me862b57caa" x="415.296635" y="256.963531" style="stroke: #000000; stroke-width: 0.6"/>
       </g>
      </g>
     </g>
     <g id="ytick_17">
      <g id="line2d_17">
       <g>
        <use xlink:href="#me862b57caa" x="415.296635" y="250.053534" style="stroke: #000000; stroke-width: 0.6"/>
       </g>
      </g>
     </g>
     <g id="ytick_18">
      <g id="line2d_18">
       <g>
        <use xlink:href="#me862b57caa" x="415.296635" y="236.233539" style="stroke: #000000; stroke-width: 0.6"/>
       </g>
      </g>
     </g>
     <g id="ytick_19">
      <g id="line2d_19">
       <g>
        <use xlink:href="#me862b57caa" x="415.296635" y="229.323542" style="stroke: #000000; stroke-width: 0.6"/>
       </g>
      </g>
     </g>
     <g id="ytick_20">
      <g id="line2d_20">
       <g>
        <use xlink:href="#me862b57caa" x="415.296635" y="222.413544" style="stroke: #000000; stroke-width: 0.6"/>
       </g>
      </g>
     </g>
     <g id="ytick_21">
      <g id="line2d_21">
       <g>
        <use xlink:href="#me862b57caa" x="415.296635" y="215.503547" style="stroke: #000000; stroke-width: 0.6"/>
       </g>
      </g>
     </g>
     <g id="ytick_22">
      <g id="line2d_22">
       <g>
        <use xlink:href="#me862b57caa" x="415.296635" y="201.683552" style="stroke: #000000; stroke-width: 0.6"/>
       </g>
      </g>
     </g>
     <g id="ytick_23">
      <g id="line2d_23">
       <g>
        <use xlink:href="#me862b57caa" x="415.296635" y="194.773555" style="stroke: #000000; stroke-width: 0.6"/>
       </g>
      </g>
     </g>
     <g id="ytick_24">
      <g id="line2d_24">
       <g>
        <use xlink:href="#me862b57caa" x="415.296635" y="187.863558" style="stroke: #000000; stroke-width: 0.6"/>
       </g>
      </g>
     </g>
     <g id="ytick_25">
      <g id="line2d_25">
       <g>
        <use xlink:href="#me862b57caa" x="415.296635" y="180.95356" style="stroke: #000000; stroke-width: 0.6"/>
       </g>
      </g>
     </g>
     <g id="ytick_26">
      <g id="line2d_26">
       <g>
        <use xlink:href="#me862b57caa" x="415.296635" y="167.133566" style="stroke: #000000; stroke-width: 0.6"/>
       </g>
      </g>
     </g>
     <g id="ytick_27">
      <g id="line2d_27">
       <g>
        <use xlink:href="#me862b57caa" x="415.296635" y="160.223568" style="stroke: #000000; stroke-width: 0.6"/>
       </g>
      </g>
     </g>
     <g id="ytick_28">
      <g id="line2d_28">
       <g>
        <use xlink:href="#me862b57caa" x="415.296635" y="153.313571" style="stroke: #000000; stroke-width: 0.6"/>
       </g>
      </g>
     </g>
     <g id="ytick_29">
      <g id="line2d_29">
       <g>
        <use xlink:href="#me862b57caa" x="415.296635" y="146.403574" style="stroke: #000000; stroke-width: 0.6"/>
       </g>
      </g>
     </g>
     <g id="ytick_30">
      <g id="line2d_30">
       <g>
        <use xlink:href="#me862b57caa" x="415.296635" y="132.583579" style="stroke: #000000; stroke-width: 0.6"/>
       </g>
      </g>
     </g>
     <g id="ytick_31">
      <g id="line2d_31">
       <g>
        <use xlink:href="#me862b57caa" x="415.296635" y="125.673581" style="stroke: #000000; stroke-width: 0.6"/>
       </g>
      </g>
     </g>
     <g id="ytick_32">
      <g id="line2d_32">
       <g>
        <use xlink:href="#me862b57caa" x="415.296635" y="118.763584" style="stroke: #000000; stroke-width: 0.6"/>
       </g>
      </g>
     </g>
     <g id="ytick_33">
      <g id="line2d_33">
       <g>
        <use xlink:href="#me862b57caa" x="415.296635" y="111.853587" style="stroke: #000000; stroke-width: 0.6"/>
       </g>
      </g>
     </g>
     <g id="ytick_34">
      <g id="line2d_34">
       <g>
        <use xlink:href="#me862b57caa" x="415.296635" y="98.033592" style="stroke: #000000; stroke-width: 0.6"/>
       </g>
      </g>
     </g>
     <g id="ytick_35">
      <g id="line2d_35">
       <g>
        <use xlink:href="#me862b57caa" x="415.296635" y="91.123595" style="stroke: #000000; stroke-width: 0.6"/>
       </g>
      </g>
     </g>
     <g id="ytick_36">
      <g id="line2d_36">
       <g>
        <use xlink:href="#me862b57caa" x="415.296635" y="84.213597" style="stroke: #000000; stroke-width: 0.6"/>
       </g>
      </g>
     </g>
     <g id="ytick_37">
      <g id="line2d_37">
       <g>
        <use xlink:href="#me862b57caa" x="415.296635" y="77.3036" style="stroke: #000000; stroke-width: 0.6"/>
       </g>
      </g>
     </g>
     <g id="ytick_38">
      <g id="line2d_38">
       <g>
        <use xlink:href="#me862b57caa" x="415.296635" y="63.483605" style="stroke: #000000; stroke-width: 0.6"/>
       </g>
      </g>
     </g>
     <g id="ytick_39">
      <g id="line2d_39">
       <g>
        <use xlink:href="#me862b57caa" x="415.296635" y="56.573608" style="stroke: #000000; stroke-width: 0.6"/>
       </g>
      </g>
     </g>
     <g id="ytick_40">
      <g id="line2d_40">
       <g>
        <use xlink:href="#me862b57caa" x="415.296635" y="49.663611" style="stroke: #000000; stroke-width: 0.6"/>
       </g>
      </g>
     </g>
     <g id="ytick_41">
      <g id="line2d_41">
       <g>
        <use xlink:href="#me862b57caa" x="415.296635" y="42.753613" style="stroke: #000000; stroke-width: 0.6"/>
       </g>
      </g>
     </g>
     <g id="ytick_42">
      <g id="line2d_42">
       <g>
        <use xlink:href="#me862b57caa" x="415.296635" y="28.933619" style="stroke: #000000; stroke-width: 0.6"/>
       </g>
      </g>
     </g>
     <g id="ytick_43">
      <g id="line2d_43">
       <g>
        <use xlink:href="#me862b57caa" x="415.296635" y="22.023621" style="stroke: #000000; stroke-width: 0.6"/>
       </g>
      </g>
     </g>
     <g id="ytick_44">
      <g id="line2d_44">
       <g>
        <use xlink:href="#me862b57caa" x="415.296635" y="15.113624" style="stroke: #000000; stroke-width: 0.6"/>
       </g>
      </g>
     </g>
     <g id="text_10">
      <!-- % of initial Sr content $\frac{100 \cdot x_{eq}}{x_0}$ -->
      <g transform="translate(453.99976 233.621094) rotate(-90) scale(0.1 -0.1)">
       <defs>
        <path id="DejaVuSans-25" d="M 4653 2053 
Q 4381 2053 4226 1822 
Q 4072 1591 4072 1178 
Q 4072 772 4226 539 
Q 4381 306 4653 306 
Q 4919 306 5073 539 
Q 5228 772 5228 1178 
Q 5228 1588 5073 1820 
Q 4919 2053 4653 2053 
z
M 4653 2450 
Q 5147 2450 5437 2106 
Q 5728 1763 5728 1178 
Q 5728 594 5436 251 
Q 5144 -91 4653 -91 
Q 4153 -91 3862 251 
Q 3572 594 3572 1178 
Q 3572 1766 3864 2108 
Q 4156 2450 4653 2450 
z
M 1428 4353 
Q 1159 4353 1004 4120 
Q 850 3888 850 3481 
Q 850 3069 1003 2837 
Q 1156 2606 1428 2606 
Q 1700 2606 1854 2837 
Q 2009 3069 2009 3481 
Q 2009 3884 1853 4118 
Q 1697 4353 1428 4353 
z
M 4250 4750 
L 4750 4750 
L 1831 -91 
L 1331 -91 
L 4250 4750 
z
M 1428 4750 
Q 1922 4750 2215 4408 
Q 2509 4066 2509 3481 
Q 2509 2891 2217 2550 
Q 1925 2209 1428 2209 
Q 931 2209 642 2551 
Q 353 2894 353 3481 
Q 353 4063 643 4406 
Q 934 4750 1428 4750 
z
" transform="scale(0.015625)"/>
        <path id="DejaVuSans-20" transform="scale(0.015625)"/>
        <path id="DejaVuSans-6f" d="M 1959 3097 
Q 1497 3097 1228 2736 
Q 959 2375 959 1747 
Q 959 1119 1226 758 
Q 1494 397 1959 397 
Q 2419 397 2687 759 
Q 2956 1122 2956 1747 
Q 2956 2369 2687 2733 
Q 2419 3097 1959 3097 
z
M 1959 3584 
Q 2709 3584 3137 3096 
Q 3566 2609 3566 1747 
Q 3566 888 3137 398 
Q 2709 -91 1959 -91 
Q 1206 -91 779 398 
Q 353 888 353 1747 
Q 353 2609 779 3096 
Q 1206 3584 1959 3584 
z
" transform="scale(0.015625)"/>
        <path id="DejaVuSans-66" d="M 2375 4863 
L 2375 4384 
L 1825 4384 
Q 1516 4384 1395 4259 
Q 1275 4134 1275 3809 
L 1275 3500 
L 2222 3500 
L 2222 3053 
L 1275 3053 
L 1275 0 
L 697 0 
L 697 3053 
L 147 3053 
L 147 3500 
L 697 3500 
L 697 3744 
Q 697 4328 969 4595 
Q 1241 4863 1831 4863 
L 2375 4863 
z
" transform="scale(0.015625)"/>
        <path id="DejaVuSans-69" d="M 603 3500 
L 1178 3500 
L 1178 0 
L 603 0 
L 603 3500 
z
M 603 4863 
L 1178 4863 
L 1178 4134 
L 603 4134 
L 603 4863 
z
" transform="scale(0.015625)"/>
        <path id="DejaVuSans-6e" d="M 3513 2113 
L 3513 0 
L 2938 0 
L 2938 2094 
Q 2938 2591 2744 2837 
Q 2550 3084 2163 3084 
Q 1697 3084 1428 2787 
Q 1159 2491 1159 1978 
L 1159 0 
L 581 0 
L 581 3500 
L 1159 3500 
L 1159 2956 
Q 1366 3272 1645 3428 
Q 1925 3584 2291 3584 
Q 2894 3584 3203 3211 
Q 3513 2838 3513 2113 
z
" transform="scale(0.015625)"/>
        <path id="DejaVuSans-74" d="M 1172 4494 
L 1172 3500 
L 2356 3500 
L 2356 3053 
L 1172 3053 
L 1172 1153 
Q 1172 725 1289 603 
Q 1406 481 1766 481 
L 2356 481 
L 2356 0 
L 1766 0 
Q 1100 0 847 248 
Q 594 497 594 1153 
L 594 3053 
L 172 3053 
L 172 3500 
L 594 3500 
L 594 4494 
L 1172 4494 
z
" transform="scale(0.015625)"/>
        <path id="DejaVuSans-61" d="M 2194 1759 
Q 1497 1759 1228 1600 
Q 959 1441 959 1056 
Q 959 750 1161 570 
Q 1363 391 1709 391 
Q 2188 391 2477 730 
Q 2766 1069 2766 1631 
L 2766 1759 
L 2194 1759 
z
M 3341 1997 
L 3341 0 
L 2766 0 
L 2766 531 
Q 2569 213 2275 61 
Q 1981 -91 1556 -91 
Q 1019 -91 701 211 
Q 384 513 384 1019 
Q 384 1609 779 1909 
Q 1175 2209 1959 2209 
L 2766 2209 
L 2766 2266 
Q 2766 2663 2505 2880 
Q 2244 3097 1772 3097 
Q 1472 3097 1187 3025 
Q 903 2953 641 2809 
L 641 3341 
Q 956 3463 1253 3523 
Q 1550 3584 1831 3584 
Q 2591 3584 2966 3190 
Q 3341 2797 3341 1997 
z
" transform="scale(0.015625)"/>
        <path id="DejaVuSans-6c" d="M 603 4863 
L 1178 4863 
L 1178 0 
L 603 0 
L 603 4863 
z
" transform="scale(0.015625)"/>
        <path id="DejaVuSans-53" d="M 3425 4513 
L 3425 3897 
Q 3066 4069 2747 4153 
Q 2428 4238 2131 4238 
Q 1616 4238 1336 4038 
Q 1056 3838 1056 3469 
Q 1056 3159 1242 3001 
Q 1428 2844 1947 2747 
L 2328 2669 
Q 3034 2534 3370 2195 
Q 3706 1856 3706 1288 
Q 3706 609 3251 259 
Q 2797 -91 1919 -91 
Q 1588 -91 1214 -16 
Q 841 59 441 206 
L 441 856 
Q 825 641 1194 531 
Q 1563 422 1919 422 
Q 2459 422 2753 634 
Q 3047 847 3047 1241 
Q 3047 1584 2836 1778 
Q 2625 1972 2144 2069 
L 1759 2144 
Q 1053 2284 737 2584 
Q 422 2884 422 3419 
Q 422 4038 858 4394 
Q 1294 4750 2059 4750 
Q 2388 4750 2728 4690 
Q 3069 4631 3425 4513 
z
" transform="scale(0.015625)"/>
        <path id="DejaVuSans-72" d="M 2631 2963 
Q 2534 3019 2420 3045 
Q 2306 3072 2169 3072 
Q 1681 3072 1420 2755 
Q 1159 2438 1159 1844 
L 1159 0 
L 581 0 
L 581 3500 
L 1159 3500 
L 1159 2956 
Q 1341 3275 1631 3429 
Q 1922 3584 2338 3584 
Q 2397 3584 2469 3576 
Q 2541 3569 2628 3553 
L 2631 2963 
z
" transform="scale(0.015625)"/>
        <path id="DejaVuSans-63" d="M 3122 3366 
L 3122 2828 
Q 2878 2963 2633 3030 
Q 2388 3097 2138 3097 
Q 1578 3097 1268 2742 
Q 959 2388 959 1747 
Q 959 1106 1268 751 
Q 1578 397 2138 397 
Q 2388 397 2633 464 
Q 2878 531 3122 666 
L 3122 134 
Q 2881 22 2623 -34 
Q 2366 -91 2075 -91 
Q 1284 -91 818 406 
Q 353 903 353 1747 
Q 353 2603 823 3093 
Q 1294 3584 2113 3584 
Q 2378 3584 2631 3529 
Q 2884 3475 3122 3366 
z
" transform="scale(0.015625)"/>
        <path id="DejaVuSans-65" d="M 3597 1894 
L 3597 1613 
L 953 1613 
Q 991 1019 1311 708 
Q 1631 397 2203 397 
Q 2534 397 2845 478 
Q 3156 559 3463 722 
L 3463 178 
Q 3153 47 2828 -22 
Q 2503 -91 2169 -91 
Q 1331 -91 842 396 
Q 353 884 353 1716 
Q 353 2575 817 3079 
Q 1281 3584 2069 3584 
Q 2775 3584 3186 3129 
Q 3597 2675 3597 1894 
z
M 3022 2063 
Q 3016 2534 2758 2815 
Q 2500 3097 2075 3097 
Q 1594 3097 1305 2825 
Q 1016 2553 972 2059 
L 3022 2063 
z
" transform="scale(0.015625)"/>
        <path id="DejaVuSans-22c5" d="M 684 2619 
L 1344 2619 
L 1344 1825 
L 684 1825 
L 684 2619 
z
" transform="scale(0.015625)"/>
        <path id="DejaVuSans-Oblique-78" d="M 3841 3500 
L 2234 1784 
L 3219 0 
L 2559 0 
L 1819 1388 
L 531 0 
L -166 0 
L 1556 1844 
L 641 3500 
L 1300 3500 
L 1972 2234 
L 3144 3500 
L 3841 3500 
z
" transform="scale(0.015625)"/>
        <path id="DejaVuSans-Oblique-65" d="M 3078 2063 
Q 3088 2113 3092 2166 
Q 3097 2219 3097 2272 
Q 3097 2653 2873 2875 
Q 2650 3097 2266 3097 
Q 1838 3097 1509 2826 
Q 1181 2556 1013 2059 
L 3078 2063 
z
M 3578 1613 
L 903 1613 
Q 884 1494 878 1425 
Q 872 1356 872 1306 
Q 872 872 1139 634 
Q 1406 397 1894 397 
Q 2269 397 2603 481 
Q 2938 566 3225 728 
L 3116 159 
Q 2806 34 2476 -28 
Q 2147 -91 1806 -91 
Q 1078 -91 686 257 
Q 294 606 294 1247 
Q 294 1794 489 2264 
Q 684 2734 1063 3103 
Q 1306 3334 1642 3459 
Q 1978 3584 2356 3584 
Q 2950 3584 3301 3228 
Q 3653 2872 3653 2272 
Q 3653 2128 3634 1964 
Q 3616 1800 3578 1613 
z
" transform="scale(0.015625)"/>
        <path id="DejaVuSans-Oblique-71" d="M 2669 525 
Q 2438 222 2123 65 
Q 1809 -91 1428 -91 
Q 897 -91 595 267 
Q 294 625 294 1253 
Q 294 1759 480 2231 
Q 666 2703 1013 3078 
Q 1238 3322 1530 3453 
Q 1822 3584 2144 3584 
Q 2531 3584 2781 3431 
Q 3031 3278 3144 2969 
L 3244 3494 
L 3822 3494 
L 2888 -1319 
L 2309 -1319 
L 2669 525 
z
M 891 1338 
Q 891 875 1084 633 
Q 1278 391 1644 391 
Q 2188 391 2572 911 
Q 2956 1431 2956 2175 
Q 2956 2625 2757 2864 
Q 2559 3103 2188 3103 
Q 1916 3103 1684 2976 
Q 1453 2850 1281 2606 
Q 1100 2350 995 2006 
Q 891 1663 891 1338 
z
" transform="scale(0.015625)"/>
       </defs>
       <use xlink:href="#DejaVuSans-25" transform="translate(0 0.667031)"/>
       <use xlink:href="#DejaVuSans-20" transform="translate(95.019531 0.667031)"/>
       <use xlink:href="#DejaVuSans-6f" transform="translate(126.806641 0.667031)"/>
       <use xlink:href="#DejaVuSans-66" transform="translate(187.988281 0.667031)"/>
       <use xlink:href="#DejaVuSans-20" transform="translate(223.193359 0.667031)"/>
       <use xlink:href="#DejaVuSans-69" transform="translate(254.980469 0.667031)"/>
       <use xlink:href="#DejaVuSans-6e" transform="translate(282.763672 0.667031)"/>
       <use xlink:href="#DejaVuSans-69" transform="translate(346.142578 0.667031)"/>
       <use xlink:href="#DejaVuSans-74" transform="translate(373.925781 0.667031)"/>
       <use xlink:href="#DejaVuSans-69" transform="translate(413.134766 0.667031)"/>
       <use xlink:href="#DejaVuSans-61" transform="translate(440.917969 0.667031)"/>
       <use xlink:href="#DejaVuSans-6c" transform="translate(502.197266 0.667031)"/>
       <use xlink:href="#DejaVuSans-20" transform="translate(529.980469 0.667031)"/>
       <use xlink:href="#DejaVuSans-53" transform="translate(561.767578 0.667031)"/>
       <use xlink:href="#DejaVuSans-72" transform="translate(625.244141 0.667031)"/>
       <use xlink:href="#DejaVuSans-20" transform="translate(666.357422 0.667031)"/>
       <use xlink:href="#DejaVuSans-63" transform="translate(698.144531 0.667031)"/>
       <use xlink:href="#DejaVuSans-6f" transform="translate(753.125 0.667031)"/>
       <use xlink:href="#DejaVuSans-6e" transform="translate(814.306641 0.667031)"/>
       <use xlink:href="#DejaVuSans-74" transform="translate(877.685547 0.667031)"/>
       <use xlink:href="#DejaVuSans-65" transform="translate(916.894531 0.667031)"/>
       <use xlink:href="#DejaVuSans-6e" transform="translate(978.417969 0.667031)"/>
       <use xlink:href="#DejaVuSans-74" transform="translate(1041.796875 0.667031)"/>
       <use xlink:href="#DejaVuSans-20" transform="translate(1081.005859 0.667031)"/>
       <use xlink:href="#DejaVuSans-31" transform="translate(1112.792969 66.046875) scale(0.7)"/>
       <use xlink:href="#DejaVuSans-30" transform="translate(1157.329102 66.046875) scale(0.7)"/>
       <use xlink:href="#DejaVuSans-30" transform="translate(1201.865234 66.046875) scale(0.7)"/>
       <use xlink:href="#DejaVuSans-22c5" transform="translate(1260.039062 66.046875) scale(0.7)"/>
       <use xlink:href="#DejaVuSans-Oblique-78" transform="translate(1295.927734 66.046875) scale(0.7)"/>
       <use xlink:href="#DejaVuSans-Oblique-65" transform="translate(1337.353516 54.5625) scale(0.49)"/>
       <use xlink:href="#DejaVuSans-Oblique-71" transform="translate(1367.5 54.5625) scale(0.49)"/>
       <use xlink:href="#DejaVuSans-Oblique-78" transform="translate(1219.792969 -25.067344) scale(0.7)"/>
       <use xlink:href="#DejaVuSans-30" transform="translate(1261.21875 -36.551719) scale(0.49)"/>
       <path d="M 1112.792969 19.463906 
L 1112.792969 25.713906 
L 1400.517578 25.713906 
L 1400.517578 19.463906 
L 1112.792969 19.463906 
z
"/>
      </g>
     </g>
     <g id="text_11">
      <!-- 1e−6 -->
      <g transform="translate(388.038822 10.598678) scale(0.1 -0.1)">
       <defs>
        <path id="DejaVuSans-2212" d="M 678 2272 
L 4684 2272 
L 4684 1741 
L 678 1741 
L 678 2272 
z
" transform="scale(0.015625)"/>
        <path id="DejaVuSans-36" d="M 2113 2584 
Q 1688 2584 1439 2293 
Q 1191 2003 1191 1497 
Q 1191 994 1439 701 
Q 1688 409 2113 409 
Q 2538 409 2786 701 
Q 3034 994 3034 1497 
Q 3034 2003 2786 2293 
Q 2538 2584 2113 2584 
z
M 3366 4563 
L 3366 3988 
Q 3128 4100 2886 4159 
Q 2644 4219 2406 4219 
Q 1781 4219 1451 3797 
Q 1122 3375 1075 2522 
Q 1259 2794 1537 2939 
Q 1816 3084 2150 3084 
Q 2853 3084 3261 2657 
Q 3669 2231 3669 1497 
Q 3669 778 3244 343 
Q 2819 -91 2113 -91 
Q 1303 -91 875 529 
Q 447 1150 447 2328 
Q 447 3434 972 4092 
Q 1497 4750 2381 4750 
Q 2619 4750 2861 4703 
Q 3103 4656 3366 4563 
z
" transform="scale(0.015625)"/>
       </defs>
       <use xlink:href="#DejaVuSans-31"/>
       <use xlink:href="#DejaVuSans-65" transform="translate(63.623047 0)"/>
       <use xlink:href="#DejaVuSans-2212" transform="translate(125.146484 0)"/>
       <use xlink:href="#DejaVuSans-36" transform="translate(208.935547 0)"/>
      </g>
     </g>
    </g>
    <g id="patch_4">
     <path d="M 415.296635 312.24351 
L 415.296635 13.598678 
" style="fill: none; stroke: #000000; stroke-width: 0.8; stroke-linejoin: miter; stroke-linecap: square"/>
    </g>
   </g>
   <g id="matplotlib.axis_3">
    <g id="xtick_1">
     <g id="line2d_45">
      <defs>
       <path id="mbd0f4ae560" d="M 0 0 
L 0 3.5 
" style="stroke: #000000; stroke-width: 0.8"/>
      </defs>
      <g>
       <use xlink:href="#mbd0f4ae560" x="40.803365" y="312.24351" style="stroke: #000000; stroke-width: 0.8"/>
      </g>
     </g>
     <g id="text_12">
      <!-- 700 -->
      <g transform="translate(31.259615 326.841947) scale(0.1 -0.1)">
       <defs>
        <path id="DejaVuSans-37" d="M 525 4666 
L 3525 4666 
L 3525 4397 
L 1831 0 
L 1172 0 
L 2766 4134 
L 525 4134 
L 525 4666 
z
" transform="scale(0.015625)"/>
       </defs>
       <use xlink:href="#DejaVuSans-37"/>
       <use xlink:href="#DejaVuSans-30" transform="translate(63.623047 0)"/>
       <use xlink:href="#DejaVuSans-30" transform="translate(127.246094 0)"/>
      </g>
     </g>
    </g>
    <g id="xtick_2">
     <g id="line2d_46">
      <g>
       <use xlink:href="#mbd0f4ae560" x="103.32311" y="312.24351" style="stroke: #000000; stroke-width: 0.8"/>
      </g>
     </g>
     <g id="text_13">
      <!-- 800 -->
      <g transform="translate(93.77936 326.841947) scale(0.1 -0.1)">
       <defs>
        <path id="DejaVuSans-38" d="M 2034 2216 
Q 1584 2216 1326 1975 
Q 1069 1734 1069 1313 
Q 1069 891 1326 650 
Q 1584 409 2034 409 
Q 2484 409 2743 651 
Q 3003 894 3003 1313 
Q 3003 1734 2745 1975 
Q 2488 2216 2034 2216 
z
M 1403 2484 
Q 997 2584 770 2862 
Q 544 3141 544 3541 
Q 544 4100 942 4425 
Q 1341 4750 2034 4750 
Q 2731 4750 3128 4425 
Q 3525 4100 3525 3541 
Q 3525 3141 3298 2862 
Q 3072 2584 2669 2484 
Q 3125 2378 3379 2068 
Q 3634 1759 3634 1313 
Q 3634 634 3220 271 
Q 2806 -91 2034 -91 
Q 1263 -91 848 271 
Q 434 634 434 1313 
Q 434 1759 690 2068 
Q 947 2378 1403 2484 
z
M 1172 3481 
Q 1172 3119 1398 2916 
Q 1625 2713 2034 2713 
Q 2441 2713 2670 2916 
Q 2900 3119 2900 3481 
Q 2900 3844 2670 4047 
Q 2441 4250 2034 4250 
Q 1625 4250 1398 4047 
Q 1172 3844 1172 3481 
z
" transform="scale(0.015625)"/>
       </defs>
       <use xlink:href="#DejaVuSans-38"/>
       <use xlink:href="#DejaVuSans-30" transform="translate(63.623047 0)"/>
       <use xlink:href="#DejaVuSans-30" transform="translate(127.246094 0)"/>
      </g>
     </g>
    </g>
    <g id="xtick_3">
     <g id="line2d_47">
      <g>
       <use xlink:href="#mbd0f4ae560" x="165.842854" y="312.24351" style="stroke: #000000; stroke-width: 0.8"/>
      </g>
     </g>
     <g id="text_14">
      <!-- 900 -->
      <g transform="translate(156.299104 326.841947) scale(0.1 -0.1)">
       <defs>
        <path id="DejaVuSans-39" d="M 703 97 
L 703 672 
Q 941 559 1184 500 
Q 1428 441 1663 441 
Q 2288 441 2617 861 
Q 2947 1281 2994 2138 
Q 2813 1869 2534 1725 
Q 2256 1581 1919 1581 
Q 1219 1581 811 2004 
Q 403 2428 403 3163 
Q 403 3881 828 4315 
Q 1253 4750 1959 4750 
Q 2769 4750 3195 4129 
Q 3622 3509 3622 2328 
Q 3622 1225 3098 567 
Q 2575 -91 1691 -91 
Q 1453 -91 1209 -44 
Q 966 3 703 97 
z
M 1959 2075 
Q 2384 2075 2632 2365 
Q 2881 2656 2881 3163 
Q 2881 3666 2632 3958 
Q 2384 4250 1959 4250 
Q 1534 4250 1286 3958 
Q 1038 3666 1038 3163 
Q 1038 2656 1286 2365 
Q 1534 2075 1959 2075 
z
" transform="scale(0.015625)"/>
       </defs>
       <use xlink:href="#DejaVuSans-39"/>
       <use xlink:href="#DejaVuSans-30" transform="translate(63.623047 0)"/>
       <use xlink:href="#DejaVuSans-30" transform="translate(127.246094 0)"/>
      </g>
     </g>
    </g>
    <g id="xtick_4">
     <g id="line2d_48">
      <g>
       <use xlink:href="#mbd0f4ae560" x="228.362599" y="312.24351" style="stroke: #000000; stroke-width: 0.8"/>
      </g>
     </g>
     <g id="text_15">
      <!-- 1000 -->
      <g transform="translate(215.637599 326.841947) scale(0.1 -0.1)">
       <use xlink:href="#DejaVuSans-31"/>
       <use xlink:href="#DejaVuSans-30" transform="translate(63.623047 0)"/>
       <use xlink:href="#DejaVuSans-30" transform="translate(127.246094 0)"/>
       <use xlink:href="#DejaVuSans-30" transform="translate(190.869141 0)"/>
      </g>
     </g>
    </g>
    <g id="xtick_5">
     <g id="line2d_49">
      <g>
       <use xlink:href="#mbd0f4ae560" x="290.882343" y="312.24351" style="stroke: #000000; stroke-width: 0.8"/>
      </g>
     </g>
     <g id="text_16">
      <!-- 1100 -->
      <g transform="translate(278.157343 326.841947) scale(0.1 -0.1)">
       <use xlink:href="#DejaVuSans-31"/>
       <use xlink:href="#DejaVuSans-31" transform="translate(63.623047 0)"/>
       <use xlink:href="#DejaVuSans-30" transform="translate(127.246094 0)"/>
       <use xlink:href="#DejaVuSans-30" transform="translate(190.869141 0)"/>
      </g>
     </g>
    </g>
    <g id="xtick_6">
     <g id="line2d_50">
      <g>
       <use xlink:href="#mbd0f4ae560" x="353.402088" y="312.24351" style="stroke: #000000; stroke-width: 0.8"/>
      </g>
     </g>
     <g id="text_17">
      <!-- 1200 -->
      <g transform="translate(340.677088 326.841947) scale(0.1 -0.1)">
       <use xlink:href="#DejaVuSans-31"/>
       <use xlink:href="#DejaVuSans-32" transform="translate(63.623047 0)"/>
       <use xlink:href="#DejaVuSans-30" transform="translate(127.246094 0)"/>
       <use xlink:href="#DejaVuSans-30" transform="translate(190.869141 0)"/>
      </g>
     </g>
    </g>
    <g id="xtick_7">
     <g id="line2d_51">
      <defs>
       <path id="maa7404bcb7" d="M 0 0 
L 0 2 
" style="stroke: #000000; stroke-width: 0.6"/>
      </defs>
      <g>
       <use xlink:href="#maa7404bcb7" x="53.307314" y="312.24351" style="stroke: #000000; stroke-width: 0.6"/>
      </g>
     </g>
    </g>
    <g id="xtick_8">
     <g id="line2d_52">
      <g>
       <use xlink:href="#maa7404bcb7" x="65.811263" y="312.24351" style="stroke: #000000; stroke-width: 0.6"/>
      </g>
     </g>
    </g>
    <g id="xtick_9">
     <g id="line2d_53">
      <g>
       <use xlink:href="#maa7404bcb7" x="78.315212" y="312.24351" style="stroke: #000000; stroke-width: 0.6"/>
      </g>
     </g>
    </g>
    <g id="xtick_10">
     <g id="line2d_54">
      <g>
       <use xlink:href="#maa7404bcb7" x="90.819161" y="312.24351" style="stroke: #000000; stroke-width: 0.6"/>
      </g>
     </g>
    </g>
    <g id="xtick_11">
     <g id="line2d_55">
      <g>
       <use xlink:href="#maa7404bcb7" x="115.827058" y="312.24351" style="stroke: #000000; stroke-width: 0.6"/>
      </g>
     </g>
    </g>
    <g id="xtick_12">
     <g id="line2d_56">
      <g>
       <use xlink:href="#maa7404bcb7" x="128.331007" y="312.24351" style="stroke: #000000; stroke-width: 0.6"/>
      </g>
     </g>
    </g>
    <g id="xtick_13">
     <g id="line2d_57">
      <g>
       <use xlink:href="#maa7404bcb7" x="140.834956" y="312.24351" style="stroke: #000000; stroke-width: 0.6"/>
      </g>
     </g>
    </g>
    <g id="xtick_14">
     <g id="line2d_58">
      <g>
       <use xlink:href="#maa7404bcb7" x="153.338905" y="312.24351" style="stroke: #000000; stroke-width: 0.6"/>
      </g>
     </g>
    </g>
    <g id="xtick_15">
     <g id="line2d_59">
      <g>
       <use xlink:href="#maa7404bcb7" x="178.346803" y="312.24351" style="stroke: #000000; stroke-width: 0.6"/>
      </g>
     </g>
    </g>
    <g id="xtick_16">
     <g id="line2d_60">
      <g>
       <use xlink:href="#maa7404bcb7" x="190.850752" y="312.24351" style="stroke: #000000; stroke-width: 0.6"/>
      </g>
     </g>
    </g>
    <g id="xtick_17">
     <g id="line2d_61">
      <g>
       <use xlink:href="#maa7404bcb7" x="203.354701" y="312.24351" style="stroke: #000000; stroke-width: 0.6"/>
      </g>
     </g>
    </g>
    <g id="xtick_18">
     <g id="line2d_62">
      <g>
       <use xlink:href="#maa7404bcb7" x="215.85865" y="312.24351" style="stroke: #000000; stroke-width: 0.6"/>
      </g>
     </g>
    </g>
    <g id="xtick_19">
     <g id="line2d_63">
      <g>
       <use xlink:href="#maa7404bcb7" x="240.866548" y="312.24351" style="stroke: #000000; stroke-width: 0.6"/>
      </g>
     </g>
    </g>
    <g id="xtick_20">
     <g id="line2d_64">
      <g>
       <use xlink:href="#maa7404bcb7" x="253.370497" y="312.24351" style="stroke: #000000; stroke-width: 0.6"/>
      </g>
     </g>
    </g>
    <g id="xtick_21">
     <g id="line2d_65">
      <g>
       <use xlink:href="#maa7404bcb7" x="265.874445" y="312.24351" style="stroke: #000000; stroke-width: 0.6"/>
      </g>
     </g>
    </g>
    <g id="xtick_22">
     <g id="line2d_66">
      <g>
       <use xlink:href="#maa7404bcb7" x="278.378394" y="312.24351" style="stroke: #000000; stroke-width: 0.6"/>
      </g>
     </g>
    </g>
    <g id="xtick_23">
     <g id="line2d_67">
      <g>
       <use xlink:href="#maa7404bcb7" x="303.386292" y="312.24351" style="stroke: #000000; stroke-width: 0.6"/>
      </g>
     </g>
    </g>
    <g id="xtick_24">
     <g id="line2d_68">
      <g>
       <use xlink:href="#maa7404bcb7" x="315.890241" y="312.24351" style="stroke: #000000; stroke-width: 0.6"/>
      </g>
     </g>
    </g>
    <g id="xtick_25">
     <g id="line2d_69">
      <g>
       <use xlink:href="#maa7404bcb7" x="328.39419" y="312.24351" style="stroke: #000000; stroke-width: 0.6"/>
      </g>
     </g>
    </g>
    <g id="xtick_26">
     <g id="line2d_70">
      <g>
       <use xlink:href="#maa7404bcb7" x="340.898139" y="312.24351" style="stroke: #000000; stroke-width: 0.6"/>
      </g>
     </g>
    </g>
    <g id="xtick_27">
     <g id="line2d_71">
      <g>
       <use xlink:href="#maa7404bcb7" x="365.906037" y="312.24351" style="stroke: #000000; stroke-width: 0.6"/>
      </g>
     </g>
    </g>
    <g id="xtick_28">
     <g id="line2d_72">
      <g>
       <use xlink:href="#maa7404bcb7" x="378.409986" y="312.24351" style="stroke: #000000; stroke-width: 0.6"/>
      </g>
     </g>
    </g>
    <g id="xtick_29">
     <g id="line2d_73">
      <g>
       <use xlink:href="#maa7404bcb7" x="390.913935" y="312.24351" style="stroke: #000000; stroke-width: 0.6"/>
      </g>
     </g>
    </g>
    <g id="xtick_30">
     <g id="line2d_74">
      <g>
       <use xlink:href="#maa7404bcb7" x="403.417883" y="312.24351" style="stroke: #000000; stroke-width: 0.6"/>
      </g>
     </g>
    </g>
    <g id="text_18">
     <!-- T[K] -->
     <g transform="translate(217.815625 340.520072) scale(0.1 -0.1)">
      <defs>
       <path id="DejaVuSans-54" d="M -19 4666 
L 3928 4666 
L 3928 4134 
L 2272 4134 
L 2272 0 
L 1638 0 
L 1638 4134 
L -19 4134 
L -19 4666 
z
" transform="scale(0.015625)"/>
       <path id="DejaVuSans-5b" d="M 550 4863 
L 1875 4863 
L 1875 4416 
L 1125 4416 
L 1125 -397 
L 1875 -397 
L 1875 -844 
L 550 -844 
L 550 4863 
z
" transform="scale(0.015625)"/>
       <path id="DejaVuSans-4b" d="M 628 4666 
L 1259 4666 
L 1259 2694 
L 3353 4666 
L 4166 4666 
L 1850 2491 
L 4331 0 
L 3500 0 
L 1259 2247 
L 1259 0 
L 628 0 
L 628 4666 
z
" transform="scale(0.015625)"/>
       <path id="DejaVuSans-5d" d="M 1947 4863 
L 1947 -844 
L 622 -844 
L 622 -397 
L 1369 -397 
L 1369 4416 
L 622 4416 
L 622 4863 
L 1947 4863 
z
" transform="scale(0.015625)"/>
      </defs>
      <use xlink:href="#DejaVuSans-54"/>
      <use xlink:href="#DejaVuSans-5b" transform="translate(61.083984 0)"/>
      <use xlink:href="#DejaVuSans-4b" transform="translate(100.097656 0)"/>
      <use xlink:href="#DejaVuSans-5d" transform="translate(165.673828 0)"/>
     </g>
    </g>
   </g>
   <g id="matplotlib.axis_4">
    <g id="ytick_45">
     <g id="line2d_75">
      <defs>
       <path id="m0db926d0fa" d="M 0 0 
L -3.5 0 
" style="stroke: #000000; stroke-width: 0.8"/>
      </defs>
      <g>
       <use xlink:href="#m0db926d0fa" x="40.803365" y="312.24351" style="stroke: #000000; stroke-width: 0.8"/>
      </g>
     </g>
     <g id="text_19">
      <!-- 0.0 -->
      <g transform="translate(17.90024 316.042729) scale(0.1 -0.1)">
       <use xlink:href="#DejaVuSans-30"/>
       <use xlink:href="#DejaVuSans-2e" transform="translate(63.623047 0)"/>
       <use xlink:href="#DejaVuSans-30" transform="translate(95.410156 0)"/>
      </g>
     </g>
    </g>
    <g id="ytick_46">
     <g id="line2d_76">
      <g>
       <use xlink:href="#m0db926d0fa" x="40.803365" y="277.693523" style="stroke: #000000; stroke-width: 0.8"/>
      </g>
     </g>
     <g id="text_20">
      <!-- 0.2 -->
      <g transform="translate(17.90024 281.492742) scale(0.1 -0.1)">
       <use xlink:href="#DejaVuSans-30"/>
       <use xlink:href="#DejaVuSans-2e" transform="translate(63.623047 0)"/>
       <use xlink:href="#DejaVuSans-32" transform="translate(95.410156 0)"/>
      </g>
     </g>
    </g>
    <g id="ytick_47">
     <g id="line2d_77">
      <g>
       <use xlink:href="#m0db926d0fa" x="40.803365" y="243.143536" style="stroke: #000000; stroke-width: 0.8"/>
      </g>
     </g>
     <g id="text_21">
      <!-- 0.4 -->
      <g transform="translate(17.90024 246.942755) scale(0.1 -0.1)">
       <use xlink:href="#DejaVuSans-30"/>
       <use xlink:href="#DejaVuSans-2e" transform="translate(63.623047 0)"/>
       <use xlink:href="#DejaVuSans-34" transform="translate(95.410156 0)"/>
      </g>
     </g>
    </g>
    <g id="ytick_48">
     <g id="line2d_78">
      <g>
       <use xlink:href="#m0db926d0fa" x="40.803365" y="208.59355" style="stroke: #000000; stroke-width: 0.8"/>
      </g>
     </g>
     <g id="text_22">
      <!-- 0.6 -->
      <g transform="translate(17.90024 212.392768) scale(0.1 -0.1)">
       <use xlink:href="#DejaVuSans-30"/>
       <use xlink:href="#DejaVuSans-2e" transform="translate(63.623047 0)"/>
       <use xlink:href="#DejaVuSans-36" transform="translate(95.410156 0)"/>
      </g>
     </g>
    </g>
    <g id="ytick_49">
     <g id="line2d_79">
      <g>
       <use xlink:href="#m0db926d0fa" x="40.803365" y="174.043563" style="stroke: #000000; stroke-width: 0.8"/>
      </g>
     </g>
     <g id="text_23">
      <!-- 0.8 -->
      <g transform="translate(17.90024 177.842782) scale(0.1 -0.1)">
       <use xlink:href="#DejaVuSans-30"/>
       <use xlink:href="#DejaVuSans-2e" transform="translate(63.623047 0)"/>
       <use xlink:href="#DejaVuSans-38" transform="translate(95.410156 0)"/>
      </g>
     </g>
    </g>
    <g id="ytick_50">
     <g id="line2d_80">
      <g>
       <use xlink:href="#m0db926d0fa" x="40.803365" y="139.493576" style="stroke: #000000; stroke-width: 0.8"/>
      </g>
     </g>
     <g id="text_24">
      <!-- 1.0 -->
      <g transform="translate(17.90024 143.292795) scale(0.1 -0.1)">
       <use xlink:href="#DejaVuSans-31"/>
       <use xlink:href="#DejaVuSans-2e" transform="translate(63.623047 0)"/>
       <use xlink:href="#DejaVuSans-30" transform="translate(95.410156 0)"/>
      </g>
     </g>
    </g>
    <g id="ytick_51">
     <g id="line2d_81">
      <g>
       <use xlink:href="#m0db926d0fa" x="40.803365" y="104.943589" style="stroke: #000000; stroke-width: 0.8"/>
      </g>
     </g>
     <g id="text_25">
      <!-- 1.2 -->
      <g transform="translate(17.90024 108.742808) scale(0.1 -0.1)">
       <use xlink:href="#DejaVuSans-31"/>
       <use xlink:href="#DejaVuSans-2e" transform="translate(63.623047 0)"/>
       <use xlink:href="#DejaVuSans-32" transform="translate(95.410156 0)"/>
      </g>
     </g>
    </g>
    <g id="ytick_52">
     <g id="line2d_82">
      <g>
       <use xlink:href="#m0db926d0fa" x="40.803365" y="70.393603" style="stroke: #000000; stroke-width: 0.8"/>
      </g>
     </g>
     <g id="text_26">
      <!-- 1.4 -->
      <g transform="translate(17.90024 74.192821) scale(0.1 -0.1)">
       <use xlink:href="#DejaVuSans-31"/>
       <use xlink:href="#DejaVuSans-2e" transform="translate(63.623047 0)"/>
       <use xlink:href="#DejaVuSans-34" transform="translate(95.410156 0)"/>
      </g>
     </g>
    </g>
    <g id="ytick_53">
     <g id="line2d_83">
      <g>
       <use xlink:href="#m0db926d0fa" x="40.803365" y="35.843616" style="stroke: #000000; stroke-width: 0.8"/>
      </g>
     </g>
     <g id="text_27">
      <!-- 1.6 -->
      <g transform="translate(17.90024 39.642835) scale(0.1 -0.1)">
       <use xlink:href="#DejaVuSans-31"/>
       <use xlink:href="#DejaVuSans-2e" transform="translate(63.623047 0)"/>
       <use xlink:href="#DejaVuSans-36" transform="translate(95.410156 0)"/>
      </g>
     </g>
    </g>
    <g id="ytick_54">
     <g id="line2d_84">
      <defs>
       <path id="m87fed519ef" d="M 0 0 
L -2 0 
" style="stroke: #000000; stroke-width: 0.6"/>
      </defs>
      <g>
       <use xlink:href="#m87fed519ef" x="40.803365" y="303.606013" style="stroke: #000000; stroke-width: 0.6"/>
      </g>
     </g>
    </g>
    <g id="ytick_55">
     <g id="line2d_85">
      <g>
       <use xlink:href="#m87fed519ef" x="40.803365" y="294.968517" style="stroke: #000000; stroke-width: 0.6"/>
      </g>
     </g>
    </g>
    <g id="ytick_56">
     <g id="line2d_86">
      <g>
       <use xlink:href="#m87fed519ef" x="40.803365" y="286.33102" style="stroke: #000000; stroke-width: 0.6"/>
      </g>
     </g>
    </g>
    <g id="ytick_57">
     <g id="line2d_87">
      <g>
       <use xlink:href="#m87fed519ef" x="40.803365" y="269.056027" style="stroke: #000000; stroke-width: 0.6"/>
      </g>
     </g>
    </g>
    <g id="ytick_58">
     <g id="line2d_88">
      <g>
       <use xlink:href="#m87fed519ef" x="40.803365" y="260.41853" style="stroke: #000000; stroke-width: 0.6"/>
      </g>
     </g>
    </g>
    <g id="ytick_59">
     <g id="line2d_89">
      <g>
       <use xlink:href="#m87fed519ef" x="40.803365" y="251.781033" style="stroke: #000000; stroke-width: 0.6"/>
      </g>
     </g>
    </g>
    <g id="ytick_60">
     <g id="line2d_90">
      <g>
       <use xlink:href="#m87fed519ef" x="40.803365" y="234.50604" style="stroke: #000000; stroke-width: 0.6"/>
      </g>
     </g>
    </g>
    <g id="ytick_61">
     <g id="line2d_91">
      <g>
       <use xlink:href="#m87fed519ef" x="40.803365" y="225.868543" style="stroke: #000000; stroke-width: 0.6"/>
      </g>
     </g>
    </g>
    <g id="ytick_62">
     <g id="line2d_92">
      <g>
       <use xlink:href="#m87fed519ef" x="40.803365" y="217.231046" style="stroke: #000000; stroke-width: 0.6"/>
      </g>
     </g>
    </g>
    <g id="ytick_63">
     <g id="line2d_93">
      <g>
       <use xlink:href="#m87fed519ef" x="40.803365" y="199.956053" style="stroke: #000000; stroke-width: 0.6"/>
      </g>
     </g>
    </g>
    <g id="ytick_64">
     <g id="line2d_94">
      <g>
       <use xlink:href="#m87fed519ef" x="40.803365" y="191.318556" style="stroke: #000000; stroke-width: 0.6"/>
      </g>
     </g>
    </g>
    <g id="ytick_65">
     <g id="line2d_95">
      <g>
       <use xlink:href="#m87fed519ef" x="40.803365" y="182.68106" style="stroke: #000000; stroke-width: 0.6"/>
      </g>
     </g>
    </g>
    <g id="ytick_66">
     <g id="line2d_96">
      <g>
       <use xlink:href="#m87fed519ef" x="40.803365" y="165.406066" style="stroke: #000000; stroke-width: 0.6"/>
      </g>
     </g>
    </g>
    <g id="ytick_67">
     <g id="line2d_97">
      <g>
       <use xlink:href="#m87fed519ef" x="40.803365" y="156.76857" style="stroke: #000000; stroke-width: 0.6"/>
      </g>
     </g>
    </g>
    <g id="ytick_68">
     <g id="line2d_98">
      <g>
       <use xlink:href="#m87fed519ef" x="40.803365" y="148.131073" style="stroke: #000000; stroke-width: 0.6"/>
      </g>
     </g>
    </g>
    <g id="ytick_69">
     <g id="line2d_99">
      <g>
       <use xlink:href="#m87fed519ef" x="40.803365" y="130.856079" style="stroke: #000000; stroke-width: 0.6"/>
      </g>
     </g>
    </g>
    <g id="ytick_70">
     <g id="line2d_100">
      <g>
       <use xlink:href="#m87fed519ef" x="40.803365" y="122.218583" style="stroke: #000000; stroke-width: 0.6"/>
      </g>
     </g>
    </g>
    <g id="ytick_71">
     <g id="line2d_101">
      <g>
       <use xlink:href="#m87fed519ef" x="40.803365" y="113.581086" style="stroke: #000000; stroke-width: 0.6"/>
      </g>
     </g>
    </g>
    <g id="ytick_72">
     <g id="line2d_102">
      <g>
       <use xlink:href="#m87fed519ef" x="40.803365" y="96.306093" style="stroke: #000000; stroke-width: 0.6"/>
      </g>
     </g>
    </g>
    <g id="ytick_73">
     <g id="line2d_103">
      <g>
       <use xlink:href="#m87fed519ef" x="40.803365" y="87.668596" style="stroke: #000000; stroke-width: 0.6"/>
      </g>
     </g>
    </g>
    <g id="ytick_74">
     <g id="line2d_104">
      <g>
       <use xlink:href="#m87fed519ef" x="40.803365" y="79.031099" style="stroke: #000000; stroke-width: 0.6"/>
      </g>
     </g>
    </g>
    <g id="ytick_75">
     <g id="line2d_105">
      <g>
       <use xlink:href="#m87fed519ef" x="40.803365" y="61.756106" style="stroke: #000000; stroke-width: 0.6"/>
      </g>
     </g>
    </g>
    <g id="ytick_76">
     <g id="line2d_106">
      <g>
       <use xlink:href="#m87fed519ef" x="40.803365" y="53.118609" style="stroke: #000000; stroke-width: 0.6"/>
      </g>
     </g>
    </g>
    <g id="ytick_77">
     <g id="line2d_107">
      <g>
       <use xlink:href="#m87fed519ef" x="40.803365" y="44.481113" style="stroke: #000000; stroke-width: 0.6"/>
      </g>
     </g>
    </g>
    <g id="ytick_78">
     <g id="line2d_108">
      <g>
       <use xlink:href="#m87fed519ef" x="40.803365" y="27.206119" style="stroke: #000000; stroke-width: 0.6"/>
      </g>
     </g>
    </g>
    <g id="ytick_79">
     <g id="line2d_109">
      <g>
       <use xlink:href="#m87fed519ef" x="40.803365" y="18.568622" style="stroke: #000000; stroke-width: 0.6"/>
      </g>
     </g>
    </g>
    <g id="text_28">
     <!-- $[V'''_{La}]_{eq}=x_{eq}$ -->
     <g transform="translate(10.80024 196.071094) rotate(-90) scale(0.1 -0.1)">
      <defs>
       <path id="DejaVuSans-Oblique-56" d="M 1319 0 
L 500 4666 
L 1119 4666 
L 1797 653 
L 4063 4666 
L 4750 4666 
L 2053 0 
L 1319 0 
z
" transform="scale(0.015625)"/>
       <path id="Cmsy10-30" d="M 225 347 
Q 184 359 184 409 
L 966 3316 
Q 1003 3434 1093 3506 
Q 1184 3578 1300 3578 
Q 1450 3578 1564 3479 
Q 1678 3381 1678 3231 
Q 1678 3166 1644 3084 
L 488 319 
Q 466 275 428 275 
Q 394 275 320 306 
Q 247 338 225 347 
z
" transform="scale(0.015625)"/>
       <path id="DejaVuSans-Oblique-4c" d="M 1075 4666 
L 1709 4666 
L 909 525 
L 3181 525 
L 3078 0 
L 172 0 
L 1075 4666 
z
" transform="scale(0.015625)"/>
       <path id="DejaVuSans-Oblique-61" d="M 3438 1997 
L 3047 0 
L 2472 0 
L 2578 531 
Q 2325 219 2001 64 
Q 1678 -91 1281 -91 
Q 834 -91 548 182 
Q 263 456 263 884 
Q 263 1497 752 1853 
Q 1241 2209 2100 2209 
L 2900 2209 
L 2931 2363 
Q 2938 2388 2941 2417 
Q 2944 2447 2944 2509 
Q 2944 2788 2717 2942 
Q 2491 3097 2081 3097 
Q 1800 3097 1504 3025 
Q 1209 2953 897 2809 
L 997 3341 
Q 1322 3463 1633 3523 
Q 1944 3584 2234 3584 
Q 2853 3584 3176 3315 
Q 3500 3047 3500 2534 
Q 3500 2431 3484 2292 
Q 3469 2153 3438 1997 
z
M 2816 1759 
L 2241 1759 
Q 1534 1759 1195 1570 
Q 856 1381 856 984 
Q 856 709 1029 553 
Q 1203 397 1509 397 
Q 1978 397 2328 733 
Q 2678 1069 2791 1631 
L 2816 1759 
z
" transform="scale(0.015625)"/>
       <path id="DejaVuSans-3d" d="M 678 2906 
L 4684 2906 
L 4684 2381 
L 678 2381 
L 678 2906 
z
M 678 1631 
L 4684 1631 
L 4684 1100 
L 678 1100 
L 678 1631 
z
" transform="scale(0.015625)"/>
      </defs>
      <use xlink:href="#DejaVuSans-5b" transform="translate(0 0.584375)"/>
      <use xlink:href="#DejaVuSans-Oblique-56" transform="translate(39.013672 0.584375)"/>
      <use xlink:href="#Cmsy10-30" transform="translate(114.438646 38.865625) scale(0.7)"/>
      <use xlink:href="#Cmsy10-30" transform="translate(133.68181 38.865625) scale(0.7)"/>
      <use xlink:href="#Cmsy10-30" transform="translate(152.924974 38.865625) scale(0.7)"/>
      <use xlink:href="#DejaVuSans-Oblique-4c" transform="translate(175.859544 -15.821875) scale(0.7)"/>
      <use xlink:href="#DejaVuSans-Oblique-61" transform="translate(214.858568 -15.821875) scale(0.7)"/>
      <use xlink:href="#DejaVuSans-5d" transform="translate(260.488451 0.584375)"/>
      <use xlink:href="#DejaVuSans-Oblique-65" transform="translate(300.459154 -15.821875) scale(0.7)"/>
      <use xlink:href="#DejaVuSans-Oblique-71" transform="translate(343.52556 -15.821875) scale(0.7)"/>
      <use xlink:href="#DejaVuSans-3d" transform="translate(410.175951 0.584375)"/>
      <use xlink:href="#DejaVuSans-Oblique-78" transform="translate(513.447435 0.584375)"/>
      <use xlink:href="#DejaVuSans-Oblique-65" transform="translate(572.627122 -15.821875) scale(0.7)"/>
      <use xlink:href="#DejaVuSans-Oblique-71" transform="translate(615.693529 -15.821875) scale(0.7)"/>
     </g>
    </g>
    <g id="text_29">
     <!-- 1e−8 -->
     <g transform="translate(40.803365 10.598678) scale(0.1 -0.1)">
      <use xlink:href="#DejaVuSans-31"/>
      <use xlink:href="#DejaVuSans-65" transform="translate(63.623047 0)"/>
      <use xlink:href="#DejaVuSans-2212" transform="translate(125.146484 0)"/>
      <use xlink:href="#DejaVuSans-38" transform="translate(208.935547 0)"/>
     </g>
    </g>
   </g>
   <g id="line2d_110">
    <path d="M 40.803365 309.995393 
L 58.934091 309.082395 
L 75.814422 308.012914 
L 92.069556 306.759105 
L 107.699492 305.326733 
L 122.70423 303.726719 
L 137.083772 301.974291 
L 151.463313 299.997351 
L 165.217657 297.888625 
L 178.972 295.561092 
L 192.726344 293.010384 
L 206.480688 290.233549 
L 220.235032 287.229027 
L 233.989376 283.996585 
L 247.74372 280.537261 
L 261.498063 276.853287 
L 275.877605 272.765295 
L 290.257146 268.440422 
L 304.636687 263.884762 
L 319.641426 258.892635 
L 334.646164 253.665955 
L 350.276101 247.98277 
L 366.531234 241.826636 
L 382.786368 235.43424 
L 399.666699 228.561985 
L 414.671438 222.266982 
L 414.671438 222.266982 
" clip-path="url(#p5ecec29a47)" style="fill: none; stroke: #1f77b4; stroke-width: 1.5; stroke-linecap: square"/>
   </g>
   <g id="line2d_111">
    <path d="M 40.803365 309.064193 
L 55.808104 308.01908 
L 70.187645 306.800278 
L 83.941989 305.414748 
L 97.071135 303.874605 
L 110.200281 302.106774 
L 122.70423 300.198949 
L 135.208179 298.061628 
L 147.086931 295.810086 
L 158.965682 293.336092 
L 170.844434 290.63386 
L 182.723185 287.698727 
L 194.601937 284.527157 
L 206.480688 281.116727 
L 218.35944 277.466095 
L 230.238191 273.574975 
L 242.116943 269.444082 
L 253.995694 265.075091 
L 265.874445 260.470572 
L 277.753197 255.633936 
L 290.257146 250.29659 
L 302.761095 244.712431 
L 315.265044 238.887986 
L 328.39419 232.521628 
L 341.523336 225.907442 
L 355.27768 218.723133 
L 369.032024 211.28944 
L 383.411565 203.264713 
L 398.416304 194.630918 
L 414.04624 185.373135 
L 414.671438 184.997489 
L 414.671438 184.997489 
" clip-path="url(#p5ecec29a47)" style="fill: none; stroke: #ff7f0e; stroke-width: 1.5; stroke-linecap: square"/>
   </g>
   <g id="line2d_112">
    <path d="M 40.803365 308.349658 
L 54.557709 307.186739 
L 67.686855 305.856482 
L 80.190804 304.370258 
L 92.069556 302.744242 
L 103.948307 300.89549 
L 115.201861 298.926887 
L 126.455415 296.736757 
L 137.708969 294.316024 
L 148.337326 291.810773 
L 158.965682 289.086746 
L 169.594039 286.13892 
L 180.222395 282.963151 
L 190.850752 279.556182 
L 201.479109 275.915631 
L 212.107465 272.039978 
L 222.735822 267.928539 
L 233.364178 263.581436 
L 243.992535 258.999571 
L 254.620891 254.184583 
L 265.874445 248.83487 
L 277.127999 243.230004 
L 288.381553 237.374325 
L 299.635108 231.272879 
L 311.513859 224.572136 
L 323.39261 217.611309 
L 335.271362 210.398442 
L 347.775311 202.543146 
L 360.27926 194.428779 
L 373.408406 185.642086 
L 387.16275 176.158463 
L 400.917094 166.405537 
L 414.671438 156.399603 
L 414.671438 156.399603 
" clip-path="url(#p5ecec29a47)" style="fill: none; stroke: #2ca02c; stroke-width: 1.5; stroke-linecap: square"/>
   </g>
   <g id="line2d_113">
    <path d="M 40.803365 307.747277 
L 53.932511 306.471201 
L 66.43646 305.026076 
L 78.315212 303.426247 
L 89.568766 301.690829 
L 100.82232 299.727516 
L 111.450676 297.652385 
L 122.079033 295.352422 
L 132.70739 292.818449 
L 142.710549 290.212368 
L 152.713708 287.385586 
L 162.716867 284.332798 
L 172.720026 281.049488 
L 182.723185 277.531945 
L 192.726344 273.777258 
L 202.729503 269.783307 
L 212.732663 265.548747 
L 222.735822 261.072989 
L 232.738981 256.356177 
L 242.74214 251.399155 
L 252.745299 246.20344 
L 263.373656 240.423878 
L 274.002012 234.380621 
L 284.630369 228.077711 
L 295.258725 221.519854 
L 306.512279 214.304277 
L 317.765833 206.815839 
L 329.019387 199.062167 
L 340.898139 190.599047 
L 352.77689 181.859766 
L 365.280839 172.37402 
L 377.784788 162.607313 
L 390.913935 152.064716 
L 404.668278 140.721449 
L 414.671438 132.290471 
L 414.671438 132.290471 
" clip-path="url(#p5ecec29a47)" style="fill: none; stroke: #d62728; stroke-width: 1.5; stroke-linecap: square"/>
   </g>
   <g id="line2d_114">
    <path d="M 40.803365 307.216568 
L 53.307314 305.86387 
L 65.186065 304.347712 
L 76.439619 302.685183 
L 87.067976 300.897913 
L 97.696333 298.886346 
L 107.699492 296.777129 
L 117.702651 294.44865 
L 127.70581 291.892041 
L 137.708969 289.099226 
L 147.712128 286.06296 
L 157.09009 282.989677 
L 166.468052 279.692261 
L 175.846013 276.166857 
L 185.223975 272.410298 
L 194.601937 268.420109 
L 203.979898 264.194496 
L 213.35786 259.732328 
L 222.735822 255.03313 
L 232.113783 250.097051 
L 242.116943 244.571675 
L 252.120102 238.779306 
L 262.123261 232.722309 
L 272.12642 226.403722 
L 282.129579 219.827223 
L 292.132738 212.997072 
L 302.761095 205.467504 
L 313.389451 197.663418 
L 324.017808 189.591791 
L 335.271362 180.762097 
L 346.524916 171.650352 
L 358.403667 161.737454 
L 370.282419 151.533722 
L 382.786368 140.492778 
L 395.290317 129.159039 
L 408.419463 116.960671 
L 414.671438 111.049902 
L 414.671438 111.049902 
" clip-path="url(#p5ecec29a47)" style="fill: none; stroke: #9467bd; stroke-width: 1.5; stroke-linecap: square"/>
   </g>
   <g id="line2d_115">
    <path d="M 40.803365 306.736771 
L 52.682116 305.335339 
L 63.93567 303.781216 
L 74.564027 302.093957 
L 85.192384 300.17799 
L 95.195543 298.152793 
L 105.198702 295.90069 
L 115.201861 293.410961 
L 124.579823 290.852186 
L 133.957784 288.068329 
L 143.335746 285.052592 
L 152.713708 281.798896 
L 162.091669 278.301908 
L 171.469631 274.557048 
L 180.847593 270.560496 
L 190.225555 266.309187 
L 199.603516 261.800808 
L 208.981478 257.033784 
L 218.35944 252.007262 
L 227.737401 246.721091 
L 237.115363 241.175794 
L 246.493325 235.372548 
L 255.871286 229.313149 
L 265.249248 222.999985 
L 275.252407 215.989568 
L 285.255566 208.698011 
L 295.258725 201.13018 
L 305.261885 193.291521 
L 315.890241 184.672904 
L 326.518598 175.763095 
L 337.146954 166.570438 
L 348.400508 156.538576 
L 359.654062 146.210562 
L 371.532814 135.000202 
L 383.411565 123.486714 
L 395.915514 111.055638 
L 409.044661 97.677563 
L 414.671438 91.846959 
L 414.671438 91.846959 
" clip-path="url(#p5ecec29a47)" style="fill: none; stroke: #8c564b; stroke-width: 1.5; stroke-linecap: square"/>
   </g>
   <g id="line2d_116">
    <path d="M 40.803365 306.295553 
L 52.056919 304.867913 
L 62.685276 303.302108 
L 73.313632 301.507656 
L 83.316791 299.595115 
L 93.31995 297.45225 
L 102.697912 295.223009 
L 112.075874 292.77065 
L 121.453835 290.086132 
L 130.831797 287.161116 
L 139.584561 284.207402 
L 148.337326 281.03199 
L 157.09009 277.629908 
L 165.842854 273.996803 
L 174.595618 270.128943 
L 183.348383 266.023215 
L 192.101147 261.677129 
L 200.853911 257.088804 
L 209.606675 252.256966 
L 218.35944 247.180926 
L 227.112204 241.860575 
L 236.490165 235.889597 
L 245.868127 229.639896 
L 255.246089 223.113368 
L 264.624051 216.312554 
L 274.002012 209.240592 
L 283.379974 201.901196 
L 293.383133 193.782526 
L 303.386292 185.370181 
L 313.389451 176.67052 
L 324.017808 167.120043 
L 334.646164 157.261883 
L 345.274521 147.105471 
L 356.528075 136.03757 
L 367.781629 124.658718 
L 379.660381 112.324461 
L 391.539132 99.673408 
L 404.043081 86.031668 
L 414.671438 74.188032 
L 414.671438 74.188032 
" clip-path="url(#p5ecec29a47)" style="fill: none; stroke: #e377c2; stroke-width: 1.5; stroke-linecap: square"/>
   </g>
   <g id="line2d_117">
    <path d="M 40.803365 305.884876 
L 51.431722 304.449905 
L 62.060078 302.789806 
L 72.063237 301.005355 
L 82.066396 298.990565 
L 91.444358 296.879898 
L 100.82232 294.543221 
L 110.200281 291.970039 
L 118.953046 289.34636 
L 127.70581 286.500713 
L 136.458574 283.426295 
L 145.211338 280.116924 
L 153.964103 276.567058 
L 162.716867 272.771803 
L 171.469631 268.726933 
L 180.222395 264.428884 
L 188.97516 259.874756 
L 197.727924 255.062307 
L 206.480688 249.989945 
L 215.233452 244.656713 
L 223.986217 239.062272 
L 232.738981 233.206887 
L 241.491745 227.091399 
L 250.244509 220.717207 
L 259.622471 213.60284 
L 269.000433 206.196735 
L 278.378394 198.502541 
L 287.756356 190.524497 
L 297.134318 182.267391 
L 307.137477 173.158205 
L 317.140636 163.744566 
L 327.143795 154.034052 
L 337.772152 143.400386 
L 348.400508 132.450944 
L 359.654062 120.52518 
L 370.907616 108.270738 
L 382.786368 94.994119 
L 394.665119 81.383249 
L 407.169068 66.713622 
L 414.671438 57.751504 
L 414.671438 57.751504 
" clip-path="url(#p5ecec29a47)" style="fill: none; stroke: #7f7f7f; stroke-width: 1.5; stroke-linecap: square"/>
   </g>
   <g id="line2d_118">
    <path d="M 40.803365 305.49916 
L 51.431722 303.977144 
L 61.434881 302.326878 
L 71.43804 300.448938 
L 80.816002 298.467646 
L 90.193963 296.260032 
L 99.571925 293.814232 
L 108.324689 291.306679 
L 117.077453 288.573298 
L 125.830218 285.606113 
L 134.582982 282.397771 
L 143.335746 278.941573 
L 152.08851 275.231491 
L 160.841275 271.262191 
L 168.968841 267.34024 
L 177.096408 263.187608 
L 185.223975 258.801649 
L 193.351542 254.180242 
L 202.104306 248.938199 
L 210.85707 243.419884 
L 219.609834 237.624615 
L 228.362599 231.552355 
L 237.115363 225.20369 
L 245.868127 218.579817 
L 254.620891 211.682502 
L 263.373656 204.514066 
L 272.751617 196.53598 
L 282.129579 188.254054 
L 291.507541 179.673024 
L 300.885502 170.798191 
L 310.888662 161.014439 
L 320.891821 150.910715 
L 330.89498 140.495259 
L 341.523336 129.097073 
L 352.151693 117.367921 
L 363.405247 104.600941 
L 374.658801 91.490157 
L 386.537552 77.294293 
L 398.416304 62.749563 
L 410.920253 47.082384 
L 414.671438 42.313979 
L 414.671438 42.313979 
" clip-path="url(#p5ecec29a47)" style="fill: none; stroke: #bcbd22; stroke-width: 1.5; stroke-linecap: square"/>
   </g>
   <g id="line2d_119">
    <path d="M 40.803365 305.134341 
L 51.431722 303.529996 
L 61.434881 301.790463 
L 70.812842 299.942006 
L 80.190804 297.868985 
L 89.568766 295.558256 
L 98.32153 293.17603 
L 107.074294 290.566123 
L 115.827058 287.719421 
L 124.579823 284.62743 
L 132.70739 281.529793 
L 140.834956 278.20813 
L 148.962523 274.657211 
L 157.09009 270.872342 
L 165.217657 266.84938 
L 173.345223 262.584728 
L 181.47279 258.075346 
L 189.600357 253.318746 
L 197.727924 248.312982 
L 205.855491 243.05665 
L 213.983057 237.548873 
L 222.110624 231.789289 
L 230.863388 225.305228 
L 239.616153 218.530109 
L 248.368917 211.465365 
L 257.121681 204.113029 
L 265.874445 196.475708 
L 274.62721 188.556553 
L 284.005171 179.763161 
L 293.383133 170.655556 
L 302.761095 161.239442 
L 312.139056 151.521063 
L 322.142216 140.829242 
L 332.145375 129.809953 
L 342.148534 118.472486 
L 352.77689 106.088727 
L 363.405247 93.369027 
L 374.658801 79.549047 
L 385.912355 65.382193 
L 397.791106 50.069582 
L 410.295055 33.573704 
L 414.671438 27.712807 
L 414.671438 27.712807 
" clip-path="url(#p5ecec29a47)" style="fill: none; stroke: #17becf; stroke-width: 1.5; stroke-linecap: square"/>
   </g>
   <g id="patch_5">
    <path d="M 40.803365 312.24351 
L 40.803365 13.598678 
" style="fill: none; stroke: #000000; stroke-width: 0.8; stroke-linejoin: miter; stroke-linecap: square"/>
   </g>
   <g id="patch_6">
    <path d="M 415.296635 312.24351 
L 415.296635 13.598678 
" style="fill: none; stroke: #000000; stroke-width: 0.8; stroke-linejoin: miter; stroke-linecap: square"/>
   </g>
   <g id="patch_7">
    <path d="M 40.803365 312.24351 
L 415.296635 312.24351 
" style="fill: none; stroke: #000000; stroke-width: 0.8; stroke-linejoin: miter; stroke-linecap: square"/>
   </g>
   <g id="patch_8">
    <path d="M 40.803365 13.598678 
L 415.296635 13.598678 
" style="fill: none; stroke: #000000; stroke-width: 0.8; stroke-linejoin: miter; stroke-linecap: square"/>
   </g>
   <g id="legend_1">
    <g id="patch_9">
     <path d="M 47.803365 168.379927 
L 129.904927 168.379927 
Q 131.904927 168.379927 131.904927 166.379927 
L 131.904927 20.598678 
Q 131.904927 18.598678 129.904927 18.598678 
L 47.803365 18.598678 
Q 45.803365 18.598678 45.803365 20.598678 
L 45.803365 166.379927 
Q 45.803365 168.379927 47.803365 168.379927 
L 47.803365 168.379927 
z
" style="fill: none; opacity: 0.8; stroke: #cccccc; stroke-linejoin: miter"/>
    </g>
    <g id="line2d_120">
     <path d="M 49.803365 26.697115 
L 59.803365 26.697115 
L 69.803365 26.697115 
" style="fill: none; stroke: #1f77b4; stroke-width: 1.5; stroke-linecap: square"/>
    </g>
    <g id="text_30">
     <!-- P=3 atm -->
     <g transform="translate(77.803365 30.197115) scale(0.1 -0.1)">
      <defs>
       <path id="DejaVuSans-50" d="M 1259 4147 
L 1259 2394 
L 2053 2394 
Q 2494 2394 2734 2622 
Q 2975 2850 2975 3272 
Q 2975 3691 2734 3919 
Q 2494 4147 2053 4147 
L 1259 4147 
z
M 628 4666 
L 2053 4666 
Q 2838 4666 3239 4311 
Q 3641 3956 3641 3272 
Q 3641 2581 3239 2228 
Q 2838 1875 2053 1875 
L 1259 1875 
L 1259 0 
L 628 0 
L 628 4666 
z
" transform="scale(0.015625)"/>
       <path id="DejaVuSans-6d" d="M 3328 2828 
Q 3544 3216 3844 3400 
Q 4144 3584 4550 3584 
Q 5097 3584 5394 3201 
Q 5691 2819 5691 2113 
L 5691 0 
L 5113 0 
L 5113 2094 
Q 5113 2597 4934 2840 
Q 4756 3084 4391 3084 
Q 3944 3084 3684 2787 
Q 3425 2491 3425 1978 
L 3425 0 
L 2847 0 
L 2847 2094 
Q 2847 2600 2669 2842 
Q 2491 3084 2119 3084 
Q 1678 3084 1418 2786 
Q 1159 2488 1159 1978 
L 1159 0 
L 581 0 
L 581 3500 
L 1159 3500 
L 1159 2956 
Q 1356 3278 1631 3431 
Q 1906 3584 2284 3584 
Q 2666 3584 2933 3390 
Q 3200 3197 3328 2828 
z
" transform="scale(0.015625)"/>
      </defs>
      <use xlink:href="#DejaVuSans-50"/>
      <use xlink:href="#DejaVuSans-3d" transform="translate(60.302734 0)"/>
      <use xlink:href="#DejaVuSans-33" transform="translate(144.091797 0)"/>
      <use xlink:href="#DejaVuSans-20" transform="translate(207.714844 0)"/>
      <use xlink:href="#DejaVuSans-61" transform="translate(239.501953 0)"/>
      <use xlink:href="#DejaVuSans-74" transform="translate(300.78125 0)"/>
      <use xlink:href="#DejaVuSans-6d" transform="translate(339.990234 0)"/>
     </g>
    </g>
    <g id="line2d_121">
     <path d="M 49.803365 41.37524 
L 59.803365 41.37524 
L 69.803365 41.37524 
" style="fill: none; stroke: #ff7f0e; stroke-width: 1.5; stroke-linecap: square"/>
    </g>
    <g id="text_31">
     <!-- P=6 atm -->
     <g transform="translate(77.803365 44.87524) scale(0.1 -0.1)">
      <use xlink:href="#DejaVuSans-50"/>
      <use xlink:href="#DejaVuSans-3d" transform="translate(60.302734 0)"/>
      <use xlink:href="#DejaVuSans-36" transform="translate(144.091797 0)"/>
      <use xlink:href="#DejaVuSans-20" transform="translate(207.714844 0)"/>
      <use xlink:href="#DejaVuSans-61" transform="translate(239.501953 0)"/>
      <use xlink:href="#DejaVuSans-74" transform="translate(300.78125 0)"/>
      <use xlink:href="#DejaVuSans-6d" transform="translate(339.990234 0)"/>
     </g>
    </g>
    <g id="line2d_122">
     <path d="M 49.803365 56.053365 
L 59.803365 56.053365 
L 69.803365 56.053365 
" style="fill: none; stroke: #2ca02c; stroke-width: 1.5; stroke-linecap: square"/>
    </g>
    <g id="text_32">
     <!-- P=9 atm -->
     <g transform="translate(77.803365 59.553365) scale(0.1 -0.1)">
      <use xlink:href="#DejaVuSans-50"/>
      <use xlink:href="#DejaVuSans-3d" transform="translate(60.302734 0)"/>
      <use xlink:href="#DejaVuSans-39" transform="translate(144.091797 0)"/>
      <use xlink:href="#DejaVuSans-20" transform="translate(207.714844 0)"/>
      <use xlink:href="#DejaVuSans-61" transform="translate(239.501953 0)"/>
      <use xlink:href="#DejaVuSans-74" transform="translate(300.78125 0)"/>
      <use xlink:href="#DejaVuSans-6d" transform="translate(339.990234 0)"/>
     </g>
    </g>
    <g id="line2d_123">
     <path d="M 49.803365 70.73149 
L 59.803365 70.73149 
L 69.803365 70.73149 
" style="fill: none; stroke: #d62728; stroke-width: 1.5; stroke-linecap: square"/>
    </g>
    <g id="text_33">
     <!-- P=12 atm -->
     <g transform="translate(77.803365 74.23149) scale(0.1 -0.1)">
      <use xlink:href="#DejaVuSans-50"/>
      <use xlink:href="#DejaVuSans-3d" transform="translate(60.302734 0)"/>
      <use xlink:href="#DejaVuSans-31" transform="translate(144.091797 0)"/>
      <use xlink:href="#DejaVuSans-32" transform="translate(207.714844 0)"/>
      <use xlink:href="#DejaVuSans-20" transform="translate(271.337891 0)"/>
      <use xlink:href="#DejaVuSans-61" transform="translate(303.125 0)"/>
      <use xlink:href="#DejaVuSans-74" transform="translate(364.404297 0)"/>
      <use xlink:href="#DejaVuSans-6d" transform="translate(403.613281 0)"/>
     </g>
    </g>
    <g id="line2d_124">
     <path d="M 49.803365 85.409615 
L 59.803365 85.409615 
L 69.803365 85.409615 
" style="fill: none; stroke: #9467bd; stroke-width: 1.5; stroke-linecap: square"/>
    </g>
    <g id="text_34">
     <!-- P=15 atm -->
     <g transform="translate(77.803365 88.909615) scale(0.1 -0.1)">
      <use xlink:href="#DejaVuSans-50"/>
      <use xlink:href="#DejaVuSans-3d" transform="translate(60.302734 0)"/>
      <use xlink:href="#DejaVuSans-31" transform="translate(144.091797 0)"/>
      <use xlink:href="#DejaVuSans-35" transform="translate(207.714844 0)"/>
      <use xlink:href="#DejaVuSans-20" transform="translate(271.337891 0)"/>
      <use xlink:href="#DejaVuSans-61" transform="translate(303.125 0)"/>
      <use xlink:href="#DejaVuSans-74" transform="translate(364.404297 0)"/>
      <use xlink:href="#DejaVuSans-6d" transform="translate(403.613281 0)"/>
     </g>
    </g>
    <g id="line2d_125">
     <path d="M 49.803365 100.08774 
L 59.803365 100.08774 
L 69.803365 100.08774 
" style="fill: none; stroke: #8c564b; stroke-width: 1.5; stroke-linecap: square"/>
    </g>
    <g id="text_35">
     <!-- P=18 atm -->
     <g transform="translate(77.803365 103.58774) scale(0.1 -0.1)">
      <use xlink:href="#DejaVuSans-50"/>
      <use xlink:href="#DejaVuSans-3d" transform="translate(60.302734 0)"/>
      <use xlink:href="#DejaVuSans-31" transform="translate(144.091797 0)"/>
      <use xlink:href="#DejaVuSans-38" transform="translate(207.714844 0)"/>
      <use xlink:href="#DejaVuSans-20" transform="translate(271.337891 0)"/>
      <use xlink:href="#DejaVuSans-61" transform="translate(303.125 0)"/>
      <use xlink:href="#DejaVuSans-74" transform="translate(364.404297 0)"/>
      <use xlink:href="#DejaVuSans-6d" transform="translate(403.613281 0)"/>
     </g>
    </g>
    <g id="line2d_126">
     <path d="M 49.803365 114.765865 
L 59.803365 114.765865 
L 69.803365 114.765865 
" style="fill: none; stroke: #e377c2; stroke-width: 1.5; stroke-linecap: square"/>
    </g>
    <g id="text_36">
     <!-- P=21 atm -->
     <g transform="translate(77.803365 118.265865) scale(0.1 -0.1)">
      <use xlink:href="#DejaVuSans-50"/>
      <use xlink:href="#DejaVuSans-3d" transform="translate(60.302734 0)"/>
      <use xlink:href="#DejaVuSans-32" transform="translate(144.091797 0)"/>
      <use xlink:href="#DejaVuSans-31" transform="translate(207.714844 0)"/>
      <use xlink:href="#DejaVuSans-20" transform="translate(271.337891 0)"/>
      <use xlink:href="#DejaVuSans-61" transform="translate(303.125 0)"/>
      <use xlink:href="#DejaVuSans-74" transform="translate(364.404297 0)"/>
      <use xlink:href="#DejaVuSans-6d" transform="translate(403.613281 0)"/>
     </g>
    </g>
    <g id="line2d_127">
     <path d="M 49.803365 129.44399 
L 59.803365 129.44399 
L 69.803365 129.44399 
" style="fill: none; stroke: #7f7f7f; stroke-width: 1.5; stroke-linecap: square"/>
    </g>
    <g id="text_37">
     <!-- P=24 atm -->
     <g transform="translate(77.803365 132.94399) scale(0.1 -0.1)">
      <use xlink:href="#DejaVuSans-50"/>
      <use xlink:href="#DejaVuSans-3d" transform="translate(60.302734 0)"/>
      <use xlink:href="#DejaVuSans-32" transform="translate(144.091797 0)"/>
      <use xlink:href="#DejaVuSans-34" transform="translate(207.714844 0)"/>
      <use xlink:href="#DejaVuSans-20" transform="translate(271.337891 0)"/>
      <use xlink:href="#DejaVuSans-61" transform="translate(303.125 0)"/>
      <use xlink:href="#DejaVuSans-74" transform="translate(364.404297 0)"/>
      <use xlink:href="#DejaVuSans-6d" transform="translate(403.613281 0)"/>
     </g>
    </g>
    <g id="line2d_128">
     <path d="M 49.803365 144.122115 
L 59.803365 144.122115 
L 69.803365 144.122115 
" style="fill: none; stroke: #bcbd22; stroke-width: 1.5; stroke-linecap: square"/>
    </g>
    <g id="text_38">
     <!-- P=27 atm -->
     <g transform="translate(77.803365 147.622115) scale(0.1 -0.1)">
      <use xlink:href="#DejaVuSans-50"/>
      <use xlink:href="#DejaVuSans-3d" transform="translate(60.302734 0)"/>
      <use xlink:href="#DejaVuSans-32" transform="translate(144.091797 0)"/>
      <use xlink:href="#DejaVuSans-37" transform="translate(207.714844 0)"/>
      <use xlink:href="#DejaVuSans-20" transform="translate(271.337891 0)"/>
      <use xlink:href="#DejaVuSans-61" transform="translate(303.125 0)"/>
      <use xlink:href="#DejaVuSans-74" transform="translate(364.404297 0)"/>
      <use xlink:href="#DejaVuSans-6d" transform="translate(403.613281 0)"/>
     </g>
    </g>
    <g id="line2d_129">
     <path d="M 49.803365 158.80024 
L 59.803365 158.80024 
L 69.803365 158.80024 
" style="fill: none; stroke: #17becf; stroke-width: 1.5; stroke-linecap: square"/>
    </g>
    <g id="text_39">
     <!-- P=30 atm -->
     <g transform="translate(77.803365 162.30024) scale(0.1 -0.1)">
      <use xlink:href="#DejaVuSans-50"/>
      <use xlink:href="#DejaVuSans-3d" transform="translate(60.302734 0)"/>
      <use xlink:href="#DejaVuSans-33" transform="translate(144.091797 0)"/>
      <use xlink:href="#DejaVuSans-30" transform="translate(207.714844 0)"/>
      <use xlink:href="#DejaVuSans-20" transform="translate(271.337891 0)"/>
      <use xlink:href="#DejaVuSans-61" transform="translate(303.125 0)"/>
      <use xlink:href="#DejaVuSans-74" transform="translate(364.404297 0)"/>
      <use xlink:href="#DejaVuSans-6d" transform="translate(403.613281 0)"/>
     </g>
    </g>
   </g>
  </g>
 </g>
 <defs>
  <clipPath id="p5ecec29a47">
   <rect x="40.803365" y="13.598678" width="374.49327" height="298.644832"/>
  </clipPath>
 </defs>
</svg>
