<?xml version="1.0" encoding="utf-8" standalone="no"?>
<!DOCTYPE svg PUBLIC "-//W3C//DTD SVG 1.1//EN"
  "http://www.w3.org/Graphics/SVG/1.1/DTD/svg11.dtd">
<svg xmlns:xlink="http://www.w3.org/1999/xlink" width="460.8pt" height="345.6pt" viewBox="0 0 460.8 345.6" xmlns="http://www.w3.org/2000/svg" version="1.1">
 <metadata>
  <rdf:RDF xmlns:dc="http://purl.org/dc/elements/1.1/" xmlns:cc="http://creativecommons.org/ns#" xmlns:rdf="http://www.w3.org/1999/02/22-rdf-syntax-ns#">
   <cc:Work>
    <dc:type rdf:resource="http://purl.org/dc/dcmitype/StillImage"/>
    <dc:date>2025-04-12T20:33:13.651038</dc:date>
    <dc:format>image/svg+xml</dc:format>
    <dc:creator>
     <cc:Agent>
      <dc:title>Matplotlib v3.6.3, https://matplotlib.org/</dc:title>
     </cc:Agent>
    </dc:creator>
   </cc:Work>
  </rdf:RDF>
 </metadata>
 <defs>
  <style type="text/css">*{stroke-linejoin: round; stroke-linecap: butt}</style>
 </defs>
 <g id="figure_1">
  <g id="patch_1">
   <path d="M 0 345.6 
L 460.8 345.6 
L 460.8 0 
L 0 0 
L 0 345.6 
z
" style="fill: none"/>
  </g>
  <g id="axes_1">
   <g id="patch_2">
    <path d="M 40.403365 312.24351 
L 445.07476 312.24351 
L 445.07476 3.749173 
L 40.403365 3.749173 
L 40.403365 312.24351 
z
" style="fill: none"/>
   </g>
   <g id="matplotlib.axis_1">
    <g id="xtick_1">
     <g id="line2d_1">
      <defs>
       <path id="m4117281fa6" d="M 0 0 
L 0 3.5 
" style="stroke: #000000; stroke-width: 0.8"/>
      </defs>
      <g>
       <use xlink:href="#m4117281fa6" x="40.403365" y="312.24351" style="stroke: #000000; stroke-width: 0.8"/>
      </g>
     </g>
     <g id="text_1">
      <!-- 600 -->
      <g transform="translate(30.859615 326.841947) scale(0.1 -0.1)">
       <defs>
        <path id="DejaVuSans-36" d="M 2113 2584 
Q 1688 2584 1439 2293 
Q 1191 2003 1191 1497 
Q 1191 994 1439 701 
Q 1688 409 2113 409 
Q 2538 409 2786 701 
Q 3034 994 3034 1497 
Q 3034 2003 2786 2293 
Q 2538 2584 2113 2584 
z
M 3366 4563 
L 3366 3988 
Q 3128 4100 2886 4159 
Q 2644 4219 2406 4219 
Q 1781 4219 1451 3797 
Q 1122 3375 1075 2522 
Q 1259 2794 1537 2939 
Q 1816 3084 2150 3084 
Q 2853 3084 3261 2657 
Q 3669 2231 3669 1497 
Q 3669 778 3244 343 
Q 2819 -91 2113 -91 
Q 1303 -91 875 529 
Q 447 1150 447 2328 
Q 447 3434 972 4092 
Q 1497 4750 2381 4750 
Q 2619 4750 2861 4703 
Q 3103 4656 3366 4563 
z
" transform="scale(0.015625)"/>
        <path id="DejaVuSans-30" d="M 2034 4250 
Q 1547 4250 1301 3770 
Q 1056 3291 1056 2328 
Q 1056 1369 1301 889 
Q 1547 409 2034 409 
Q 2525 409 2770 889 
Q 3016 1369 3016 2328 
Q 3016 3291 2770 3770 
Q 2525 4250 2034 4250 
z
M 2034 4750 
Q 2819 4750 3233 4129 
Q 3647 3509 3647 2328 
Q 3647 1150 3233 529 
Q 2819 -91 2034 -91 
Q 1250 -91 836 529 
Q 422 1150 422 2328 
Q 422 3509 836 4129 
Q 1250 4750 2034 4750 
z
" transform="scale(0.015625)"/>
       </defs>
       <use xlink:href="#DejaVuSans-36"/>
       <use xlink:href="#DejaVuSans-30" x="63.623047"/>
       <use xlink:href="#DejaVuSans-30" x="127.246094"/>
      </g>
     </g>
    </g>
    <g id="xtick_2">
     <g id="line2d_2">
      <g>
       <use xlink:href="#m4117281fa6" x="98.213564" y="312.24351" style="stroke: #000000; stroke-width: 0.8"/>
      </g>
     </g>
     <g id="text_2">
      <!-- 700 -->
      <g transform="translate(88.669814 326.841947) scale(0.1 -0.1)">
       <defs>
        <path id="DejaVuSans-37" d="M 525 4666 
L 3525 4666 
L 3525 4397 
L 1831 0 
L 1172 0 
L 2766 4134 
L 525 4134 
L 525 4666 
z
" transform="scale(0.015625)"/>
       </defs>
       <use xlink:href="#DejaVuSans-37"/>
       <use xlink:href="#DejaVuSans-30" x="63.623047"/>
       <use xlink:href="#DejaVuSans-30" x="127.246094"/>
      </g>
     </g>
    </g>
    <g id="xtick_3">
     <g id="line2d_3">
      <g>
       <use xlink:href="#m4117281fa6" x="156.023764" y="312.24351" style="stroke: #000000; stroke-width: 0.8"/>
      </g>
     </g>
     <g id="text_3">
      <!-- 800 -->
      <g transform="translate(146.480014 326.841947) scale(0.1 -0.1)">
       <defs>
        <path id="DejaVuSans-38" d="M 2034 2216 
Q 1584 2216 1326 1975 
Q 1069 1734 1069 1313 
Q 1069 891 1326 650 
Q 1584 409 2034 409 
Q 2484 409 2743 651 
Q 3003 894 3003 1313 
Q 3003 1734 2745 1975 
Q 2488 2216 2034 2216 
z
M 1403 2484 
Q 997 2584 770 2862 
Q 544 3141 544 3541 
Q 544 4100 942 4425 
Q 1341 4750 2034 4750 
Q 2731 4750 3128 4425 
Q 3525 4100 3525 3541 
Q 3525 3141 3298 2862 
Q 3072 2584 2669 2484 
Q 3125 2378 3379 2068 
Q 3634 1759 3634 1313 
Q 3634 634 3220 271 
Q 2806 -91 2034 -91 
Q 1263 -91 848 271 
Q 434 634 434 1313 
Q 434 1759 690 2068 
Q 947 2378 1403 2484 
z
M 1172 3481 
Q 1172 3119 1398 2916 
Q 1625 2713 2034 2713 
Q 2441 2713 2670 2916 
Q 2900 3119 2900 3481 
Q 2900 3844 2670 4047 
Q 2441 4250 2034 4250 
Q 1625 4250 1398 4047 
Q 1172 3844 1172 3481 
z
" transform="scale(0.015625)"/>
       </defs>
       <use xlink:href="#DejaVuSans-38"/>
       <use xlink:href="#DejaVuSans-30" x="63.623047"/>
       <use xlink:href="#DejaVuSans-30" x="127.246094"/>
      </g>
     </g>
    </g>
    <g id="xtick_4">
     <g id="line2d_4">
      <g>
       <use xlink:href="#m4117281fa6" x="213.833963" y="312.24351" style="stroke: #000000; stroke-width: 0.8"/>
      </g>
     </g>
     <g id="text_4">
      <!-- 900 -->
      <g transform="translate(204.290213 326.841947) scale(0.1 -0.1)">
       <defs>
        <path id="DejaVuSans-39" d="M 703 97 
L 703 672 
Q 941 559 1184 500 
Q 1428 441 1663 441 
Q 2288 441 2617 861 
Q 2947 1281 2994 2138 
Q 2813 1869 2534 1725 
Q 2256 1581 1919 1581 
Q 1219 1581 811 2004 
Q 403 2428 403 3163 
Q 403 3881 828 4315 
Q 1253 4750 1959 4750 
Q 2769 4750 3195 4129 
Q 3622 3509 3622 2328 
Q 3622 1225 3098 567 
Q 2575 -91 1691 -91 
Q 1453 -91 1209 -44 
Q 966 3 703 97 
z
M 1959 2075 
Q 2384 2075 2632 2365 
Q 2881 2656 2881 3163 
Q 2881 3666 2632 3958 
Q 2384 4250 1959 4250 
Q 1534 4250 1286 3958 
Q 1038 3666 1038 3163 
Q 1038 2656 1286 2365 
Q 1534 2075 1959 2075 
z
" transform="scale(0.015625)"/>
       </defs>
       <use xlink:href="#DejaVuSans-39"/>
       <use xlink:href="#DejaVuSans-30" x="63.623047"/>
       <use xlink:href="#DejaVuSans-30" x="127.246094"/>
      </g>
     </g>
    </g>
    <g id="xtick_5">
     <g id="line2d_5">
      <g>
       <use xlink:href="#m4117281fa6" x="271.644162" y="312.24351" style="stroke: #000000; stroke-width: 0.8"/>
      </g>
     </g>
     <g id="text_5">
      <!-- 1000 -->
      <g transform="translate(258.919162 326.841947) scale(0.1 -0.1)">
       <defs>
        <path id="DejaVuSans-31" d="M 794 531 
L 1825 531 
L 1825 4091 
L 703 3866 
L 703 4441 
L 1819 4666 
L 2450 4666 
L 2450 531 
L 3481 531 
L 3481 0 
L 794 0 
L 794 531 
z
" transform="scale(0.015625)"/>
       </defs>
       <use xlink:href="#DejaVuSans-31"/>
       <use xlink:href="#DejaVuSans-30" x="63.623047"/>
       <use xlink:href="#DejaVuSans-30" x="127.246094"/>
       <use xlink:href="#DejaVuSans-30" x="190.869141"/>
      </g>
     </g>
    </g>
    <g id="xtick_6">
     <g id="line2d_6">
      <g>
       <use xlink:href="#m4117281fa6" x="329.454361" y="312.24351" style="stroke: #000000; stroke-width: 0.8"/>
      </g>
     </g>
     <g id="text_6">
      <!-- 1100 -->
      <g transform="translate(316.729361 326.841947) scale(0.1 -0.1)">
       <use xlink:href="#DejaVuSans-31"/>
       <use xlink:href="#DejaVuSans-31" x="63.623047"/>
       <use xlink:href="#DejaVuSans-30" x="127.246094"/>
       <use xlink:href="#DejaVuSans-30" x="190.869141"/>
      </g>
     </g>
    </g>
    <g id="xtick_7">
     <g id="line2d_7">
      <g>
       <use xlink:href="#m4117281fa6" x="387.264561" y="312.24351" style="stroke: #000000; stroke-width: 0.8"/>
      </g>
     </g>
     <g id="text_7">
      <!-- 1200 -->
      <g transform="translate(374.539561 326.841947) scale(0.1 -0.1)">
       <defs>
        <path id="DejaVuSans-32" d="M 1228 531 
L 3431 531 
L 3431 0 
L 469 0 
L 469 531 
Q 828 903 1448 1529 
Q 2069 2156 2228 2338 
Q 2531 2678 2651 2914 
Q 2772 3150 2772 3378 
Q 2772 3750 2511 3984 
Q 2250 4219 1831 4219 
Q 1534 4219 1204 4116 
Q 875 4013 500 3803 
L 500 4441 
Q 881 4594 1212 4672 
Q 1544 4750 1819 4750 
Q 2544 4750 2975 4387 
Q 3406 4025 3406 3419 
Q 3406 3131 3298 2873 
Q 3191 2616 2906 2266 
Q 2828 2175 2409 1742 
Q 1991 1309 1228 531 
z
" transform="scale(0.015625)"/>
       </defs>
       <use xlink:href="#DejaVuSans-31"/>
       <use xlink:href="#DejaVuSans-32" x="63.623047"/>
       <use xlink:href="#DejaVuSans-30" x="127.246094"/>
       <use xlink:href="#DejaVuSans-30" x="190.869141"/>
      </g>
     </g>
    </g>
    <g id="xtick_8">
     <g id="line2d_8">
      <g>
       <use xlink:href="#m4117281fa6" x="445.07476" y="312.24351" style="stroke: #000000; stroke-width: 0.8"/>
      </g>
     </g>
     <g id="text_8">
      <!-- 1300 -->
      <g transform="translate(432.34976 326.841947) scale(0.1 -0.1)">
       <defs>
        <path id="DejaVuSans-33" d="M 2597 2516 
Q 3050 2419 3304 2112 
Q 3559 1806 3559 1356 
Q 3559 666 3084 287 
Q 2609 -91 1734 -91 
Q 1441 -91 1130 -33 
Q 819 25 488 141 
L 488 750 
Q 750 597 1062 519 
Q 1375 441 1716 441 
Q 2309 441 2620 675 
Q 2931 909 2931 1356 
Q 2931 1769 2642 2001 
Q 2353 2234 1838 2234 
L 1294 2234 
L 1294 2753 
L 1863 2753 
Q 2328 2753 2575 2939 
Q 2822 3125 2822 3475 
Q 2822 3834 2567 4026 
Q 2313 4219 1838 4219 
Q 1578 4219 1281 4162 
Q 984 4106 628 3988 
L 628 4550 
Q 988 4650 1302 4700 
Q 1616 4750 1894 4750 
Q 2613 4750 3031 4423 
Q 3450 4097 3450 3541 
Q 3450 3153 3228 2886 
Q 3006 2619 2597 2516 
z
" transform="scale(0.015625)"/>
       </defs>
       <use xlink:href="#DejaVuSans-31"/>
       <use xlink:href="#DejaVuSans-33" x="63.623047"/>
       <use xlink:href="#DejaVuSans-30" x="127.246094"/>
       <use xlink:href="#DejaVuSans-30" x="190.869141"/>
      </g>
     </g>
    </g>
    <g id="xtick_9">
     <g id="line2d_9">
      <defs>
       <path id="m174644c5cc" d="M 0 0 
L 0 2 
" style="stroke: #000000; stroke-width: 0.6"/>
      </defs>
      <g>
       <use xlink:href="#m174644c5cc" x="51.965405" y="312.24351" style="stroke: #000000; stroke-width: 0.6"/>
      </g>
     </g>
    </g>
    <g id="xtick_10">
     <g id="line2d_10">
      <g>
       <use xlink:href="#m174644c5cc" x="63.527445" y="312.24351" style="stroke: #000000; stroke-width: 0.6"/>
      </g>
     </g>
    </g>
    <g id="xtick_11">
     <g id="line2d_11">
      <g>
       <use xlink:href="#m174644c5cc" x="75.089485" y="312.24351" style="stroke: #000000; stroke-width: 0.6"/>
      </g>
     </g>
    </g>
    <g id="xtick_12">
     <g id="line2d_12">
      <g>
       <use xlink:href="#m174644c5cc" x="86.651524" y="312.24351" style="stroke: #000000; stroke-width: 0.6"/>
      </g>
     </g>
    </g>
    <g id="xtick_13">
     <g id="line2d_13">
      <g>
       <use xlink:href="#m174644c5cc" x="109.775604" y="312.24351" style="stroke: #000000; stroke-width: 0.6"/>
      </g>
     </g>
    </g>
    <g id="xtick_14">
     <g id="line2d_14">
      <g>
       <use xlink:href="#m174644c5cc" x="121.337644" y="312.24351" style="stroke: #000000; stroke-width: 0.6"/>
      </g>
     </g>
    </g>
    <g id="xtick_15">
     <g id="line2d_15">
      <g>
       <use xlink:href="#m174644c5cc" x="132.899684" y="312.24351" style="stroke: #000000; stroke-width: 0.6"/>
      </g>
     </g>
    </g>
    <g id="xtick_16">
     <g id="line2d_16">
      <g>
       <use xlink:href="#m174644c5cc" x="144.461724" y="312.24351" style="stroke: #000000; stroke-width: 0.6"/>
      </g>
     </g>
    </g>
    <g id="xtick_17">
     <g id="line2d_17">
      <g>
       <use xlink:href="#m174644c5cc" x="167.585803" y="312.24351" style="stroke: #000000; stroke-width: 0.6"/>
      </g>
     </g>
    </g>
    <g id="xtick_18">
     <g id="line2d_18">
      <g>
       <use xlink:href="#m174644c5cc" x="179.147843" y="312.24351" style="stroke: #000000; stroke-width: 0.6"/>
      </g>
     </g>
    </g>
    <g id="xtick_19">
     <g id="line2d_19">
      <g>
       <use xlink:href="#m174644c5cc" x="190.709883" y="312.24351" style="stroke: #000000; stroke-width: 0.6"/>
      </g>
     </g>
    </g>
    <g id="xtick_20">
     <g id="line2d_20">
      <g>
       <use xlink:href="#m174644c5cc" x="202.271923" y="312.24351" style="stroke: #000000; stroke-width: 0.6"/>
      </g>
     </g>
    </g>
    <g id="xtick_21">
     <g id="line2d_21">
      <g>
       <use xlink:href="#m174644c5cc" x="225.396003" y="312.24351" style="stroke: #000000; stroke-width: 0.6"/>
      </g>
     </g>
    </g>
    <g id="xtick_22">
     <g id="line2d_22">
      <g>
       <use xlink:href="#m174644c5cc" x="236.958043" y="312.24351" style="stroke: #000000; stroke-width: 0.6"/>
      </g>
     </g>
    </g>
    <g id="xtick_23">
     <g id="line2d_23">
      <g>
       <use xlink:href="#m174644c5cc" x="248.520082" y="312.24351" style="stroke: #000000; stroke-width: 0.6"/>
      </g>
     </g>
    </g>
    <g id="xtick_24">
     <g id="line2d_24">
      <g>
       <use xlink:href="#m174644c5cc" x="260.082122" y="312.24351" style="stroke: #000000; stroke-width: 0.6"/>
      </g>
     </g>
    </g>
    <g id="xtick_25">
     <g id="line2d_25">
      <g>
       <use xlink:href="#m174644c5cc" x="283.206202" y="312.24351" style="stroke: #000000; stroke-width: 0.6"/>
      </g>
     </g>
    </g>
    <g id="xtick_26">
     <g id="line2d_26">
      <g>
       <use xlink:href="#m174644c5cc" x="294.768242" y="312.24351" style="stroke: #000000; stroke-width: 0.6"/>
      </g>
     </g>
    </g>
    <g id="xtick_27">
     <g id="line2d_27">
      <g>
       <use xlink:href="#m174644c5cc" x="306.330282" y="312.24351" style="stroke: #000000; stroke-width: 0.6"/>
      </g>
     </g>
    </g>
    <g id="xtick_28">
     <g id="line2d_28">
      <g>
       <use xlink:href="#m174644c5cc" x="317.892322" y="312.24351" style="stroke: #000000; stroke-width: 0.6"/>
      </g>
     </g>
    </g>
    <g id="xtick_29">
     <g id="line2d_29">
      <g>
       <use xlink:href="#m174644c5cc" x="341.016401" y="312.24351" style="stroke: #000000; stroke-width: 0.6"/>
      </g>
     </g>
    </g>
    <g id="xtick_30">
     <g id="line2d_30">
      <g>
       <use xlink:href="#m174644c5cc" x="352.578441" y="312.24351" style="stroke: #000000; stroke-width: 0.6"/>
      </g>
     </g>
    </g>
    <g id="xtick_31">
     <g id="line2d_31">
      <g>
       <use xlink:href="#m174644c5cc" x="364.140481" y="312.24351" style="stroke: #000000; stroke-width: 0.6"/>
      </g>
     </g>
    </g>
    <g id="xtick_32">
     <g id="line2d_32">
      <g>
       <use xlink:href="#m174644c5cc" x="375.702521" y="312.24351" style="stroke: #000000; stroke-width: 0.6"/>
      </g>
     </g>
    </g>
    <g id="xtick_33">
     <g id="line2d_33">
      <g>
       <use xlink:href="#m174644c5cc" x="398.826601" y="312.24351" style="stroke: #000000; stroke-width: 0.6"/>
      </g>
     </g>
    </g>
    <g id="xtick_34">
     <g id="line2d_34">
      <g>
       <use xlink:href="#m174644c5cc" x="410.38864" y="312.24351" style="stroke: #000000; stroke-width: 0.6"/>
      </g>
     </g>
    </g>
    <g id="xtick_35">
     <g id="line2d_35">
      <g>
       <use xlink:href="#m174644c5cc" x="421.95068" y="312.24351" style="stroke: #000000; stroke-width: 0.6"/>
      </g>
     </g>
    </g>
    <g id="xtick_36">
     <g id="line2d_36">
      <g>
       <use xlink:href="#m174644c5cc" x="433.51272" y="312.24351" style="stroke: #000000; stroke-width: 0.6"/>
      </g>
     </g>
    </g>
    <g id="text_9">
     <!-- T [K] -->
     <g transform="translate(230.915625 340.520072) scale(0.1 -0.1)">
      <defs>
       <path id="DejaVuSans-54" d="M -19 4666 
L 3928 4666 
L 3928 4134 
L 2272 4134 
L 2272 0 
L 1638 0 
L 1638 4134 
L -19 4134 
L -19 4666 
z
" transform="scale(0.015625)"/>
       <path id="DejaVuSans-20" transform="scale(0.015625)"/>
       <path id="DejaVuSans-5b" d="M 550 4863 
L 1875 4863 
L 1875 4416 
L 1125 4416 
L 1125 -397 
L 1875 -397 
L 1875 -844 
L 550 -844 
L 550 4863 
z
" transform="scale(0.015625)"/>
       <path id="DejaVuSans-4b" d="M 628 4666 
L 1259 4666 
L 1259 2694 
L 3353 4666 
L 4166 4666 
L 1850 2491 
L 4331 0 
L 3500 0 
L 1259 2247 
L 1259 0 
L 628 0 
L 628 4666 
z
" transform="scale(0.015625)"/>
       <path id="DejaVuSans-5d" d="M 1947 4863 
L 1947 -844 
L 622 -844 
L 622 -397 
L 1369 -397 
L 1369 4416 
L 622 4416 
L 622 4863 
L 1947 4863 
z
" transform="scale(0.015625)"/>
      </defs>
      <use xlink:href="#DejaVuSans-54"/>
      <use xlink:href="#DejaVuSans-20" x="61.083984"/>
      <use xlink:href="#DejaVuSans-5b" x="92.871094"/>
      <use xlink:href="#DejaVuSans-4b" x="131.884766"/>
      <use xlink:href="#DejaVuSans-5d" x="197.460938"/>
     </g>
    </g>
   </g>
   <g id="matplotlib.axis_2">
    <g id="ytick_1">
     <g id="line2d_37">
      <defs>
       <path id="me7e1e7f5c1" d="M 0 0 
L -3.5 0 
" style="stroke: #000000; stroke-width: 0.8"/>
      </defs>
      <g>
       <use xlink:href="#me7e1e7f5c1" x="40.403365" y="312.24351" style="stroke: #000000; stroke-width: 0.8"/>
      </g>
     </g>
     <g id="text_10">
      <!-- 0.0 -->
      <g transform="translate(17.50024 316.042729) scale(0.1 -0.1)">
       <defs>
        <path id="DejaVuSans-2e" d="M 684 794 
L 1344 794 
L 1344 0 
L 684 0 
L 684 794 
z
" transform="scale(0.015625)"/>
       </defs>
       <use xlink:href="#DejaVuSans-30"/>
       <use xlink:href="#DejaVuSans-2e" x="63.623047"/>
       <use xlink:href="#DejaVuSans-30" x="95.410156"/>
      </g>
     </g>
    </g>
    <g id="ytick_2">
     <g id="line2d_38">
      <g>
       <use xlink:href="#me7e1e7f5c1" x="40.403365" y="251.155523" style="stroke: #000000; stroke-width: 0.8"/>
      </g>
     </g>
     <g id="text_11">
      <!-- 0.2 -->
      <g transform="translate(17.50024 254.954741) scale(0.1 -0.1)">
       <use xlink:href="#DejaVuSans-30"/>
       <use xlink:href="#DejaVuSans-2e" x="63.623047"/>
       <use xlink:href="#DejaVuSans-32" x="95.410156"/>
      </g>
     </g>
    </g>
    <g id="ytick_3">
     <g id="line2d_39">
      <g>
       <use xlink:href="#me7e1e7f5c1" x="40.403365" y="190.067535" style="stroke: #000000; stroke-width: 0.8"/>
      </g>
     </g>
     <g id="text_12">
      <!-- 0.4 -->
      <g transform="translate(17.50024 193.866754) scale(0.1 -0.1)">
       <defs>
        <path id="DejaVuSans-34" d="M 2419 4116 
L 825 1625 
L 2419 1625 
L 2419 4116 
z
M 2253 4666 
L 3047 4666 
L 3047 1625 
L 3713 1625 
L 3713 1100 
L 3047 1100 
L 3047 0 
L 2419 0 
L 2419 1100 
L 313 1100 
L 313 1709 
L 2253 4666 
z
" transform="scale(0.015625)"/>
       </defs>
       <use xlink:href="#DejaVuSans-30"/>
       <use xlink:href="#DejaVuSans-2e" x="63.623047"/>
       <use xlink:href="#DejaVuSans-34" x="95.410156"/>
      </g>
     </g>
    </g>
    <g id="ytick_4">
     <g id="line2d_40">
      <g>
       <use xlink:href="#me7e1e7f5c1" x="40.403365" y="128.979548" style="stroke: #000000; stroke-width: 0.8"/>
      </g>
     </g>
     <g id="text_13">
      <!-- 0.6 -->
      <g transform="translate(17.50024 132.778766) scale(0.1 -0.1)">
       <use xlink:href="#DejaVuSans-30"/>
       <use xlink:href="#DejaVuSans-2e" x="63.623047"/>
       <use xlink:href="#DejaVuSans-36" x="95.410156"/>
      </g>
     </g>
    </g>
    <g id="ytick_5">
     <g id="line2d_41">
      <g>
       <use xlink:href="#me7e1e7f5c1" x="40.403365" y="67.89156" style="stroke: #000000; stroke-width: 0.8"/>
      </g>
     </g>
     <g id="text_14">
      <!-- 0.8 -->
      <g transform="translate(17.50024 71.690779) scale(0.1 -0.1)">
       <use xlink:href="#DejaVuSans-30"/>
       <use xlink:href="#DejaVuSans-2e" x="63.623047"/>
       <use xlink:href="#DejaVuSans-38" x="95.410156"/>
      </g>
     </g>
    </g>
    <g id="ytick_6">
     <g id="line2d_42">
      <g>
       <use xlink:href="#me7e1e7f5c1" x="40.403365" y="6.803573" style="stroke: #000000; stroke-width: 0.8"/>
      </g>
     </g>
     <g id="text_15">
      <!-- 1.0 -->
      <g transform="translate(17.50024 10.602791) scale(0.1 -0.1)">
       <use xlink:href="#DejaVuSans-31"/>
       <use xlink:href="#DejaVuSans-2e" x="63.623047"/>
       <use xlink:href="#DejaVuSans-30" x="95.410156"/>
      </g>
     </g>
    </g>
    <g id="ytick_7">
     <g id="line2d_43">
      <defs>
       <path id="m9c11c976ae" d="M 0 0 
L -2 0 
" style="stroke: #000000; stroke-width: 0.6"/>
      </defs>
      <g>
       <use xlink:href="#m9c11c976ae" x="40.403365" y="296.971513" style="stroke: #000000; stroke-width: 0.6"/>
      </g>
     </g>
    </g>
    <g id="ytick_8">
     <g id="line2d_44">
      <g>
       <use xlink:href="#m9c11c976ae" x="40.403365" y="281.699516" style="stroke: #000000; stroke-width: 0.6"/>
      </g>
     </g>
    </g>
    <g id="ytick_9">
     <g id="line2d_45">
      <g>
       <use xlink:href="#m9c11c976ae" x="40.403365" y="266.427519" style="stroke: #000000; stroke-width: 0.6"/>
      </g>
     </g>
    </g>
    <g id="ytick_10">
     <g id="line2d_46">
      <g>
       <use xlink:href="#m9c11c976ae" x="40.403365" y="235.883526" style="stroke: #000000; stroke-width: 0.6"/>
      </g>
     </g>
    </g>
    <g id="ytick_11">
     <g id="line2d_47">
      <g>
       <use xlink:href="#m9c11c976ae" x="40.403365" y="220.611529" style="stroke: #000000; stroke-width: 0.6"/>
      </g>
     </g>
    </g>
    <g id="ytick_12">
     <g id="line2d_48">
      <g>
       <use xlink:href="#m9c11c976ae" x="40.403365" y="205.339532" style="stroke: #000000; stroke-width: 0.6"/>
      </g>
     </g>
    </g>
    <g id="ytick_13">
     <g id="line2d_49">
      <g>
       <use xlink:href="#m9c11c976ae" x="40.403365" y="174.795538" style="stroke: #000000; stroke-width: 0.6"/>
      </g>
     </g>
    </g>
    <g id="ytick_14">
     <g id="line2d_50">
      <g>
       <use xlink:href="#m9c11c976ae" x="40.403365" y="159.523541" style="stroke: #000000; stroke-width: 0.6"/>
      </g>
     </g>
    </g>
    <g id="ytick_15">
     <g id="line2d_51">
      <g>
       <use xlink:href="#m9c11c976ae" x="40.403365" y="144.251545" style="stroke: #000000; stroke-width: 0.6"/>
      </g>
     </g>
    </g>
    <g id="ytick_16">
     <g id="line2d_52">
      <g>
       <use xlink:href="#m9c11c976ae" x="40.403365" y="113.707551" style="stroke: #000000; stroke-width: 0.6"/>
      </g>
     </g>
    </g>
    <g id="ytick_17">
     <g id="line2d_53">
      <g>
       <use xlink:href="#m9c11c976ae" x="40.403365" y="98.435554" style="stroke: #000000; stroke-width: 0.6"/>
      </g>
     </g>
    </g>
    <g id="ytick_18">
     <g id="line2d_54">
      <g>
       <use xlink:href="#m9c11c976ae" x="40.403365" y="83.163557" style="stroke: #000000; stroke-width: 0.6"/>
      </g>
     </g>
    </g>
    <g id="ytick_19">
     <g id="line2d_55">
      <g>
       <use xlink:href="#m9c11c976ae" x="40.403365" y="52.619563" style="stroke: #000000; stroke-width: 0.6"/>
      </g>
     </g>
    </g>
    <g id="ytick_20">
     <g id="line2d_56">
      <g>
       <use xlink:href="#m9c11c976ae" x="40.403365" y="37.347566" style="stroke: #000000; stroke-width: 0.6"/>
      </g>
     </g>
    </g>
    <g id="ytick_21">
     <g id="line2d_57">
      <g>
       <use xlink:href="#m9c11c976ae" x="40.403365" y="22.07557" style="stroke: #000000; stroke-width: 0.6"/>
      </g>
     </g>
    </g>
    <g id="text_16">
     <!-- $\theta_{H_2O}$ -->
     <g transform="translate(10.70024 168.246342) rotate(-90) scale(0.1 -0.1)">
      <defs>
       <path id="DejaVuSans-Oblique-3b8" d="M 2913 2219 
L 925 2219 
Q 791 1284 928 888 
Q 1100 400 1566 400 
Q 2034 400 2391 891 
Q 2703 1322 2913 2219 
z
M 3009 2750 
Q 3094 3638 2984 3950 
Q 2813 4444 2353 4444 
Q 1875 4444 1525 3956 
Q 1250 3563 1034 2750 
L 3009 2750 
z
M 2444 4913 
Q 3194 4913 3494 4250 
Q 3794 3591 3566 2422 
Q 3341 1256 2781 594 
Q 2225 -72 1475 -72 
Q 722 -72 425 594 
Q 128 1256 353 2422 
Q 581 3591 1134 4250 
Q 1691 4913 2444 4913 
z
" transform="scale(0.015625)"/>
       <path id="DejaVuSans-Oblique-48" d="M 1081 4666 
L 1716 4666 
L 1344 2753 
L 3634 2753 
L 4006 4666 
L 4641 4666 
L 3731 0 
L 3097 0 
L 3531 2222 
L 1241 2222 
L 806 0 
L 172 0 
L 1081 4666 
z
" transform="scale(0.015625)"/>
       <path id="DejaVuSans-Oblique-4f" d="M 2919 4238 
Q 2400 4238 2003 3986 
Q 1606 3734 1313 3219 
Q 1125 2891 1026 2522 
Q 928 2153 928 1778 
Q 928 1128 1239 775 
Q 1550 422 2119 422 
Q 2631 422 3032 676 
Q 3434 931 3719 1434 
Q 3909 1772 4009 2142 
Q 4109 2513 4109 2881 
Q 4109 3528 3796 3883 
Q 3484 4238 2919 4238 
z
M 2100 -91 
Q 1241 -91 748 418 
Q 256 928 256 1813 
Q 256 2319 448 2847 
Q 641 3375 978 3788 
Q 1375 4272 1862 4511 
Q 2350 4750 2938 4750 
Q 3794 4750 4287 4245 
Q 4781 3741 4781 2869 
Q 4781 2331 4593 1812 
Q 4406 1294 4056 872 
Q 3656 384 3173 146 
Q 2691 -91 2100 -91 
z
" transform="scale(0.015625)"/>
      </defs>
      <use xlink:href="#DejaVuSans-Oblique-3b8" transform="translate(0 0.234375)"/>
      <use xlink:href="#DejaVuSans-Oblique-48" transform="translate(61.181641 -16.171875) scale(0.7)"/>
      <use xlink:href="#DejaVuSans-32" transform="translate(113.818359 -27.65625) scale(0.49)"/>
      <use xlink:href="#DejaVuSans-Oblique-4f" transform="translate(146.907715 -16.171875) scale(0.7)"/>
     </g>
    </g>
   </g>
   <g id="line2d_58">
    <path d="M 40.403365 6.803595 
L 121.337644 6.914149 
L 135.212092 7.15576 
L 143.883622 7.505107 
L 150.820846 7.998769 
L 156.023764 8.567135 
L 160.64858 9.276922 
L 164.695293 10.109327 
L 168.163905 11.023857 
L 171.632517 12.169069 
L 174.523027 13.336222 
L 177.413537 14.73312 
L 180.304047 16.398519 
L 182.616455 17.953164 
L 184.928863 19.731673 
L 187.241271 21.760168 
L 189.553679 24.066372 
L 191.866087 26.679321 
L 194.178495 29.628948 
L 196.490903 32.945528 
L 198.803311 36.658959 
L 201.115719 40.797886 
L 203.428127 45.38865 
L 205.740535 50.454098 
L 208.052943 56.012273 
L 210.365351 62.075031 
L 213.255861 70.368786 
L 216.146371 79.445751 
L 219.036881 89.270017 
L 222.505493 101.955873 
L 226.552207 117.78737 
L 231.755125 139.247964 
L 242.739062 184.934883 
L 246.785776 200.666666 
L 250.254388 213.29793 
L 253.723 225.010057 
L 256.61351 234.013778 
L 259.50402 242.309173 
L 262.39453 249.896664 
L 265.28504 256.79205 
L 268.17555 263.023026 
L 271.06606 268.625866 
L 273.95657 273.642463 
L 276.84708 278.117836 
L 279.73759 282.098113 
L 282.6281 285.628985 
L 285.51861 288.754576 
L 288.40912 291.516671 
L 291.29963 293.954232 
L 294.19014 296.103143 
L 297.08065 297.996122 
L 300.549262 299.971313 
L 304.017874 301.665855 
L 307.486486 303.119406 
L 311.5332 304.556256 
L 315.579914 305.75833 
L 320.20473 306.89447 
L 325.407647 307.926425 
L 331.188667 308.830948 
L 337.547789 309.598614 
L 345.063115 310.27618 
L 354.312747 310.866105 
L 365.296685 311.331479 
L 379.749235 311.703828 
L 399.404703 311.970807 
L 430.044108 312.142993 
L 445.07476 312.180215 
L 445.07476 312.180215 
" clip-path="url(#p3a4aec359a)" style="fill: none; stroke: #1f77b4; stroke-width: 1.5; stroke-linecap: square"/>
   </g>
   <g id="line2d_59">
    <path d="M 40.403365 6.803582 
L 131.74348 6.909777 
L 146.19603 7.139882 
L 156.023764 7.51145 
L 162.960987 7.97882 
L 168.742007 8.576418 
L 173.944925 9.347768 
L 177.991639 10.153729 
L 182.038353 11.192547 
L 185.506965 12.313004 
L 188.975577 13.692462 
L 191.866087 15.076892 
L 194.756597 16.71081 
L 197.647107 18.631825 
L 199.959515 20.402936 
L 202.271923 22.406772 
L 204.584331 24.667192 
L 206.896739 27.209001 
L 209.209147 30.057601 
L 211.521555 33.238548 
L 213.833963 36.776974 
L 216.146371 40.696916 
L 218.458779 45.020507 
L 220.771187 49.767073 
L 223.083595 54.95215 
L 225.974105 62.065918 
L 228.864615 69.888918 
L 231.755125 78.41169 
L 234.645635 87.605207 
L 238.114247 99.450856 
L 242.160961 114.227841 
L 246.785776 132.042319 
L 261.816428 190.783446 
L 265.863142 205.301196 
L 269.331754 216.933099 
L 272.800366 227.720769 
L 275.690876 236.028591 
L 278.581386 243.704474 
L 281.471896 250.752138 
L 284.362406 257.186906 
L 287.252916 263.033099 
L 290.143426 268.321585 
L 293.033936 273.087584 
L 295.924446 277.368813 
L 298.814956 281.203958 
L 301.705466 284.631495 
L 304.595976 287.688795 
L 307.486486 290.4115 
L 310.376996 292.83311 
L 313.267506 294.98474 
L 316.158016 296.895016 
L 319.626628 298.90537 
L 323.09524 300.646198 
L 326.563851 302.15327 
L 330.610565 303.657711 
L 334.657279 304.929547 
L 339.282095 306.144844 
L 344.485013 307.262168 
L 350.266033 308.25455 
L 356.625155 309.10882 
L 364.140481 309.874704 
L 372.812011 310.518049 
L 383.217847 311.053249 
L 395.936091 311.477558 
L 412.701048 311.805948 
L 436.981332 312.041031 
L 445.07476 312.085322 
L 445.07476 312.085322 
" clip-path="url(#p3a4aec359a)" style="fill: none; stroke: #ff7f0e; stroke-width: 1.5; stroke-linecap: square"/>
   </g>
   <g id="line2d_60">
    <path d="M 40.403365 6.803576 
L 143.30552 6.911063 
L 158.914274 7.154563 
L 168.742007 7.515189 
L 176.257333 8.002308 
L 182.616455 8.643938 
L 187.819373 9.395042 
L 192.444189 10.293992 
L 196.490903 11.310291 
L 199.959515 12.392626 
L 203.428127 13.71006 
L 206.318637 15.019064 
L 209.209147 16.550418 
L 212.099657 18.335718 
L 214.990167 20.409444 
L 217.880677 22.808746 
L 220.193085 24.989037 
L 222.505493 27.423894 
L 224.817901 30.134728 
L 227.130309 33.143014 
L 229.442717 36.469854 
L 231.755125 40.135468 
L 234.067533 44.15859 
L 236.379941 48.555797 
L 239.270451 54.598878 
L 242.160961 61.266067 
L 245.05147 68.564556 
L 247.94198 76.488054 
L 250.83249 85.014974 
L 254.301102 95.988986 
L 257.769714 107.678419 
L 262.39453 124.147013 
L 268.753652 147.767959 
L 277.425182 179.901241 
L 282.049998 196.150085 
L 286.096712 209.514726 
L 289.565324 220.211629 
L 293.033936 230.141347 
L 295.924446 237.80559 
L 298.814956 244.908719 
L 301.705466 251.456292 
L 304.595976 257.462587 
L 307.486486 262.948675 
L 310.376996 267.940616 
L 313.267506 272.467849 
L 316.158016 276.561808 
L 319.048526 280.254779 
L 321.939036 283.579 
L 324.829545 286.565958 
L 327.720055 289.24589 
L 330.610565 291.647434 
L 333.501075 293.797408 
L 336.969687 296.0802 
L 340.438299 298.075716 
L 343.906911 299.819194 
L 347.953625 301.5764 
L 352.000339 303.0769 
L 356.625155 304.525596 
L 361.249971 305.736009 
L 366.452889 306.86248 
L 372.233909 307.876478 
L 378.593031 308.762109 
L 386.108357 309.569 
L 394.779887 310.25926 
L 405.185722 310.845455 
L 417.903966 311.321408 
L 434.090822 311.690606 
L 445.07476 311.848346 
L 445.07476 311.848346 
" clip-path="url(#p3a4aec359a)" style="fill: none; stroke: #2ca02c; stroke-width: 1.5; stroke-linecap: square"/>
   </g>
   <g id="patch_3">
    <path d="M 40.403365 312.24351 
L 40.403365 3.749173 
" style="fill: none; stroke: #000000; stroke-width: 0.8; stroke-linejoin: miter; stroke-linecap: square"/>
   </g>
   <g id="patch_4">
    <path d="M 445.07476 312.24351 
L 445.07476 3.749173 
" style="fill: none; stroke: #000000; stroke-width: 0.8; stroke-linejoin: miter; stroke-linecap: square"/>
   </g>
   <g id="patch_5">
    <path d="M 40.403365 312.24351 
L 445.07476 312.24351 
" style="fill: none; stroke: #000000; stroke-width: 0.8; stroke-linejoin: miter; stroke-linecap: square"/>
   </g>
   <g id="patch_6">
    <path d="M 40.403365 3.749173 
L 445.07476 3.749173 
" style="fill: none; stroke: #000000; stroke-width: 0.8; stroke-linejoin: miter; stroke-linecap: square"/>
   </g>
   <g id="legend_1">
    <g id="patch_7">
     <path d="M 351.17476 57.944486 
L 438.07476 57.944486 
Q 440.07476 57.944486 440.07476 55.944486 
L 440.07476 10.749173 
Q 440.07476 8.749173 438.07476 8.749173 
L 351.17476 8.749173 
Q 349.17476 8.749173 349.17476 10.749173 
L 349.17476 55.944486 
Q 349.17476 57.944486 351.17476 57.944486 
L 351.17476 57.944486 
z
" style="fill: none; opacity: 0.8; stroke: #cccccc; stroke-linejoin: miter"/>
    </g>
    <g id="line2d_61">
     <path d="M 353.17476 16.847611 
L 363.17476 16.847611 
L 373.17476 16.847611 
" style="fill: none; stroke: #1f77b4; stroke-width: 1.5; stroke-linecap: square"/>
    </g>
    <g id="text_17">
     <!-- $x_{H_2O}=$0.08 -->
     <g transform="translate(381.17476 20.347611) scale(0.1 -0.1)">
      <defs>
       <path id="DejaVuSans-Oblique-78" d="M 3841 3500 
L 2234 1784 
L 3219 0 
L 2559 0 
L 1819 1388 
L 531 0 
L -166 0 
L 1556 1844 
L 641 3500 
L 1300 3500 
L 1972 2234 
L 3144 3500 
L 3841 3500 
z
" transform="scale(0.015625)"/>
       <path id="DejaVuSans-3d" d="M 678 2906 
L 4684 2906 
L 4684 2381 
L 678 2381 
L 678 2906 
z
M 678 1631 
L 4684 1631 
L 4684 1100 
L 678 1100 
L 678 1631 
z
" transform="scale(0.015625)"/>
      </defs>
      <use xlink:href="#DejaVuSans-Oblique-78" transform="translate(0 0.78125)"/>
      <use xlink:href="#DejaVuSans-Oblique-48" transform="translate(59.179688 -15.625) scale(0.7)"/>
      <use xlink:href="#DejaVuSans-32" transform="translate(111.816406 -27.109375) scale(0.49)"/>
      <use xlink:href="#DejaVuSans-Oblique-4f" transform="translate(144.905762 -15.625) scale(0.7)"/>
      <use xlink:href="#DejaVuSans-3d" transform="translate(222.220215 0.78125)"/>
      <use xlink:href="#DejaVuSans-30" transform="translate(325.491699 0.78125)"/>
      <use xlink:href="#DejaVuSans-2e" transform="translate(389.114746 0.78125)"/>
      <use xlink:href="#DejaVuSans-30" transform="translate(420.901855 0.78125)"/>
      <use xlink:href="#DejaVuSans-38" transform="translate(484.524902 0.78125)"/>
     </g>
    </g>
    <g id="line2d_62">
     <path d="M 353.17476 32.246048 
L 363.17476 32.246048 
L 373.17476 32.246048 
" style="fill: none; stroke: #ff7f0e; stroke-width: 1.5; stroke-linecap: square"/>
    </g>
    <g id="text_18">
     <!-- $x_{H_2O}=$0.2 -->
     <g transform="translate(381.17476 35.746048) scale(0.1 -0.1)">
      <use xlink:href="#DejaVuSans-Oblique-78" transform="translate(0 0.78125)"/>
      <use xlink:href="#DejaVuSans-Oblique-48" transform="translate(59.179688 -15.625) scale(0.7)"/>
      <use xlink:href="#DejaVuSans-32" transform="translate(111.816406 -27.109375) scale(0.49)"/>
      <use xlink:href="#DejaVuSans-Oblique-4f" transform="translate(144.905762 -15.625) scale(0.7)"/>
      <use xlink:href="#DejaVuSans-3d" transform="translate(222.220215 0.78125)"/>
      <use xlink:href="#DejaVuSans-30" transform="translate(325.491699 0.78125)"/>
      <use xlink:href="#DejaVuSans-2e" transform="translate(389.114746 0.78125)"/>
      <use xlink:href="#DejaVuSans-32" transform="translate(415.401855 0.78125)"/>
     </g>
    </g>
    <g id="line2d_63">
     <path d="M 353.17476 47.644486 
L 363.17476 47.644486 
L 373.17476 47.644486 
" style="fill: none; stroke: #2ca02c; stroke-width: 1.5; stroke-linecap: square"/>
    </g>
    <g id="text_19">
     <!-- $x_{H_2O}=$0.5 -->
     <g transform="translate(381.17476 51.144486) scale(0.1 -0.1)">
      <defs>
       <path id="DejaVuSans-35" d="M 691 4666 
L 3169 4666 
L 3169 4134 
L 1269 4134 
L 1269 2991 
Q 1406 3038 1543 3061 
Q 1681 3084 1819 3084 
Q 2600 3084 3056 2656 
Q 3513 2228 3513 1497 
Q 3513 744 3044 326 
Q 2575 -91 1722 -91 
Q 1428 -91 1123 -41 
Q 819 9 494 109 
L 494 744 
Q 775 591 1075 516 
Q 1375 441 1709 441 
Q 2250 441 2565 725 
Q 2881 1009 2881 1497 
Q 2881 1984 2565 2268 
Q 2250 2553 1709 2553 
Q 1456 2553 1204 2497 
Q 953 2441 691 2322 
L 691 4666 
z
" transform="scale(0.015625)"/>
      </defs>
      <use xlink:href="#DejaVuSans-Oblique-78" transform="translate(0 0.78125)"/>
      <use xlink:href="#DejaVuSans-Oblique-48" transform="translate(59.179688 -15.625) scale(0.7)"/>
      <use xlink:href="#DejaVuSans-32" transform="translate(111.816406 -27.109375) scale(0.49)"/>
      <use xlink:href="#DejaVuSans-Oblique-4f" transform="translate(144.905762 -15.625) scale(0.7)"/>
      <use xlink:href="#DejaVuSans-3d" transform="translate(222.220215 0.78125)"/>
      <use xlink:href="#DejaVuSans-30" transform="translate(325.491699 0.78125)"/>
      <use xlink:href="#DejaVuSans-2e" transform="translate(389.114746 0.78125)"/>
      <use xlink:href="#DejaVuSans-35" transform="translate(420.901855 0.78125)"/>
     </g>
    </g>
   </g>
  </g>
 </g>
 <defs>
  <clipPath id="p3a4aec359a">
   <rect x="40.403365" y="3.749173" width="404.671395" height="308.494337"/>
  </clipPath>
 </defs>
</svg>
